<svg xmlns="http://www.w3.org/2000/svg" viewBox="0 0 500 500"><g id="freepik--background-complete--inject-230"><rect x="129.06" y="64.53" width="30.2" height="40.51" style="fill:#ebebeb"></rect><rect x="130.63" y="66.12" width="27.06" height="37.32" style="fill:#fafafa"></rect><rect x="139.4" y="79.03" width="10.33" height="11.8" style="fill:#e0e0e0"></rect><rect x="381.19" y="115.03" width="52.19" height="70" style="fill:#ebebeb"></rect><rect x="383.91" y="117.78" width="46.76" height="64.5" style="fill:#fafafa"></rect><rect x="399.06" y="140.09" width="17.85" height="20.4" style="fill:#ebebeb"></rect><rect x="53.56" y="90.55" width="50.85" height="68.21" style="fill:#e0e0e0"></rect><rect x="56.21" y="93.23" width="45.56" height="62.85" style="fill:#fafafa"></rect><path d="M93.79,135.5c.19.63-.09,1.39-.94,2.16a8.49,8.49,0,0,1-4.17,1.81A14.37,14.37,0,0,1,81.9,139a16.12,16.12,0,0,1-11.06-12.43,14.3,14.3,0,0,1,.28-6.8,8.49,8.49,0,0,1,2.28-3.93,2.19,2.19,0,0,1,2.26-.68c1.25.56,1.56,2.62,2.31,5a20,20,0,0,0,3.92,7.67,20,20,0,0,0,7.17,4.79C91.37,133.64,93.38,134.19,93.79,135.5Z" style="fill:#ebebeb"></path><path d="M92.73,135a4.59,4.59,0,0,1-1.18.15,14.86,14.86,0,0,1-3.23-.21,16.59,16.59,0,0,1-13.84-14.55,14.92,14.92,0,0,1,0-3.24,4.85,4.85,0,0,1,.21-1.17,30.07,30.07,0,0,0,.2,4.37,16.85,16.85,0,0,0,13.54,14.23A30.78,30.78,0,0,0,92.73,135Z" style="fill:#e0e0e0"></path><path d="M74.11,115.65a20.34,20.34,0,0,0,1.22-3.73l2.46.61A6.27,6.27,0,0,0,76,116.68" style="fill:#ebebeb"></path></g><g id="freepik--Floor--inject-230"><path d="M470.15,466.49c0,.16-95.65.28-213.61.28s-213.62-.12-213.62-.28,95.62-.27,213.62-.27S470.15,466.34,470.15,466.49Z" style="fill:#263238"></path></g><g id="freepik--Chair--inject-230"><path d="M458.86,260l-38.06-.18L409.51,377.26l-44.83-.19v7.1l6.12,0,3.58,82.43,2.45-.21-1-31.78L407.23,411l33.37,27.4-.19,28.36,2.45-.08,1.61-82,3,0,.15-7.32h-.14ZM436.27,384.67l-29.22,22.92-28.74-23.33Zm-60.5,47.45-1.47-47.89h.31L405,409.19Zm33.55-22.69L441,385.59l-.33,49.26Z" style="fill:#455a64"></path></g><g id="freepik--Table--inject-230"><rect x="201.31" y="335.15" width="206.24" height="9.97" style="fill:#263238"></rect><rect x="220.78" y="345.12" width="4.82" height="121.65" style="fill:#263238"></rect><rect x="380.26" y="345.12" width="4.82" height="121.65" style="fill:#263238"></rect></g><g id="freepik--coffee-maker--inject-230"><path d="M374.47,315.46c-.21,0-.26-1-.22-2.57a36.2,36.2,0,0,0-.27-5.95,9.11,9.11,0,0,0-.72-3,3.25,3.25,0,0,0-1.56-1.59c-1.24-.59-2.11-.07-2.24-.25s.06-.34.5-.6a2.79,2.79,0,0,1,2.1-.2,4.07,4.07,0,0,1,2.46,1.95,8.7,8.7,0,0,1,1,3.5,24.15,24.15,0,0,1,.16,3.44,18.17,18.17,0,0,1-.34,2.8C375,314.57,374.68,315.49,374.47,315.46Z" style="fill:#263238"></path><polygon points="360.21 298.83 359.35 297.33 360.7 296.68 361.94 297.25 361.36 298.93 360.21 298.83" style="fill:#263238"></polygon><polygon points="348.64 335.55 353.54 317.94 349.48 305.78 344.46 301.75 370.41 300.98 368.9 317.38 374.9 335.55 348.64 335.55" style="fill:#90CAF9"></polygon><polygon points="350.01 301.15 360.55 298.75 370.41 300.98 350.01 301.15" style="fill:#90CAF9"></polygon><polygon points="353.54 317.94 368.9 317.38 369.07 315.46 352.95 315.46 353.54 317.94" style="fill:#263238"></polygon><path d="M370.55,301a99,99,0,0,1-10.07.26,99,99,0,0,1-10.07-.26,95.63,95.63,0,0,1,10.07-.26A95.63,95.63,0,0,1,370.55,301Z" style="fill:#263238"></path><path d="M355.75,335.4a80.82,80.82,0,0,1,.93-9,80,80,0,0,1,1.45-8.91,75.44,75.44,0,0,1-.93,9A79.51,79.51,0,0,1,355.75,335.4Z" style="fill:#263238"></path><path d="M367.05,335.81a12.89,12.89,0,0,1-.87-2.59c-.45-1.62-1-3.88-1.5-6.4s-.83-4.83-1-6.5a12.57,12.57,0,0,1-.17-2.72,16.88,16.88,0,0,1,.54,2.67c.27,1.65.67,3.94,1.16,6.45s1,4.77,1.35,6.41A16.4,16.4,0,0,1,367.05,335.81Z" style="fill:#263238"></path><path d="M347.07,269.9s.12,0,.3.18a1.91,1.91,0,0,1,.54.83,3.46,3.46,0,0,1,.15,1.56,8.91,8.91,0,0,1-.57,2,5.6,5.6,0,0,0-.48,2.3,5.35,5.35,0,0,0,.84,2.53,30,30,0,0,0,1.77,2.52,10.29,10.29,0,0,1,1.67,3,4.46,4.46,0,0,1-.22,3.43,10.67,10.67,0,0,1-1.88,2.56c-1.38,1.41-2.59,2.76-2.84,4.2a3.22,3.22,0,0,0,1.08,3,2.92,2.92,0,0,0,1.16.46s-.11,0-.34,0a2,2,0,0,1-.93-.33,3.35,3.35,0,0,1-1.34-3.26c.24-1.59,1.51-3.06,2.85-4.47A10.11,10.11,0,0,0,350.6,288a4,4,0,0,0,.2-3.06,10.05,10.05,0,0,0-1.59-2.82c-.63-.87-1.27-1.7-1.78-2.58a5.17,5.17,0,0,1-.28-5.2,9.54,9.54,0,0,0,.62-1.88,3.46,3.46,0,0,0,0-1.46A2.62,2.62,0,0,0,347.07,269.9Z" style="fill:#e0e0e0"></path><path d="M351.81,275.18c.05,0-.15.32-.22.93a4.42,4.42,0,0,0,.51,2.48,22.46,22.46,0,0,0,2.29,3.16,6.86,6.86,0,0,1,1.45,4.67,6.78,6.78,0,0,1-.68,2.5,8.75,8.75,0,0,1-1.37,1.94,18.25,18.25,0,0,0-2.47,3,4.78,4.78,0,0,0-.72,2.44c0,.61.16.94.11.95a1.66,1.66,0,0,1-.31-.94,4.65,4.65,0,0,1,.59-2.63,17.76,17.76,0,0,1,2.44-3.14,6.88,6.88,0,0,0,1.89-4.16A6.53,6.53,0,0,0,354,282a19.68,19.68,0,0,1-2.23-3.28,4.4,4.4,0,0,1-.38-2.67,2.66,2.66,0,0,1,.26-.7C351.74,275.24,351.8,275.17,351.81,275.18Z" style="fill:#e0e0e0"></path></g><g id="freepik--Window--inject-230"><rect x="184.52" y="48.75" width="147.08" height="264.23" style="fill:#455a64"></rect><rect x="190.39" y="56.41" width="133.81" height="248.69" style="fill:#fafafa"></rect><polygon points="337.82 315.35 331.6 312.97 331.6 44.27 337.82 44.27 337.82 315.35" style="fill:#263238"></polygon><path d="M223.2,217.05,258,184.75c4.4-4.09,10.16-8.5,15.82-6.49,2.73,1,4.78,3.3,7.45,4.41,5.33,2.22,11.43-1,15.53-5.06s7.34-9.16,12.31-12.11,12.69-2.58,15.15,2.65v35.16L273.7,224.93Z" style="fill:#f5f5f5"></path><path d="M190.39,196.84c12.81-5.21,25.59-.78,34.75,9.57,1.93,2.18,3.69,4.7,6.34,5.9,3.59,1.63,7.74.41,11.65,0a29.33,29.33,0,0,1,27.57,13.36l-42.76,21-37.55-.27Z" style="fill:#e0e0e0"></path><path d="M324.21,197c-8.44-4.07-15.86.85-23.64,6.07s-15,11.9-24.14,14c-6.1,1.4-12.64.62-18.53,2.72-12,4.28-19,19.53-31.69,20.26-6.91.4-13.11-3.79-19.28-6.94s-11-6.13-16.54-1.92V305.1H324.21Z" style="fill:#ebebeb"></path><circle cx="291.07" cy="127.95" r="22.08" transform="translate(100.23 382.26) rotate(-76.84)" style="fill:#e0e0e0"></circle><rect x="190.39" y="127.95" width="136.72" height="2.65" style="fill:#455a64"></rect><rect x="190.39" y="187.17" width="136.72" height="2.65" style="fill:#455a64"></rect><rect x="190.39" y="246.4" width="136.72" height="2.65" style="fill:#455a64"></rect><rect x="165.86" y="217.33" width="182.88" height="6.76" transform="translate(36.59 478.01) rotate(-90)" style="fill:#455a64"></rect><rect x="216.16" y="56.41" width="3.06" height="72.87" style="fill:#455a64"></rect><rect x="242.58" y="56.41" width="3.06" height="72.87" style="fill:#455a64"></rect><rect x="268.99" y="56.41" width="3.06" height="72.87" style="fill:#455a64"></rect><rect x="295.41" y="56.41" width="3.06" height="72.87" style="fill:#455a64"></rect><rect x="178.29" y="44.27" width="6.22" height="270.34" style="fill:#263238"></rect><rect x="178.29" y="41.54" width="159.53" height="7.21" style="fill:#263238"></rect><rect x="173.88" y="316.24" width="168.15" height="6.72" style="fill:#455a64"></rect><polygon points="331.6 312.97 342.03 316.24 173.88 316.24 184.51 312.97 331.6 312.97" style="fill:#263238"></polygon></g><g id="freepik--Character--inject-230"><path d="M162.57,222.6s11.63,1.51,12.33,20.56,1.83,35,1.83,35l-16.28-2-1.54-21.27,3.66-32.26" style="fill:#ffbe9d"></path><polygon points="94.51 308.47 99.41 467.43 114.31 467.43 120.31 313.93 94.51 308.47" style="fill:#ffbe9d"></polygon><path d="M119.21,312.77l6.21,74.78L79.94,438.27l6.44,17L138,405.38a30.38,30.38,0,0,0,9.22-20.17L151,318Z" style="fill:#ffbe9d"></path><path d="M117.41,396.86a4,4,0,0,1-.7.88c-.48.55-1.19,1.32-2.08,2.27l-7,7.31c-2.73,2.85-5.12,5.51-6.83,7.46l-2,2.31c-.48.54-.76.84-.79.81a5.07,5.07,0,0,1,.63-.94c.43-.58,1.07-1.41,1.89-2.42,1.64-2,4-4.72,6.73-7.58s5.28-5.39,7.12-7.21l2.19-2.15A5.68,5.68,0,0,1,117.41,396.86Z" style="fill:#eb996e"></path><path d="M118.49,424.08a4.44,4.44,0,0,1-.71.83l-2,2.17c-1.75,1.81-4.14,4.35-7,6.9s-5.53,4.79-7.27,6.61-2.73,3-2.8,3a5,5,0,0,1,.61-.92c.43-.56,1.07-1.36,1.92-2.3a75.59,75.59,0,0,1,7.19-6.74c2.88-2.53,5.31-5,7.13-6.77.9-.88,1.65-1.58,2.17-2.05A4.58,4.58,0,0,1,118.49,424.08Z" style="fill:#eb996e"></path><path d="M85.52,456.13l12-11.82-8.4-16.85L75.7,442.38l.54,1.24c1.41,4.81,6.71,21.7,8.78,24.52C87.34,471.28,85.52,456.13,85.52,456.13Z" style="fill:#90CAF9"></path><path d="M86.38,463.12c-.08.13-.87-.29-1.92-.33s-1.88.28-1.95.15.75-.73,2-.67S86.48,463,86.38,463.12Z" style="fill:#263238"></path><path d="M78.4,438.94s.61.23,1.24,1a5.15,5.15,0,0,1-.73,7.13,2.62,2.62,0,0,1-1.42.75c0-.08.51-.34,1.17-1a5.22,5.22,0,0,0,.68-6.64C78.83,439.38,78.34,439,78.4,438.94Z" style="fill:#263238"></path><path d="M96.26,446.3A13.72,13.72,0,0,1,94.69,444c-.9-1.48-2.08-3.55-3.31-5.89s-2.26-4.49-3-6.07a13.51,13.51,0,0,1-1-2.61,18.13,18.13,0,0,1,1.35,2.45l3.09,6c1.2,2.24,2.28,4.27,3.17,5.95A16.42,16.42,0,0,1,96.26,446.3Z" style="fill:#263238"></path><path d="M99.41,467.43s17.57,13,20.9,12.14c3.86-1-6-12.14-6-12.14Z" style="fill:#90CAF9"></path><polygon points="98.76 453.07 115.13 453.07 114.31 467.43 99.41 467.43 98.76 453.07" style="fill:#90CAF9"></polygon><path d="M114.47,455.29a60.81,60.81,0,0,1-7.89.26,60.81,60.81,0,0,1-7.89-.26,60.81,60.81,0,0,1,7.89-.26A60.81,60.81,0,0,1,114.47,455.29Z" style="fill:#263238"></path><path d="M103,470.12a8.4,8.4,0,0,0-1.16-3.15,8.61,8.61,0,0,0-2.59-2.14c0-.06.43-.05,1,.21a4.88,4.88,0,0,1,2.86,4C103.18,469.73,103.05,470.13,103,470.12Z" style="fill:#263238"></path><path d="M120.31,475.6a14.39,14.39,0,0,0-3,.3,14.78,14.78,0,0,0-2.65,1.33,4.56,4.56,0,0,1,5.61-1.63Z" style="fill:#263238"></path><path d="M114.31,222.6s-5.78.46-10.57,15.61-11.55,34-11.55,34L114.31,269Z" style="fill:#ffbe9d"></path><path d="M158.18,261.08l.73,5.09,19.94-1.06-3.83-27s-1.16-11.93-12.45-16.36h0l0,0c-.46-.18-.93-.34-1.42-.49-15.23-5.28-29.48-5.25-45.35.17,0,0-7,1.89-10.47,11.09s-9,25.19-9,25.19l18,3.11.1-2.67V269l-4.5,8.07c-5.89,6.22-17.33,20.14-17.67,34.64-.15,6.55-.39,18.42.45,25.44,0,0,17.31,15.95,60.12,15.51L155.35,288h0l.62-7.11Z" style="fill:#90CAF9"></path><path d="M155.31,177.75c2.41,2.68,2.62,7,2.31,10.63s-1.11,7.23-.37,10.76c.32,1.49.9,2.92,1.16,4.42a5.66,5.66,0,0,1-.74,4.38,3,3,0,0,1-4,.8,9.33,9.33,0,0,1-1.45,2.95,3.14,3.14,0,0,1-2.89,1.24c-1.55-.29-2.8-2.12-4.3-1.62-.92.31-1.33,1.36-1.93,2.12a4,4,0,0,1-6.9-1c-.17-.41-.31-.91-.72-1.1-.73-.34-1.37.54-2,1a2.43,2.43,0,0,1-3.93-2.32,7.09,7.09,0,0,1-4.49,1.63,3.65,3.65,0,0,1-3.48-2.86c-.24-1.76,1.16-3.29,2.45-4.52a4.45,4.45,0,0,1-3-1.18,2.38,2.38,0,0,1-.37-3c.76-1,2.34-1,3.27-1.91s.93-2.61.86-4c-.23-4.32,1.21-8.47,3-12.42,1.68-3.77,5.66-8.13,11.54-8.15" style="fill:#263238"></path><path d="M131.67,217.7l-1.53-33,13.18-10,12,5.84s.44,15.08.06,21.63-7,7.26-7,7.26.21,3.61.42,7.4a8.61,8.61,0,0,1-8,9.08h0A8.61,8.61,0,0,1,131.67,217.7Z" style="fill:#ffbe9d"></path><path d="M154.08,191.52a.84.84,0,1,1-.84-.84A.85.85,0,0,1,154.08,191.52Z" style="fill:#263238"></path><path d="M154.89,190.6c-.11.11-.73-.41-1.63-.46s-1.58.39-1.67.27.06-.25.36-.45a2.16,2.16,0,0,1,1.34-.36,2.13,2.13,0,0,1,1.29.51C154.85,190.34,154.94,190.56,154.89,190.6Z" style="fill:#263238"></path><path d="M144.38,191.55a.84.84,0,0,1-1.68,0,.84.84,0,1,1,1.68,0Z" style="fill:#263238"></path><path d="M144.9,190.63c-.11.11-.73-.41-1.63-.46s-1.58.39-1.67.27.06-.25.36-.45a2.16,2.16,0,0,1,1.34-.36,2.13,2.13,0,0,1,1.29.51C144.86,190.38,145,190.59,144.9,190.63Z" style="fill:#263238"></path><path d="M145.2,199.1a16.54,16.54,0,0,0,4.36,1.49,2.55,2.55,0,0,1-3,.86A1.87,1.87,0,0,1,145.2,199.1Z" style="fill:#fff"></path><path d="M148.45,209.41a16.35,16.35,0,0,1-8.67-2.9s2.2,4.81,8.76,4.52Z" style="fill:#eb996e"></path><path d="M148.17,198.24a6,6,0,0,1,1.48-.19c.23,0,.45-.05.5-.22a1.3,1.3,0,0,0-.13-.72c-.2-.59-.41-1.22-.62-1.87-.44-1.33-.81-2.54-1.06-3.42a6.25,6.25,0,0,1-.34-1.44,5.43,5.43,0,0,1,.58,1.36c.32.86.73,2.06,1.16,3.39l.6,1.87a1.42,1.42,0,0,1,.09.94.56.56,0,0,1-.38.33,1.43,1.43,0,0,1-.39,0A6.3,6.3,0,0,1,148.17,198.24Z" style="fill:#263238"></path><path d="M155.83,180.09c-2.48,4.18-5.36,5.17-9,6.94l1.79-3a15,15,0,0,1-7.58,4.45l1.38-2.55c-2.73,3.78-8,8.1-12.62,8.46-.38-2.71,0-7.28.27-10a12.39,12.39,0,0,1,3-7.47c2.89-3.1,7.55-3.84,11.79-3.58,4.08.24,8.49,1.49,10.77,4.88" style="fill:#263238"></path><path d="M131.14,196.45a8.36,8.36,0,0,0-.36-3.23,3.07,3.07,0,0,0-2.36-2,2.57,2.57,0,0,0-2.65,2.15,3.19,3.19,0,0,0,1.62,3.15,4.19,4.19,0,0,0,3.64.09" style="fill:#ffbe9d"></path><path d="M129.23,195.51c0-.08-.36.09-.82,0a1.47,1.47,0,0,1-1-1.39,1.08,1.08,0,0,1,.23-.87,1,1,0,0,1,.71-.22c.49,0,.83.17.86.09s-.22-.31-.81-.47a1.25,1.25,0,0,0-1.09.22,1.48,1.48,0,0,0-.45,1.29,2.08,2.08,0,0,0,.49,1.22,1.46,1.46,0,0,0,1,.5C129,195.9,129.28,195.55,129.23,195.51Z" style="fill:#eb996e"></path><path d="M122,195.6a1.58,1.58,0,0,0-.27-.08.94.94,0,0,0-.73.22,1,1,0,0,0-.27,1.12,1.49,1.49,0,0,0,1.24.94,3,3,0,0,0,3.21-2.29A5.93,5.93,0,0,0,125,193c-.1-.44-.23-.88-.31-1.36a8.75,8.75,0,0,1-.06-1.45,30,30,0,0,1,.67-5.43,7.41,7.41,0,0,1,1-2.18,13.08,13.08,0,0,1,1.24-1.68,12.6,12.6,0,0,1,2.25-2,6.92,6.92,0,0,1,.95-.56l-.24.16c-.15.1-.38.26-.66.47a12.66,12.66,0,0,0-2.19,2,12,12,0,0,0-1.2,1.67,7.54,7.54,0,0,0-1,2.13,31.47,31.47,0,0,0-.64,5.4,9.4,9.4,0,0,0,.05,1.41c.08.45.21.9.3,1.35a6,6,0,0,1,.17,2.65A3.11,3.11,0,0,1,122,198a1.63,1.63,0,0,1-1.33-1,1.08,1.08,0,0,1,.33-1.23,1,1,0,0,1,.79-.19A.6.6,0,0,1,122,195.6Z" style="fill:#263238"></path><path d="M141.07,187.15a13.7,13.7,0,0,0,2.28-1,14.87,14.87,0,0,0,4.37-4c1.42-1.87,2.51-3.7,3.4-4.95.44-.63.82-1.13,1.09-1.47.13-.17.24-.29.32-.38s.11-.13.12-.12a5.56,5.56,0,0,1-.38.55c-.25.35-.6.86-1,1.5-.86,1.27-1.92,3.11-3.35,5a14.36,14.36,0,0,1-4.47,4A7.16,7.16,0,0,1,141.07,187.15Z" style="fill:#455a64"></path><path d="M158.35,208.59a4.83,4.83,0,0,0,.79-.81,4,4,0,0,0,.77-2.9,4.34,4.34,0,0,0-.84-1.92,23.55,23.55,0,0,1-1.45-2,4.5,4.5,0,0,1-.5-2.7,13.71,13.71,0,0,1,.72-2.87,23,23,0,0,0,1.23-5.49,11.37,11.37,0,0,0-.63-4.52,18.62,18.62,0,0,0-1.3-2.82c-.15-.28-.29-.52-.42-.74a1.13,1.13,0,0,1-.13-.27,1.8,1.8,0,0,1,.17.25c.1.16.27.4.45.72a17.16,17.16,0,0,1,1.37,2.81,11.4,11.4,0,0,1,.68,4.58,22.28,22.28,0,0,1-1.23,5.55,14.21,14.21,0,0,0-.71,2.82,4.36,4.36,0,0,0,.47,2.59,24.57,24.57,0,0,0,1.42,2,4.31,4.31,0,0,1,.84,2,4,4,0,0,1-.84,3A2.77,2.77,0,0,1,158.35,208.59Z" style="fill:#263238"></path><path d="M128,190.81a4,4,0,0,1,.71.21,7.18,7.18,0,0,1,1.78,1,8,8,0,0,1,1,.94c.36.36.65.82,1.05,1.18a1.68,1.68,0,0,0,1.56.4,4.51,4.51,0,0,0,1.65-.8,16.73,16.73,0,0,0,4.55-4.74,19.53,19.53,0,0,0,1-1.74,3.91,3.91,0,0,1,.33-.66s0,.06-.06.18a5,5,0,0,1-.2.51,15.11,15.11,0,0,1-.93,1.79,16,16,0,0,1-4.55,4.83,4.54,4.54,0,0,1-1.73.83,1.88,1.88,0,0,1-1.72-.45c-.44-.4-.72-.86-1.06-1.22a8.49,8.49,0,0,0-1-.93,8.13,8.13,0,0,0-1.72-1C128.22,190.9,128,190.82,128,190.81Z" style="fill:#263238"></path><path d="M128.68,191.19a3.8,3.8,0,0,1,.29-.87,7.25,7.25,0,0,1,1.38-2.06c1.41-1.59,4-3,6.24-5.27a31.29,31.29,0,0,0,5.07-6.35c.55-.89.93-1.64,1.21-2.15l.3-.6a1.72,1.72,0,0,1,.12-.21.77.77,0,0,1-.08.22c-.08.2-.17.4-.27.62-.25.53-.62,1.3-1.15,2.2a29.78,29.78,0,0,1-5.06,6.42c-2.29,2.25-4.86,3.68-6.27,5.22a7.74,7.74,0,0,0-1.42,2C128.79,190.88,128.71,191.2,128.68,191.19Z" style="fill:#455a64"></path><path d="M125.66,211.77a4.23,4.23,0,0,0,.52-.3,2.45,2.45,0,0,0,.84-1.37,4,4,0,0,0-.22-2.38c-.3-.87-.81-1.79-1.08-2.85a9.83,9.83,0,0,1,.71-7.06,2.67,2.67,0,0,1,.32-.52,3.45,3.45,0,0,1-.24.56,10.48,10.48,0,0,0-.56,1.56,10.31,10.31,0,0,0,0,5.41c.27,1,.76,1.94,1.06,2.84a4.08,4.08,0,0,1,.18,2.48,2.46,2.46,0,0,1-.93,1.39A1.4,1.4,0,0,1,125.66,211.77Z" style="fill:#455a64"></path><g style="opacity:0.1"><path d="M99.09,289.85c3.64.3,7.14-1.55,10-3.85s5.29-5.08,8.27-7.19,6.78-3.52,10.3-2.53c3.06.86,5.33,3.33,7.75,5.38a33.25,33.25,0,0,0,19.88,8.14c-.05-1,.2-4.07.2-4.07-.8-1.19-2.53-2.11-3.62-3l-10.17-8.77c-2.56-2.21-5.18-4.45-8.3-5.75a30.85,30.85,0,0,0-8.37-1.83c-2.44-.28-5-.53-7.26.41-2.43,1-4.12,3.2-5.69,5.31L98.64,290"></path></g><polygon points="120.95 245.63 119.82 269.44 139.44 269.44 141.84 246.3 120.95 245.63" style="fill:#455a64"></polygon><path d="M93.24,269.26l-2.45,5.4c-2.24,7.7,1.91,14.83,8.87,15.4h0l17.49-20.45-2.91-12.07Z" style="fill:#ffbe9d"></path><path d="M117.15,269.61a98.7,98.7,0,0,0,12.06-1.3c4.72-.75,4.67-1.18,4.5-1.72-.45-1.45-8.35,1-6.93-.51s10-1.88,9.45-3.37c-.7-1.95-8.93.78-9.64,1s-1-.85-.32-1c.94-.18,10.72-2.35,10.06-4.27-.37-1.06-2.22-.17-2.22-.17s-9,2.7-9.3,1.79,5-2.7,6.77-3.17,2.31-1.51,1.47-2.14c-.58-.43-6.15.88-7.92,1.39s-6.64,2-4.79-.7l.08-.13c1.9-2.59,2.5-5.22,2.16-6.1a1.11,1.11,0,0,0-2,0,1.27,1.27,0,0,0-.18.43c0,.07-.05.16-.07.24a16.45,16.45,0,0,1-1.64,2.86,8.89,8.89,0,0,1-2,2.11c-.93.67-3.25,3.13-4,3.57" style="fill:#ffbe9d"></path><path d="M141.2,264c.05-.37,1.34-.38,2.68-1.48a5.54,5.54,0,0,0,1.69-2.38,8,8,0,0,0,.48-3.64,7.14,7.14,0,0,0-1.23-3.4,6.18,6.18,0,0,0-2.25-1.92c-1.58-.81-2.85-.7-2.94-1.08,0-.16.23-.43.84-.64a5.15,5.15,0,0,1,2.71,0,6.88,6.88,0,0,1,3.51,2.16,8.31,8.31,0,0,1,1.95,4.64,8.93,8.93,0,0,1-.89,4.9,6.48,6.48,0,0,1-2.91,2.95,4.58,4.58,0,0,1-2.72.46C141.47,264.4,141.18,264.15,141.2,264Z" style="fill:#455a64"></path><path d="M139.3,265.41,133,268.64a1.92,1.92,0,0,0-.56,3c5.06,5.6,21.39,21.3,39.73,13.26a7.29,7.29,0,0,0,4.09-9.07c-1-2.8-4-5.51-11.3-6.21l-.14,0-24.3-4.36A1.88,1.88,0,0,0,139.3,265.41Z" style="fill:#ffbe9d"></path><path d="M133.42,251s7.29.08,7.74,1.7c.77,2.67-.6,17.34-.6,17.34l-6.7,2.23s-3.24-.75-1.74-7a45.49,45.49,0,0,1,4.43-11.2s-8.91.25-8.66-1.74S133.42,251,133.42,251Z" style="fill:#ffbe9d"></path><path d="M136.32,255.29c-.4-.07-9.31-.81-8.75.61s8.75,1.78,8.75,1.78Z" style="fill:#ffbe9d"></path><path d="M122,246.5l18.82.57S131.52,254.21,122,246.5Z" style="fill:#263238"></path><path d="M122.1,246.31a1.34,1.34,0,0,1-.34-.53,2.6,2.6,0,0,1,0-1.81,3.89,3.89,0,0,1,1.94-2.1,21.68,21.68,0,0,1,3.57-1.28,4.73,4.73,0,0,0,1.83-1,1.49,1.49,0,0,0,.09-1.94,3.79,3.79,0,0,0-1.94-1.37,6.92,6.92,0,0,1-2.44-1.36,2.4,2.4,0,0,1-.71-1.36,2.58,2.58,0,0,1,.29-1.54,5.72,5.72,0,0,1,2.24-2.1,18,18,0,0,0,4.6-4.1l.24-.3.19.34a3.62,3.62,0,0,1,.42,1.21,3.87,3.87,0,0,1-1,3.26c-.39.41-.81.75-1.16,1.12a1.93,1.93,0,0,0-.65,1.2,1.39,1.39,0,0,0,.58,1.14,2.82,2.82,0,0,0,1.28.53,28.48,28.48,0,0,0,2.92.23,10.23,10.23,0,0,1,2.82.49,4.66,4.66,0,0,1,2.25,1.58,3.27,3.27,0,0,1,.57,2.51,2.45,2.45,0,0,1-.55,1.13,3.43,3.43,0,0,1-.94.71c-.63.34-1.22.73-1.33,1.31s.36,1,.84,1.28a5.78,5.78,0,0,0,1.51.45,3.14,3.14,0,0,1,1.27.56,1.79,1.79,0,0,1,.57,1.77,1.57,1.57,0,0,1-.25.61s.09-.21.15-.62a1.73,1.73,0,0,0-.59-1.61,3.1,3.1,0,0,0-1.21-.47,5.86,5.86,0,0,1-1.58-.43,2.09,2.09,0,0,1-.76-.58,1.3,1.3,0,0,1-.28-1c.15-.77.87-1.22,1.47-1.57a2.24,2.24,0,0,0,1.28-1.59,2.83,2.83,0,0,0-.52-2.19,4.23,4.23,0,0,0-2.05-1.39A9.42,9.42,0,0,0,134,235a28.48,28.48,0,0,1-3-.22,3.33,3.33,0,0,1-1.51-.63,1.92,1.92,0,0,1-.77-1.55,2.49,2.49,0,0,1,.78-1.54c.39-.4.8-.74,1.16-1.12a3.35,3.35,0,0,0,.85-2.82,3.29,3.29,0,0,0-.36-1l.43,0a18.42,18.42,0,0,1-4.74,4.2,5.34,5.34,0,0,0-2.08,1.9,2.2,2.2,0,0,0-.25,1.25,2,2,0,0,0,.58,1.09,6.57,6.57,0,0,0,2.27,1.27,4.23,4.23,0,0,1,2.13,1.56,2.38,2.38,0,0,1,.37,1.27,1.82,1.82,0,0,1-.53,1.17,5.18,5.18,0,0,1-2,1.07,22.66,22.66,0,0,0-3.55,1.18,3.73,3.73,0,0,0-1.88,1.92,2.57,2.57,0,0,0-.09,1.71C122,246.13,122.12,246.3,122.1,246.31Z" style="fill:#fff"></path></g><g id="freepik--Plant--inject-230"><path d="M290.89,191c-5.27.84-7.63,7.33-7.17,12.66s2.65,10.53,2.06,15.85c-.74,6.75-5.84,12.45-6.44,19.22-.7,8,4.94,15.05,6.63,22.88.82,3.81.7,7.83,2.12,11.46a14.33,14.33,0,0,0,27.68-4.94c.12-6.13-3.66-11.9-3.2-18,.34-4.52,3-8.8,2.42-13.29-.67-5.35-5.63-9.14-7.38-14.24s-.06-10.71-.67-16.07c-1.08-9.61-6.41-16.31-16.05-15.53" style="fill:#90CAF9"></path><path d="M263.94,237.47c-.9,8.91,3,19.38,7.61,27.07a42.49,42.49,0,0,0,19.93,17.29c.93.39,2.09.72,2.88.09a2.87,2.87,0,0,0,.72-2.29,43.72,43.72,0,0,0-31.14-42.16" style="fill:#90CAF9"></path><g style="opacity:0.1"><path d="M263.94,237.47c-.9,8.91,3,19.38,7.61,27.07a42.49,42.49,0,0,0,19.93,17.29c.93.39,2.09.72,2.88.09a2.87,2.87,0,0,0,.72-2.29,43.72,43.72,0,0,0-31.14-42.16"></path></g><path d="M302.72,300.45a2.25,2.25,0,0,1-.26-.5l-.63-1.46c-.54-1.27-1.34-3.1-2.35-5.34a185,185,0,0,0-19.42-33.22c-1.45-2-2.65-3.58-3.5-4.67l-1-1.27a3,3,0,0,1-.31-.46s.15.12.39.4l1,1.21c.9,1.05,2.14,2.61,3.64,4.58A161.84,161.84,0,0,1,299.8,293c1,2.27,1.73,4.12,2.21,5.42l.55,1.5A2.72,2.72,0,0,1,302.72,300.45Z" style="fill:#263238"></path><path d="M297,215.58a6.7,6.7,0,0,1,.09.86c.05.6.11,1.42.18,2.45.14,2.18.34,5.25.58,9,.48,7.62,1.16,18.14,2,29.75s1.63,22.14,2.22,29.75c.29,3.77.52,6.83.69,9,.07,1,.12,1.85.16,2.45a4.65,4.65,0,0,1,0,.86,5.33,5.33,0,0,1-.13-.85c-.06-.6-.15-1.42-.26-2.44-.2-2.18-.49-5.24-.85-9-.68-7.61-1.54-18.12-2.36-29.74s-1.44-22.15-1.83-29.77c-.17-3.78-.31-6.85-.42-9,0-1-.06-1.85-.08-2.46A5.23,5.23,0,0,1,297,215.58Z" style="fill:#263238"></path><path d="M288.8,287.75h22.29v16.37a10.7,10.7,0,0,1-10.7,10.7h0a10.71,10.71,0,0,1-10.69-10.13Z" style="fill:#263238"></path><path d="M311.19,295.55s-.28-.16-.82-.34a4.69,4.69,0,0,0-2.34-.09,18.8,18.8,0,0,0-3.37,1.18,9.16,9.16,0,0,1-2.12.58,7,7,0,0,1-2.36-.12,38.76,38.76,0,0,1-4.25-1.37,9.06,9.06,0,0,0-3.48-.5,4.59,4.59,0,0,0-2.22.71c-.47.32-.67.57-.71.54a1.79,1.79,0,0,1,.58-.7,4.58,4.58,0,0,1,2.32-.92,9,9,0,0,1,3.66.41c1.32.4,2.7,1,4.2,1.32a6.87,6.87,0,0,0,2.2.13,9.59,9.59,0,0,0,2-.53,16.16,16.16,0,0,1,3.48-1.09,4.59,4.59,0,0,1,2.48.26C311,295.27,311.21,295.53,311.19,295.55Z" style="fill:#455a64"></path><path d="M311.19,297.46s-.28-.16-.82-.34A4.71,4.71,0,0,0,308,297a18,18,0,0,0-3.37,1.18,9.68,9.68,0,0,1-2.12.58,7.24,7.24,0,0,1-2.36-.12,41,41,0,0,1-4.25-1.38,9.06,9.06,0,0,0-3.48-.5,4.58,4.58,0,0,0-2.22.72c-.47.31-.67.56-.71.53a1.79,1.79,0,0,1,.58-.7,4.49,4.49,0,0,1,2.32-.91,8.66,8.66,0,0,1,3.66.41c1.32.39,2.7,1,4.2,1.32a6.86,6.86,0,0,0,2.2.12,8.72,8.72,0,0,0,2-.52,16.81,16.81,0,0,1,3.48-1.1,4.59,4.59,0,0,1,2.48.26A1.64,1.64,0,0,1,311.19,297.46Z" style="fill:#455a64"></path><path d="M292.78,298.55c0,.07-.17.16-.23.42s.05.57.42.51.39-.38.24-.62-.35-.25-.36-.32.28-.22.63.07a.84.84,0,0,1,.27.72.82.82,0,0,1-.7.67.83.83,0,0,1-.88-.42.81.81,0,0,1,.05-.77C292.46,298.43,292.8,298.48,292.78,298.55Z" style="fill:#455a64"></path><path d="M300.85,294.3c-.07,0,.1-.34.55-.27a.66.66,0,0,1,.52.57.76.76,0,0,1-1.39.51.7.7,0,0,1,0-.76c.24-.37.55-.32.55-.25s-.16.17-.22.4a.36.36,0,0,0,.08.32.35.35,0,0,0,.34.1.31.31,0,0,0,.19-.28.27.27,0,0,0-.15-.26C301.08,294.27,300.9,294.35,300.85,294.3Z" style="fill:#455a64"></path><path d="M308.66,298.42c0-.06.3-.19.65.14a.77.77,0,0,1,.19.8.83.83,0,0,1-1.62-.07.72.72,0,0,1,.33-.77c.43-.25.72,0,.66.05s-.25,0-.44.24a.34.34,0,0,0-.08.36.41.41,0,0,0,.33.27.42.42,0,0,0,.37-.25.44.44,0,0,0,0-.4C308.88,298.55,308.65,298.5,308.66,298.42Z" style="fill:#455a64"></path></g></svg>