<svg xmlns="http://www.w3.org/2000/svg" viewBox="0 0 500 500"><g id="freepik--background-complete--inject-55"><path d="M164,370.78a22.14,22.14,0,0,0-.65-8c-.85-2.53-2.8-4.87-5.42-5.41-3-.62-6.06,1.27-7.73,3.82s-2.26,5.65-2.75,8.66a306,306,0,0,0-3.75,62.9l12.23,1.72C161.28,412.55,163,393.36,164,370.78Z" style="fill:#f5f5f5"></path><path d="M156.2,357.31l-.06.2c0,.15-.12.33-.2.55-.2.52-.47,1.23-.82,2.12-.17.46-.39,1-.58,1.53l-.59,1.85c-.21.67-.44,1.37-.69,2.13l-.63,2.42a106.43,106.43,0,0,0-2.36,12.11c-.66,4.6-1.1,9.7-1.44,15-.62,10.72-.72,20.46-1,27.49-.13,3.52-.25,6.37-.38,8.33-.07,1-.12,1.71-.16,2.27,0,.23,0,.42,0,.58s0,.2,0,.2a.63.63,0,0,1,0-.2c0-.16,0-.35,0-.59,0-.55,0-1.31.07-2.26.08-2,.15-4.82.24-8.34.2-7,.25-16.76.88-27.5.34-5.37.78-10.47,1.47-15.09A103.12,103.12,0,0,1,152.33,368c.24-.85.46-1.66.67-2.42s.49-1.46.72-2.13.43-1.28.63-1.85.43-1.06.62-1.52l.89-2.08c.1-.22.18-.39.24-.54A.76.76,0,0,1,156.2,357.31Z" style="fill:#e0e0e0"></path><path d="M157.33,357.32a8.83,8.83,0,0,1,1.5,2.53,18.73,18.73,0,0,1,1.11,7.92c-.32,6.76-.93,16.07-1.73,26.36s-1.71,19.59-2.43,26.31c-.36,3.36-.68,6.08-.91,8-.11.9-.21,1.62-.27,2.15,0,.23-.06.41-.09.56s0,.2,0,.19,0-.06,0-.19l0-.56c.05-.54.11-1.26.19-2.17.19-1.92.45-4.64.77-8,.64-6.73,1.49-16,2.3-26.31s1.46-19.6,1.86-26.34a19.12,19.12,0,0,0-1-7.85A16.42,16.42,0,0,0,157.33,357.32Z" style="fill:#e0e0e0"></path><path d="M165.81,389a13.14,13.14,0,0,1-4.49-1.61,13.14,13.14,0,0,1,4.49,1.61Z" style="fill:#e0e0e0"></path><path d="M167.29,376.52a7.32,7.32,0,0,1-2.21,1.22,7.4,7.4,0,0,1-2.38.83,14.68,14.68,0,0,1,4.59-2.05Z" style="fill:#e0e0e0"></path><path d="M166.52,366.34a7.7,7.7,0,0,1-3.61-.25,7.7,7.7,0,0,1,3.61.25Z" style="fill:#e0e0e0"></path><path d="M153.9,359.82c-.11.06-.64-.6-1.2-1.49a4.35,4.35,0,0,1-.83-1.73c.11-.06.64.61,1.2,1.5A4.28,4.28,0,0,1,153.9,359.82Z" style="fill:#e0e0e0"></path><path d="M149.72,366a3.62,3.62,0,0,1-1.73.18,3.68,3.68,0,0,1-1.73-.25,3.65,3.65,0,0,1,1.74-.18C149,365.74,149.73,365.85,149.72,366Z" style="fill:#e0e0e0"></path><path d="M146.73,378.29a4.36,4.36,0,0,1-1.83-.51c-1-.38-1.71-.79-1.66-.9a4.23,4.23,0,0,1,1.82.5C146,377.77,146.77,378.17,146.73,378.29Z" style="fill:#e0e0e0"></path><path d="M146.41,388.64c0,.12-.67.37-1.56.55s-1.62.24-1.64.12.67-.36,1.55-.55S146.38,388.52,146.41,388.64Z" style="fill:#e0e0e0"></path><path d="M145,405.58c0,.12-.72.35-1.65.52s-1.71.21-1.73.09.72-.35,1.65-.52A3.53,3.53,0,0,1,145,405.58Z" style="fill:#e0e0e0"></path><path d="M144.06,414.93c.06.11-.56.54-1.37,1s-1.53.69-1.59.59.56-.55,1.38-1S144,414.82,144.06,414.93Z" style="fill:#e0e0e0"></path><path d="M151.7,425.54c-.11.06-.64-.68-1.2-1.65a4.82,4.82,0,0,1-.82-1.88c.1-.06.64.68,1.2,1.66A4.93,4.93,0,0,1,151.7,425.54Z" style="fill:#e0e0e0"></path><path d="M153.9,407.91c.09.08-.51.81-1.34,1.61s-1.56,1.4-1.64,1.31.51-.81,1.34-1.62S153.82,407.82,153.9,407.91Z" style="fill:#e0e0e0"></path><path d="M153.41,398.65c-.08.09-.64-.37-1.24-1s-1-1.24-.92-1.32.65.37,1.24,1S153.5,398.57,153.41,398.65Z" style="fill:#e0e0e0"></path><path d="M154.93,386.83c.09.08-.41.78-1.12,1.57s-1.35,1.36-1.44,1.28.41-.78,1.12-1.57S154.84,386.75,154.93,386.83Z" style="fill:#e0e0e0"></path><path d="M155.78,378.25c-.08.08-.78-.46-1.55-1.22s-1.34-1.45-1.25-1.54.78.46,1.55,1.22S155.87,378.16,155.78,378.25Z" style="fill:#e0e0e0"></path><path d="M157.46,366.65a4.45,4.45,0,0,1-.78,1.74c-.54.89-1.06,1.57-1.16,1.51s.24-.84.78-1.74S157.35,366.59,157.46,366.65Z" style="fill:#e0e0e0"></path><path d="M160.61,355.9a4.34,4.34,0,0,1-.69,1.74c-.49.9-1,1.59-1.08,1.53s.2-.84.69-1.74S160.5,355.84,160.61,355.9Z" style="fill:#e0e0e0"></path><path d="M164.18,360.78c.06.11-.43.45-1.09.77s-1.23.48-1.28.37.44-.45,1.09-.77S164.13,360.67,164.18,360.78Z" style="fill:#e0e0e0"></path><path d="M164.27,399.39a7.48,7.48,0,0,1-4.47-1.91,12.44,12.44,0,0,1,2.25.93A11.16,11.16,0,0,1,164.27,399.39Z" style="fill:#e0e0e0"></path><path d="M162.81,407.56c0,.12-.72.36-1.65.54a3.55,3.55,0,0,1-1.73.11,3.75,3.75,0,0,1,1.65-.54A3.69,3.69,0,0,1,162.81,407.56Z" style="fill:#e0e0e0"></path><path d="M161,421.58a4.8,4.8,0,0,1-1.86-1.63,4.87,4.87,0,0,1-1.17-2.19,13.86,13.86,0,0,1,1.51,1.92A14.13,14.13,0,0,1,161,421.58Z" style="fill:#e0e0e0"></path><path d="M141.34,428c-.07-.1.42-.65,1.11-1.24s1.32-1,1.4-.91-.42.65-1.11,1.24S141.42,428.09,141.34,428Z" style="fill:#e0e0e0"></path><path d="M135.69,397.4c-.8-2.49-2.29-5.39-4.9-5.43a4.34,4.34,0,0,0-3.67,2.46,9,9,0,0,0-1,4.5,117,117,0,0,0,5.61,32.59h9.55A113.36,113.36,0,0,0,135.69,397.4Z" style="fill:#f5f5f5"></path><path d="M118.41,381.74a10.61,10.61,0,0,0-9.94-8.49c-4.23.74-5.86,4.9-6.36,9.15s.82,8.5,2.12,12.58q6.28,19.66,12.58,39.33L128.69,433C124.93,415.45,122.77,399.17,118.41,381.74Z" style="fill:#f5f5f5"></path><path d="M130.79,392a10.09,10.09,0,0,0-.81,1.35,9.06,9.06,0,0,0-.45,4.23c.19,1.81.4,4,.7,6.4s.74,5,1.28,7.77c1.08,5.49,2.3,10.41,3.07,14,.39,1.8.69,3.25.87,4.26.08.47.15.85.2,1.17s.06.41,0,.41a1.49,1.49,0,0,1-.12-.39l-.28-1.15c-.26-1.07-.6-2.49-1-4.23-.85-3.57-2.12-8.48-3.2-14-.54-2.75-1-5.39-1.25-7.8-.15-1.21-.25-2.36-.35-3.44s-.21-2.07-.26-3a8.8,8.8,0,0,1,.6-4.32A3.9,3.9,0,0,1,130.79,392Z" style="fill:#e0e0e0"></path><path d="M108.64,372.91a16.52,16.52,0,0,0-1.44,1.93,13.61,13.61,0,0,0-1.81,6.22,29,29,0,0,0,1.47,9.57c1,3.53,2.19,7.42,3.4,11.49L116.34,423c.75,2.65,1.36,4.8,1.79,6.35.2.72.35,1.3.47,1.73a5.55,5.55,0,0,1,.14.61,2.48,2.48,0,0,1-.22-.58l-.55-1.71c-.47-1.54-1.12-3.68-1.93-6.31-1.6-5.39-3.79-12.74-6.2-20.88-1.19-4.08-2.33-8-3.36-11.5a28.28,28.28,0,0,1-1.39-9.7,13.34,13.34,0,0,1,2-6.29A7.31,7.31,0,0,1,108.64,372.91Z" style="fill:#e0e0e0"></path><path d="M126.1,431.75a3.75,3.75,0,0,1-.27-.57c-.15-.38-.41-.94-.68-1.67-.56-1.47-1.29-3.62-2-6.32s-1.5-5.95-2.21-9.58-1.45-7.63-2.24-11.82-1.75-8.15-2.82-11.68a65.29,65.29,0,0,0-3.46-9.16,49,49,0,0,0-3.21-5.77c-.4-.67-.78-1.15-1-1.49a3.69,3.69,0,0,1-.33-.54,3.69,3.69,0,0,1,.4.48c.25.34.64.8,1.07,1.46a42.72,42.72,0,0,1,3.35,5.73,62.66,62.66,0,0,1,3.57,9.17,119.69,119.69,0,0,1,2.86,11.71c.78,4.2,1.52,8.19,2.2,11.83s1.4,6.88,2.12,9.58,1.39,4.86,1.9,6.34c.25.74.47,1.3.6,1.69A3.48,3.48,0,0,1,126.1,431.75Z" style="fill:#e0e0e0"></path><path d="M104.44,393c0,.12-.61.38-1.44.58s-1.52.26-1.55.15.62-.38,1.45-.58S104.42,392.9,104.44,393Z" style="fill:#e0e0e0"></path><path d="M103.18,384.91a6,6,0,0,1-2,.22,5.91,5.91,0,0,1-2-.06,6.85,6.85,0,0,1,4-.16Z" style="fill:#e0e0e0"></path><path d="M104.52,377.5c-.07.09-.72-.33-1.44-.94s-1.24-1.17-1.16-1.27.73.33,1.44.94S104.6,377.41,104.52,377.5Z" style="fill:#e0e0e0"></path><path d="M108.15,370.64c.12,0,.09.61.07,1.31s0,1.27-.15,1.29-.31-.56-.29-1.31S108,370.61,108.15,370.64Z" style="fill:#e0e0e0"></path><path d="M115.56,373.87c.1.07-.19.66-.65,1.31s-.91,1.13-1,1.06.19-.66.65-1.31S115.46,373.8,115.56,373.87Z" style="fill:#e0e0e0"></path><path d="M120.37,382.23c0,.11-.57.46-1.38.79s-1.49.51-1.54.39.57-.46,1.38-.79S120.32,382.11,120.37,382.23Z" style="fill:#e0e0e0"></path><path d="M123.28,390.82a5.48,5.48,0,0,1-3.94.89,8.05,8.05,0,0,1,2-.49A7.63,7.63,0,0,1,123.28,390.82Z" style="fill:#e0e0e0"></path><path d="M109.89,388.38c-.11,0,0-.63.19-1.33s.49-1.23.6-1.19,0,.63-.19,1.32S110,388.41,109.89,388.38Z" style="fill:#e0e0e0"></path><path d="M111.76,399.17a4.12,4.12,0,0,1,.54-1.79c.4-.94.82-1.66.94-1.61a4.12,4.12,0,0,1-.54,1.79C112.29,398.49,111.87,399.22,111.76,399.17Z" style="fill:#e0e0e0"></path><path d="M107.14,402.12a4.4,4.4,0,0,1-1.71-.37c-.91-.29-1.64-.55-1.62-.67s.82,0,1.75.25S107.19,402,107.14,402.12Z" style="fill:#e0e0e0"></path><path d="M109.81,410.92c.07.1-.44.58-1.14,1.08s-1.32.82-1.39.72.44-.58,1.13-1.08S109.73,410.82,109.81,410.92Z" style="fill:#e0e0e0"></path><path d="M111.94,419.69c0,.12-.6.37-1.41.57s-1.48.25-1.51.14.6-.37,1.41-.57S111.91,419.57,111.94,419.69Z" style="fill:#e0e0e0"></path><path d="M123.52,398.15c.06.1-.48.53-1.26.82s-1.48.33-1.5.21.6-.34,1.34-.62S123.46,398,123.52,398.15Z" style="fill:#e0e0e0"></path><path d="M125.17,411.79c0,.11-.69-.08-1.43-.43s-1.3-.72-1.25-.83.7.08,1.44.43S125.22,411.68,125.17,411.79Z" style="fill:#e0e0e0"></path><path d="M128.09,421.55a4.36,4.36,0,0,1-1.89-.5c-1-.39-1.78-.8-1.73-.92a4.65,4.65,0,0,1,1.89.51C127.36,421,128.14,421.44,128.09,421.55Z" style="fill:#e0e0e0"></path><path d="M112.41,429.2c-.06-.11.72-.63,1.62-1.34s1.59-1.34,1.69-1.26-.49.87-1.42,1.6A3.85,3.85,0,0,1,112.41,429.2Z" style="fill:#e0e0e0"></path><path d="M120.13,424.24c-.13,0-.29-.64-.59-1.4s-.61-1.37-.51-1.44.6.45.91,1.28S120.24,424.23,120.13,424.24Z" style="fill:#e0e0e0"></path><path d="M118.08,412.5c-.07.09-.57-.14-1.11-.53s-.93-.79-.86-.89.57.14,1.11.53S118.15,412.4,118.08,412.5Z" style="fill:#e0e0e0"></path><path d="M136.08,394.09c.07.1-.42.58-1.09,1.08s-1.27.81-1.34.72.41-.58,1.08-1.08S136,394,136.08,394.09Z" style="fill:#e0e0e0"></path><path d="M138.79,401.51c0,.12-.75.28-1.69.17s-1.65-.42-1.62-.53.77,0,1.67.1S138.78,401.39,138.79,401.51Z" style="fill:#e0e0e0"></path><path d="M127.13,403.17c0,.12-.68.37-1.59.43a2.7,2.7,0,0,1-1.63-.21c0-.13.73-.17,1.6-.23S127.1,403.05,127.13,403.17Z" style="fill:#e0e0e0"></path><path d="M128.13,396.16c0,.12-.72.14-1.5-.22s-1.23-.91-1.14-1,.61.27,1.33.59S128.15,396,128.13,396.16Z" style="fill:#e0e0e0"></path><path d="M139.79,409.47c-.07.1-.79-.24-1.63-.77s-1.46-1-1.39-1.13.79.24,1.62.76S139.85,409.37,139.79,409.47Z" style="fill:#e0e0e0"></path><rect x="106.04" y="430.28" width="62.2" height="11.02" style="fill:#ebebeb"></rect><polygon points="110.68 439.11 118.25 472.06 155.32 472.06 163.59 439.11 110.68 439.11" style="fill:#ebebeb"></polygon><path d="M168.2,441.31c0,.12-14,.22-31.33.22s-31.34-.1-31.34-.22,14-.22,31.34-.22S168.2,441.19,168.2,441.31Z" style="fill:#e0e0e0"></path><path d="M133.61,403.41c-.1.07-.53-.43-1-1.1S132,401,132.08,401s.53.43.95,1.1S133.71,403.35,133.61,403.41Z" style="fill:#e0e0e0"></path><path d="M133.63,412.28a3.46,3.46,0,0,1,.33-1.67c.29-.89.62-1.58.74-1.54a3.5,3.5,0,0,1-.33,1.68C134.08,411.63,133.75,412.32,133.63,412.28Z" style="fill:#e0e0e0"></path><path d="M136.67,421.59c-.11.06-.57-.69-1-1.66a4.55,4.55,0,0,1-.64-1.85c.11-.05.57.69,1,1.66A4.55,4.55,0,0,1,136.67,421.59Z" style="fill:#e0e0e0"></path><path d="M130.1,429.08c-.09-.07.28-.65.83-1.28s1.07-1.09,1.16-1-.28.66-.83,1.29S130.19,429.16,130.1,429.08Z" style="fill:#e0e0e0"></path><path d="M128.72,415.48c0,.12-.62.12-1.34,0s-1.28-.33-1.26-.45.62-.11,1.34,0S128.74,415.36,128.72,415.48Z" style="fill:#e0e0e0"></path><polygon points="329.33 445.78 329.33 472.72 368.72 472.72 412.17 472.72 412.17 445.78 329.33 445.78" style="fill:#f5f5f5"></polygon><polygon points="325.85 438.25 325.85 445.78 415.06 445.78 415.06 438.25 368.72 438.25 325.85 438.25" style="fill:#e0e0e0"></polygon><polygon points="370.46 472.72 412.17 472.72 412.17 445.78 415.06 445.78 415.06 438.25 368.72 438.25 368.72 445.09 370.46 472.72" style="fill:#e0e0e0"></polygon><rect x="340.91" y="450.13" width="16.8" height="4.05" style="fill:#e0e0e0"></rect><rect x="338.75" y="459.25" width="21.57" height="8.56" style="fill:#fff"></rect><polygon points="342.07 411.35 342.07 438.29 381.47 438.29 424.91 438.29 424.91 411.35 342.07 411.35" style="fill:#f5f5f5"></polygon><polygon points="338.6 403.82 338.6 411.35 427.81 411.35 427.81 403.82 381.47 403.82 338.6 403.82" style="fill:#e0e0e0"></polygon><polygon points="383.2 438.29 424.91 438.29 424.91 411.35 427.81 411.35 427.81 403.82 381.47 403.82 381.47 410.65 383.2 438.29" style="fill:#e0e0e0"></polygon><rect x="353.66" y="415.7" width="16.8" height="4.05" style="fill:#e0e0e0"></rect><rect x="351.5" y="424.82" width="21.57" height="8.56" style="fill:#fff"></rect><circle cx="263.53" cy="59.09" r="43.95" style="fill:#f5f5f5"></circle><circle cx="414.39" cy="145.29" r="43.95" style="fill:#f5f5f5"></circle><circle cx="407.52" cy="282.8" r="43.95" transform="translate(-80.61 370.99) rotate(-45)" style="fill:#f5f5f5"></circle><circle cx="105.31" cy="296.78" r="45.67" style="fill:#f5f5f5"></circle><path d="M355.4,191l-2.8-.73-3.89-10.11,1.46-5.59s-4.26-1.39-5.66,6.06-1.46,5.45-1.46,5.45-9.21-2.36-10.18-1.76c-.7.43-3.33,9.5-4.72,14.43a5.55,5.55,0,0,0,2.39,6.39,4.4,4.4,0,0,0,1,.39c2.29.59,14.49,1.78,14.49,1.78l4.84,1.26Z" style="fill:#ebebeb"></path><polygon points="363.82 191.53 357.11 210.23 352.31 208.98 357.2 190.21 363.82 191.53" style="fill:#ebebeb"></polygon><path d="M200,279.72a9.5,9.5,0,0,0-3.71-4.34A9.11,9.11,0,0,0,191,273.8a7.37,7.37,0,0,0-6.84,5.8,7.37,7.37,0,0,0-8.61-1.29,9.12,9.12,0,0,0-3.83,4.08,9.58,9.58,0,0,0-1,5.63,11.57,11.57,0,0,0,3.27,6.5,16.39,16.39,0,0,0,6.84,3.62c4.14,1.17,9.56,2.58,9.56,2.58s3.15-4,6.13-7.15a16.52,16.52,0,0,0,4.06-6.59A11.59,11.59,0,0,0,200,279.72Z" style="fill:#ebebeb"></path><path d="M342.11,352.16A10,10,0,0,0,348,343c0-5.49-4.14-10-9.29-10s-9.34,4.41-9.36,9.9a9.93,9.93,0,0,0,5.94,9.29c-14.35,2.16-13.7,17.76-13.7,17.76l33.94.16S356.34,354.31,342.11,352.16Z" style="fill:#ebebeb"></path></g><g id="freepik--Floor--inject-55"><path d="M438.58,472c0,.15-87.13.26-194.57.26S49.42,472.18,49.42,472s87.11-.26,194.59-.26S438.58,471.89,438.58,472Z" style="fill:#263238"></path></g><g id="freepik--Travel--inject-55"><path d="M362.82,266.9c5.21-6.08,18.74-2.26,28,2.71,0,0,6.38,3,8.76,4.57l.07,0,21.69-2.71a8.84,8.84,0,0,1,5.13.9l1.78.91a1.19,1.19,0,0,1-.07,2.15l-16,6.82v.2c8.48,5.58,15.76,10.35,15.76,10.35a1.88,1.88,0,0,0,.23.16,14,14,0,0,0,10,2l8.44-1.51a2.42,2.42,0,0,1,1.28.11,2.13,2.13,0,0,1,.56,3.61l-9.77,8.18a5.19,5.19,0,0,1-5.48.73L428.7,304l-23.17-11,2.66,13.19a.87.87,0,0,1-.88,1l-1.09,0a4.33,4.33,0,0,1-3.6-2.18l-9.34-17.83L366,274.1C362.3,272.42,361,269.3,362.82,266.9Z" style="fill:#90CAF9"></path><path d="M362.82,266.9s-.13.19-.34.59a3.59,3.59,0,0,0-.41,1.94,4.62,4.62,0,0,0,1.41,2.87,11.45,11.45,0,0,0,3.8,2.32L393.36,287l.05,0,0,.06,8.78,16.69.59,1.13a4.39,4.39,0,0,0,.77.95,4,4,0,0,0,2.21,1.05c.4.06.85,0,1.29.08a1,1,0,0,0,.55-.06.67.67,0,0,0,.31-.37.83.83,0,0,0,0-.54l-.14-.66-.27-1.33-2.22-11-.1-.47.44.2,22.29,10.6c1.92.9,3.91,1.83,5.86,2.69a5,5,0,0,0,4.47-.61c.41-.29.84-.68,1.26-1l5.12-4.28,2.59-2.17c.42-.36.9-.73,1.27-1.08a1.84,1.84,0,0,0,.54-1.35,1.87,1.87,0,0,0-1.4-1.76,2.76,2.76,0,0,0-1.24,0l-1.35.24-5.34,1c-.88.15-1.77.34-2.68.42a13.73,13.73,0,0,1-2.72,0,14.07,14.07,0,0,1-5.13-1.54,23,23,0,0,1-2.25-1.39L424.75,291l-4.29-2.82-8.38-5.51-.12-.09v-.34l0-.15.13-.05,12.55-5.36,3-1.28a2.69,2.69,0,0,0,.66-.34,1,1,0,0,0-.28-1.62,26,26,0,0,0-2.84-1.34,8.5,8.5,0,0,0-3-.46c-8.14.91-15.73,1.91-22.55,2.73h-.07l-.07,0h0l0,0c-2.59-1.6-5.25-2.86-7.72-4.09-1.26-.57-2.43-1.26-3.61-1.79s-2.33-1.06-3.46-1.51a48.47,48.47,0,0,0-6.45-2.09,30.45,30.45,0,0,0-5.61-.91,19.19,19.19,0,0,0-4.53.19c-.63.18-1.24.29-1.75.48a14.4,14.4,0,0,0-1.38.61l-1,.64c-.27.21-.47.42-.64.57l-.53.47s.16-.18.49-.51c.17-.16.36-.38.63-.6l1-.66a14.07,14.07,0,0,1,1.38-.64,18.2,18.2,0,0,1,1.77-.51,19.25,19.25,0,0,1,4.57-.25,30.64,30.64,0,0,1,5.66.87,47.37,47.37,0,0,1,6.5,2.07c1.13.44,2.3.93,3.48,1.49s2.36,1.21,3.62,1.78c2.49,1.22,5.14,2.46,7.78,4.08l-.06,0,.08,0h-.07c6.84-.84,14.36-1.86,22.59-2.81a9.17,9.17,0,0,1,3.15.48,24.8,24.8,0,0,1,2.9,1.37,1.47,1.47,0,0,1,.68.61,1.52,1.52,0,0,1,.16.93,1.45,1.45,0,0,1-.87,1.08l-.37.16-3,1.3-12.54,5.37.15-.21,0,.2-.11-.23,8.39,5.5,4.29,2.83,2.18,1.42a24.29,24.29,0,0,0,2.2,1.37,14,14,0,0,0,4.95,1.48,13.49,13.49,0,0,0,2.62,0c.87-.07,1.75-.26,2.64-.41l5.34-1,1.35-.24a3.24,3.24,0,0,1,1.46,0,2.4,2.4,0,0,1,1.11,4c-.46.41-.88.74-1.31,1.11L445,300.5l-5.13,4.28c-.43.35-.82.71-1.3,1.06a5.56,5.56,0,0,1-1.55.75,5.42,5.42,0,0,1-3.38-.09c-2-.89-4-1.8-5.91-2.71l-22.28-10.62.34-.27q1.13,5.64,2.2,11l.27,1.33.13.66a1.29,1.29,0,0,1,0,.78,1.07,1.07,0,0,1-.54.62,1.32,1.32,0,0,1-.76.1c-.45,0-.88,0-1.35-.07a4.63,4.63,0,0,1-3.29-2.24l-.59-1.14-8.72-16.72.08.08-26-12.47a11.86,11.86,0,0,1-3.83-2.4,4.67,4.67,0,0,1-1.39-3,3.56,3.56,0,0,1,.46-2A3.32,3.32,0,0,1,362.82,266.9Z" style="fill:#263238"></path><path d="M396.66,275.7c-6.45-3.31-17.37-8.6-24-11.61" style="fill:#90CAF9"></path><path d="M372.69,264.09a4.28,4.28,0,0,1,1,.36l2.6,1.17c2.19,1,5.2,2.44,8.51,4s6.29,3.08,8.44,4.17c1.08.55,1.94,1,2.53,1.32a3.77,3.77,0,0,1,.9.55,4.09,4.09,0,0,1-1-.37c-.62-.26-1.51-.66-2.6-1.17-2.19-1-5.2-2.43-8.51-4s-6.29-3.08-8.43-4.17c-1.08-.55-1.94-1-2.54-1.32A5.06,5.06,0,0,1,372.69,264.09Z" style="fill:#fff"></path><path d="M419.45,322.37c.34-2.47-3.14-4.5-5.75-4.71a14.82,14.82,0,0,1-3.72-.32c-2.56-.89-3.59-4.2-6.08-5.25-1.87-.79-4-.09-5.83.83s-3.6,2.05-5.62,2.18c-1.76.11-3.67-.54-5.2.32-1.15.64-1.75,2-2.81,2.74a6.7,6.7,0,0,1-3.66,1,10.41,10.41,0,0,0-3.78.61,3,3,0,0,0-1.89,3Z" style="fill:#fff"></path><path d="M419.45,322.37l-.21,0-.64,0-2.52.07-9.38.17-31.59.41h-.22l0-.22a2.72,2.72,0,0,1,.6-2.17,3.91,3.91,0,0,1,1.88-1.32c1.7-.57,3.41-.33,5-.62a4.54,4.54,0,0,0,2.1-.88,14.83,14.83,0,0,0,1.6-1.73,3.86,3.86,0,0,1,2.09-1.29,8,8,0,0,1,2.38-.06,11.75,11.75,0,0,0,2.21.05,7.37,7.37,0,0,0,2.06-.54c1.33-.53,2.54-1.28,3.81-1.86a8.39,8.39,0,0,1,4-.88,4.68,4.68,0,0,1,1.89.57,6.66,6.66,0,0,1,1.47,1.19c.85.89,1.51,1.84,2.27,2.6a4.6,4.6,0,0,0,2.6,1.46c1,.15,1.89.07,2.78.14a8.27,8.27,0,0,1,4.2,1.59,4.21,4.21,0,0,1,1.68,2.27,2,2,0,0,1,0,1,3.78,3.78,0,0,0-.12-1,4.24,4.24,0,0,0-1.7-2.14,8.17,8.17,0,0,0-4.1-1.46,28,28,0,0,1-2.81-.11,5,5,0,0,1-2.81-1.51c-.8-.79-1.47-1.74-2.3-2.59A4.65,4.65,0,0,0,402.5,312a8,8,0,0,0-3.76.87c-1.23.57-2.44,1.33-3.82,1.89a8,8,0,0,1-2.19.58,11.76,11.76,0,0,1-2.3-.05,7.91,7.91,0,0,0-2.23.06,3.34,3.34,0,0,0-1.82,1.15,15.9,15.9,0,0,1-1.65,1.78,5.17,5.17,0,0,1-2.34,1c-1.66.3-3.36.07-4.88.6a2.85,2.85,0,0,0-2.15,2.91l-.26-.21,31.42-.21h12.69Z" style="fill:#263238"></path><path d="M451.46,265.53c.26-1.89-2.41-3.45-4.42-3.61a11.33,11.33,0,0,1-2.86-.25c-2-.68-2.75-3.22-4.66-4-1.44-.6-3.09-.06-4.48.64a11.48,11.48,0,0,1-4.31,1.67c-1.35.09-2.82-.41-4,.25-.88.49-1.34,1.51-2.15,2.1a5.18,5.18,0,0,1-2.82.77,7.88,7.88,0,0,0-2.9.47,2.3,2.3,0,0,0-1.45,2.33Z" style="fill:#fff"></path><path d="M451.46,265.53a3,3,0,0,1-.65.05l-1.93.05-7.19.15-24.28.35h-.21l-.05-.21a2.14,2.14,0,0,1,.48-1.72,3.07,3.07,0,0,1,1.47-1,23.46,23.46,0,0,1,3.82-.48,3.59,3.59,0,0,0,1.59-.66,13.05,13.05,0,0,0,1.22-1.32,3,3,0,0,1,1.64-1,6.35,6.35,0,0,1,1.84,0,9.63,9.63,0,0,0,1.69,0,5.78,5.78,0,0,0,1.57-.41c1-.4,1.94-1,2.92-1.42a6.44,6.44,0,0,1,3.08-.68,4,4,0,0,1,2.62,1.37c.65.68,1.15,1.41,1.74,2a3.52,3.52,0,0,0,2,1.11c.72.11,1.44.06,2.13.11a6.44,6.44,0,0,1,3.24,1.23,3.3,3.3,0,0,1,1.29,1.77,1.58,1.58,0,0,1,0,.76,5.26,5.26,0,0,0-.1-.74,3.3,3.3,0,0,0-1.31-1.62,6.25,6.25,0,0,0-3.14-1.11,20.88,20.88,0,0,1-2.17-.08,3.86,3.86,0,0,1-2.17-1.17c-.62-.61-1.14-1.34-1.77-2a3.54,3.54,0,0,0-2.36-1.22,6,6,0,0,0-2.86.66c-.94.44-1.87,1-2.93,1.46a6.36,6.36,0,0,1-1.7.45,8.8,8.8,0,0,1-1.78,0,5.94,5.94,0,0,0-1.69.05,2.46,2.46,0,0,0-1.37.86,11.57,11.57,0,0,1-1.28,1.38,4,4,0,0,1-1.82.77,25.84,25.84,0,0,0-3.74.46,2.13,2.13,0,0,0-1.61,2.16l-.25-.21,24.1-.13h7.26l2,0Z" style="fill:#263238"></path></g><g id="freepik--Money--inject-55"><path d="M417.84,135.31A23.13,23.13,0,1,1,388.41,121,23.13,23.13,0,0,1,417.84,135.31Z" style="fill:#90CAF9"></path><g style="opacity:0.1"><path d="M388.41,121a23.12,23.12,0,0,0-14.28,29.42s15.59-4.63,17.14-12.09S388.41,121,388.41,121Z" style="fill:#fff"></path></g><path d="M412.13,136.9A17.58,17.58,0,1,1,389.76,126,17.57,17.57,0,0,1,412.13,136.9Z" style="fill:#90CAF9"></path><g style="opacity:0.2"><path d="M412.13,136.9A17.58,17.58,0,1,1,389.76,126,17.57,17.57,0,0,1,412.13,136.9Z"></path></g><path d="M412.84,137.43a17.34,17.34,0,1,1-22.07-10.72A17.33,17.33,0,0,1,412.84,137.43Z" style="fill:#90CAF9"></path><g style="opacity:0.2"><path d="M412.84,137.43a17.34,17.34,0,1,1-22.07-10.72A17.33,17.33,0,0,1,412.84,137.43Z" style="fill:#fff"></path></g><path d="M396.61,141.45l-1.45-4.19h0a9.59,9.59,0,0,1,2.43-.19,7.69,7.69,0,0,1,1.27.3v-.15l.12-1.73,0-.4-1-.53-.3.29a8.4,8.4,0,0,0-3.34.17l-.8-2.3-.92-.33.2.58-1,.34.81,2.35c-3.13,1.43-4,3.81-3.3,5.93,1,2.89,3.73,2.78,6.23,2.54l1.44,4.16a8.44,8.44,0,0,1-4.7-.14l-.21,2.42a9.65,9.65,0,0,0,5.69,0l.6,1.74-.8.3,1,.27,1.7-.59-.8-2.33c3.14-1.46,4.07-3.83,3.34-5.95C401.88,141.07,399.11,141.22,396.61,141.45Zm-1.86.16c-1.32.06-2.38-.08-2.72-1.08s.05-1.88,1.44-2.62Zm.41-4.35Zm3.59,10.39L397.48,144c1.37-.08,2.45.08,2.8,1.1S400.19,146.89,398.75,147.65Z" style="fill:#90CAF9"></path><g style="opacity:0.30000000000000004"><path d="M396.61,141.45l-1.45-4.19h0a9.59,9.59,0,0,1,2.43-.19,7.69,7.69,0,0,1,1.27.3v-.15l.12-1.73,0-.4-1-.53-.3.29a8.4,8.4,0,0,0-3.34.17l-.8-2.3-.92-.33.2.58-1,.34.81,2.35c-3.13,1.43-4,3.81-3.3,5.93,1,2.89,3.73,2.78,6.23,2.54l1.44,4.16a8.44,8.44,0,0,1-4.7-.14l-.21,2.42a9.65,9.65,0,0,0,5.69,0l.6,1.74-.8.3,1,.27,1.7-.59-.8-2.33c3.14-1.46,4.07-3.83,3.34-5.95C401.88,141.07,399.11,141.22,396.61,141.45Zm-1.86.16c-1.32.06-2.38-.08-2.72-1.08s.05-1.88,1.44-2.62Zm.41-4.35Zm3.59,10.39L397.48,144c1.37-.08,2.45.08,2.8,1.1S400.19,146.89,398.75,147.65Z"></path></g><path d="M398.64,149.59l.8,2.32-1.7.59-.8-2.3a9.65,9.65,0,0,1-5.69,0l.21-2.43a8.43,8.43,0,0,0,4.7.14l-1.44-4.15c-2.5.23-5.23.34-6.23-2.55-.73-2.12.16-4.5,3.3-5.93L391,133l1.71-.59.8,2.31a9.38,9.38,0,0,1,4.65-.2l-.12,2.4a9,9,0,0,0-3.76,0l1.46,4.2c2.5-.24,5.26-.38,6.26,2.51C402.71,145.76,401.78,148.12,398.64,149.59Zm-4.79-8.31-1.28-3.7c-1.4.74-1.76,1.71-1.44,2.62S392.52,141.35,393.85,141.28Zm5.53,3.46c-.35-1-1.43-1.18-2.8-1.1l1.27,3.68C399.29,146.57,399.69,145.64,399.38,144.74Z" style="fill:#90CAF9"></path><path d="M401.88,159.76l.13-.06.38-.17.63-.26a6.09,6.09,0,0,0,.85-.39l1-.55a5.7,5.7,0,0,0,.57-.34l.59-.4c.21-.15.43-.27.63-.44l.64-.52c.21-.19.45-.36.66-.56l.65-.65a18.84,18.84,0,0,0,2.51-3.2c.18-.32.35-.65.54-1,.09-.17.18-.33.27-.51l.23-.53c.14-.36.32-.72.45-1.1s.25-.77.37-1.16l.1-.29c0-.1,0-.21.07-.31s.09-.41.13-.61l.14-.63c.05-.2.05-.42.08-.63.05-.43.12-.86.15-1.3s0-.89,0-1.33a18.65,18.65,0,0,0-.95-5.45,19.13,19.13,0,0,0-2.62-4.87c-.29-.34-.57-.69-.84-1s-.62-.62-.92-.93c-.16-.15-.29-.32-.46-.45l-.49-.4-.49-.4-.24-.2-.26-.18-1-.68c-.34-.21-.7-.39-1-.58l-.51-.28-.52-.22-1-.44a18.16,18.16,0,0,0-3.95-1l-.91-.1a8.63,8.63,0,0,0-.87,0l-.82,0c-.26,0-.52,0-.76,0l-.72.06c-.23,0-.45,0-.66.07l-1.15.21a7.54,7.54,0,0,0-.9.21l-.65.19-.41.11-.14,0,.14,0,.4-.13.65-.19a6.78,6.78,0,0,1,.9-.24l1.15-.22a4.58,4.58,0,0,1,.66-.08l.72-.06a6.36,6.36,0,0,1,.77,0h.82c.29,0,.58,0,.88,0l.91.1a19,19,0,0,1,4,1l1,.44.53.23.52.28c.34.19.7.37,1,.58l1,.69.25.17a2.43,2.43,0,0,1,.25.2l.49.4.5.41a4.89,4.89,0,0,1,.46.45c.31.31.63.61.93.94l.85,1a17.46,17.46,0,0,1,3.61,10.41q0,.69,0,1.35c0,.44-.1.88-.14,1.31,0,.22,0,.43-.09.64s-.1.42-.14.63-.09.42-.14.62,0,.21-.07.31l-.09.3c-.13.39-.26.78-.38,1.17s-.31.74-.47,1.1c-.07.18-.15.36-.23.54s-.18.34-.27.51l-.55,1a18.28,18.28,0,0,1-2.55,3.22l-.65.64c-.22.21-.46.38-.67.56l-.64.52c-.21.17-.44.29-.64.44l-.61.39a3.8,3.8,0,0,1-.57.35l-1,.53a6,6,0,0,1-.86.38l-.63.25-.4.14Z" style="fill:#263238"></path><path d="M380.92,159.58l-.16-.14-.44-.41a7,7,0,0,1-.66-.67,12,12,0,0,1-.83-.94l-.46-.57c-.16-.19-.31-.41-.47-.63-.34-.44-.64-.94-1-1.46a25.41,25.41,0,0,1-1.78-3.58,26.3,26.3,0,0,1-1.13-3.84c-.1-.61-.22-1.18-.27-1.73,0-.27-.07-.53-.09-.78s0-.5,0-.73c0-.46,0-.89,0-1.26a8.84,8.84,0,0,1,0-.94l0-.6a1.4,1.4,0,0,1,0-.21.77.77,0,0,1,0,.21c0,.16,0,.36,0,.6s0,.58,0,.94,0,.79.06,1.25c0,.23,0,.47.05.73s.07.51.1.78c.06.54.18,1.11.29,1.71a26,26,0,0,0,1.13,3.81,25.66,25.66,0,0,0,1.75,3.56c.33.52.63,1,.95,1.45l.46.64.45.57c.28.37.57.68.81.95s.46.51.64.7.31.31.41.43A.74.74,0,0,1,380.92,159.58Z" style="fill:#fff"></path><path d="M390.51,142.5a1.46,1.46,0,0,1-.65-.31,2.72,2.72,0,0,1-1-3.15,1.45,1.45,0,0,1,.36-.62s-.13.25-.25.66a2.88,2.88,0,0,0,0,1.65,2.91,2.91,0,0,0,.92,1.36C390.27,142.37,390.52,142.47,390.51,142.5Z" style="fill:#fff"></path><path d="M392,134.85s-.19-.28-.32-.65-.2-.7-.15-.71.18.27.31.65A1.76,1.76,0,0,1,392,134.85Z" style="fill:#fff"></path><path d="M391.12,125.09a3.54,3.54,0,0,1-.55.16c-.17,0-.39.1-.63.19s-.53.15-.83.27-.64.23-1,.39-.71.32-1.1.51a20.13,20.13,0,0,0-2.38,1.44,20.9,20.9,0,0,0-2.13,1.79c-.3.31-.59.59-.84.88s-.48.56-.68.81-.37.49-.53.7-.28.38-.38.54a4.07,4.07,0,0,1-.33.46,3.06,3.06,0,0,1,.28-.5,5.92,5.92,0,0,1,.35-.56c.15-.21.31-.46.51-.72s.42-.54.68-.82.53-.59.83-.9a18,18,0,0,1,2.14-1.82,19.11,19.11,0,0,1,2.41-1.44,11.78,11.78,0,0,1,1.12-.5c.35-.15.69-.27,1-.37a8.56,8.56,0,0,1,.84-.26,6.34,6.34,0,0,1,.65-.15A3.09,3.09,0,0,1,391.12,125.09Z" style="fill:#fff"></path><path d="M405.82,162.68a2.26,2.26,0,0,1-.35.24,11.15,11.15,0,0,1-1,.56,16.25,16.25,0,0,1-3.61,1.3,16.8,16.8,0,0,1-3.82.45c-.49,0-.89,0-1.16,0l-.42-.06a1.72,1.72,0,0,1,.42,0c.28,0,.67,0,1.16,0a19.34,19.34,0,0,0,3.78-.48,20,20,0,0,0,3.6-1.25c.44-.2.79-.38,1-.51A1.88,1.88,0,0,1,405.82,162.68Z" style="fill:#fff"></path><path d="M417.84,135.31l-.14-.35c-.1-.23-.21-.58-.41-1a22.7,22.7,0,0,0-3.84-6.16,22.23,22.23,0,0,0-2.58-2.54,23.34,23.34,0,0,0-7.69-4.28,23.22,23.22,0,0,0-10.59-.89,23,23,0,0,0-18.62,16,22.39,22.39,0,0,0-.79,3.47,21.76,21.76,0,0,0-.24,3.61,23.11,23.11,0,0,0,4.76,13.75c.36.49.76.95,1.16,1.41s.82.88,1.26,1.28a22.71,22.71,0,0,0,2.77,2.25,23.14,23.14,0,0,0,12.76,4.09,24.23,24.23,0,0,0,3.2-.18,22.08,22.08,0,0,0,3.06-.6,22.86,22.86,0,0,0,5.51-2.26,22.54,22.54,0,0,0,4.47-3.31,23.18,23.18,0,0,0,7.16-15.65,23.14,23.14,0,0,0-.06-3.05,23.82,23.82,0,0,0-.73-4.16c-.12-.47-.25-.81-.32-1.05s-.1-.36-.1-.36.18.47.45,1.4a22.81,22.81,0,0,1,.84,7.23,22.36,22.36,0,0,1-.45,3.61,23.22,23.22,0,0,1-3.39,8.16,23.09,23.09,0,0,1-7.8,7.31,22.7,22.7,0,0,1-5.54,2.27,21,21,0,0,1-3.08.61,24.68,24.68,0,0,1-3.23.19A23.31,23.31,0,0,1,382.79,162a23.87,23.87,0,0,1-2.78-2.26c-.45-.41-.86-.86-1.28-1.3s-.8-.92-1.17-1.41a23.17,23.17,0,0,1-4.79-13.85,22,22,0,0,1,.24-3.64,22.79,22.79,0,0,1,.8-3.5,23.21,23.21,0,0,1,7.55-11.18A24.73,24.73,0,0,1,384,123a22.88,22.88,0,0,1,2.79-1.42,23.37,23.37,0,0,1,5.77-1.64,22.43,22.43,0,0,1,5.59-.15,23,23,0,0,1,5.06,1.06,23.57,23.57,0,0,1,7.71,4.32,22.37,22.37,0,0,1,2.58,2.57,23.13,23.13,0,0,1,1.85,2.44,23.52,23.52,0,0,1,2,3.75C417.68,134.82,417.84,135.31,417.84,135.31Z" style="fill:#263238"></path><rect x="406.74" y="125.8" width="42.58" height="7.73" style="fill:#90CAF9"></rect><path d="M410.91,133.59a22.3,22.3,0,0,1-.17-3.84,22.13,22.13,0,0,1,.17-3.83,20.43,20.43,0,0,1,.18,3.83A20.58,20.58,0,0,1,410.91,133.59Z" style="fill:#263238"></path><path d="M408.59,133.59a20.58,20.58,0,0,1-.18-3.84,20.43,20.43,0,0,1,.18-3.83,22.13,22.13,0,0,1,.17,3.83A22.3,22.3,0,0,1,408.59,133.59Z" style="fill:#263238"></path><path d="M416,133.59a20.58,20.58,0,0,1-.18-3.84,20.43,20.43,0,0,1,.18-3.83,20.43,20.43,0,0,1,.18,3.83A20.58,20.58,0,0,1,416,133.59Z" style="fill:#263238"></path><path d="M413.7,133.59a20.58,20.58,0,0,1-.18-3.84,20.43,20.43,0,0,1,.18-3.83,20.43,20.43,0,0,1,.18,3.83A20.58,20.58,0,0,1,413.7,133.59Z" style="fill:#263238"></path><path d="M421.15,133.59a20.58,20.58,0,0,1-.18-3.84,20.43,20.43,0,0,1,.18-3.83,21,21,0,0,1,.17,3.83A21.16,21.16,0,0,1,421.15,133.59Z" style="fill:#263238"></path><path d="M418.82,133.59a20.58,20.58,0,0,1-.18-3.84,20.43,20.43,0,0,1,.18-3.83,20.43,20.43,0,0,1,.18,3.83A20.58,20.58,0,0,1,418.82,133.59Z" style="fill:#263238"></path><path d="M426.26,133.59a22.3,22.3,0,0,1-.17-3.84,22.13,22.13,0,0,1,.17-3.83,20.43,20.43,0,0,1,.18,3.83A20.58,20.58,0,0,1,426.26,133.59Z" style="fill:#263238"></path><path d="M423.94,133.59a20.58,20.58,0,0,1-.18-3.84,20.43,20.43,0,0,1,.18-3.83,22.13,22.13,0,0,1,.17,3.83A22.3,22.3,0,0,1,423.94,133.59Z" style="fill:#263238"></path><path d="M431.38,133.59a20.58,20.58,0,0,1-.18-3.84,20.43,20.43,0,0,1,.18-3.83,20.43,20.43,0,0,1,.18,3.83A20.58,20.58,0,0,1,431.38,133.59Z" style="fill:#263238"></path><path d="M429.05,133.59a20.58,20.58,0,0,1-.18-3.84,20.43,20.43,0,0,1,.18-3.83,20.43,20.43,0,0,1,.18,3.83A20.58,20.58,0,0,1,429.05,133.59Z" style="fill:#263238"></path><path d="M436.5,133.59a20.58,20.58,0,0,1-.18-3.84,20.43,20.43,0,0,1,.18-3.83,21,21,0,0,1,.17,3.83A21.16,21.16,0,0,1,436.5,133.59Z" style="fill:#263238"></path><path d="M434.17,133.59a20.58,20.58,0,0,1-.18-3.84,20.43,20.43,0,0,1,.18-3.83,20.43,20.43,0,0,1,.18,3.83A20.58,20.58,0,0,1,434.17,133.59Z" style="fill:#263238"></path><path d="M441.61,133.59a22.3,22.3,0,0,1-.17-3.84,22.13,22.13,0,0,1,.17-3.83,20.43,20.43,0,0,1,.18,3.83A20.58,20.58,0,0,1,441.61,133.59Z" style="fill:#263238"></path><path d="M439.28,133.59a22.3,22.3,0,0,1-.17-3.84,22.13,22.13,0,0,1,.17-3.83,20.43,20.43,0,0,1,.18,3.83A20.58,20.58,0,0,1,439.28,133.59Z" style="fill:#263238"></path><path d="M446.73,133.59a20.58,20.58,0,0,1-.18-3.84,20.43,20.43,0,0,1,.18-3.83,20.43,20.43,0,0,1,.18,3.83A20.58,20.58,0,0,1,446.73,133.59Z" style="fill:#263238"></path><path d="M444.4,133.59a20.58,20.58,0,0,1-.18-3.84,20.43,20.43,0,0,1,.18-3.83,20.43,20.43,0,0,1,.18,3.83A20.58,20.58,0,0,1,444.4,133.59Z" style="fill:#263238"></path><path d="M449.32,125.8c0,.1-9.57.18-21.38.18s-21.4-.08-21.4-.18,9.58-.18,21.4-.18S449.32,125.7,449.32,125.8Z" style="fill:#263238"></path><rect x="403.95" y="133.66" width="42.58" height="7.73" style="fill:#90CAF9"></rect><path d="M408.13,141.44a20.52,20.52,0,0,1-.18-3.83,20.58,20.58,0,0,1,.18-3.84,22.3,22.3,0,0,1,.17,3.84A22.23,22.23,0,0,1,408.13,141.44Z" style="fill:#263238"></path><path d="M405.8,141.44a20.52,20.52,0,0,1-.18-3.83,20.58,20.58,0,0,1,.18-3.84,21.16,21.16,0,0,1,.17,3.84A21.09,21.09,0,0,1,405.8,141.44Z" style="fill:#263238"></path><path d="M413.24,141.44a22.23,22.23,0,0,1-.17-3.83,22.3,22.3,0,0,1,.17-3.84,20.58,20.58,0,0,1,.18,3.84A20.52,20.52,0,0,1,413.24,141.44Z" style="fill:#263238"></path><path d="M410.91,141.44a22.23,22.23,0,0,1-.17-3.83,22.3,22.3,0,0,1,.17-3.84,20.58,20.58,0,0,1,.18,3.84A20.52,20.52,0,0,1,410.91,141.44Z" style="fill:#263238"></path><path d="M418.36,141.44a20.52,20.52,0,0,1-.18-3.83,20.58,20.58,0,0,1,.18-3.84,20.58,20.58,0,0,1,.18,3.84A20.52,20.52,0,0,1,418.36,141.44Z" style="fill:#263238"></path><path d="M416,141.44a20.52,20.52,0,0,1-.18-3.83,20.58,20.58,0,0,1,.18-3.84,20.58,20.58,0,0,1,.18,3.84A20.52,20.52,0,0,1,416,141.44Z" style="fill:#263238"></path><path d="M423.48,141.44a20.52,20.52,0,0,1-.18-3.83,20.58,20.58,0,0,1,.18-3.84,22.3,22.3,0,0,1,.17,3.84A22.23,22.23,0,0,1,423.48,141.44Z" style="fill:#263238"></path><path d="M421.15,141.44a20.52,20.52,0,0,1-.18-3.83,20.58,20.58,0,0,1,.18-3.84,21.16,21.16,0,0,1,.17,3.84A21.09,21.09,0,0,1,421.15,141.44Z" style="fill:#263238"></path><path d="M428.59,141.44a22.23,22.23,0,0,1-.17-3.83,22.3,22.3,0,0,1,.17-3.84,20.58,20.58,0,0,1,.18,3.84A20.52,20.52,0,0,1,428.59,141.44Z" style="fill:#263238"></path><path d="M426.26,141.44a22.23,22.23,0,0,1-.17-3.83,22.3,22.3,0,0,1,.17-3.84,20.58,20.58,0,0,1,.18,3.84A20.52,20.52,0,0,1,426.26,141.44Z" style="fill:#263238"></path><path d="M433.71,141.44a20.52,20.52,0,0,1-.18-3.83,20.58,20.58,0,0,1,.18-3.84,20.58,20.58,0,0,1,.18,3.84A20.52,20.52,0,0,1,433.71,141.44Z" style="fill:#263238"></path><path d="M431.38,141.44a20.52,20.52,0,0,1-.18-3.83,20.58,20.58,0,0,1,.18-3.84,20.58,20.58,0,0,1,.18,3.84A20.52,20.52,0,0,1,431.38,141.44Z" style="fill:#263238"></path><path d="M438.83,141.44a20.52,20.52,0,0,1-.18-3.83,20.58,20.58,0,0,1,.18-3.84,22.3,22.3,0,0,1,.17,3.84A22.23,22.23,0,0,1,438.83,141.44Z" style="fill:#263238"></path><path d="M436.5,141.44a20.52,20.52,0,0,1-.18-3.83,20.58,20.58,0,0,1,.18-3.84,21.16,21.16,0,0,1,.17,3.84A21.09,21.09,0,0,1,436.5,141.44Z" style="fill:#263238"></path><path d="M443.94,141.44a22.23,22.23,0,0,1-.17-3.83,22.3,22.3,0,0,1,.17-3.84,20.58,20.58,0,0,1,.18,3.84A20.52,20.52,0,0,1,443.94,141.44Z" style="fill:#263238"></path><path d="M441.61,141.44a22.23,22.23,0,0,1-.17-3.83,22.3,22.3,0,0,1,.17-3.84,20.58,20.58,0,0,1,.18,3.84A20.52,20.52,0,0,1,441.61,141.44Z" style="fill:#263238"></path><path d="M446.54,133.66c0,.09-9.58.17-21.39.17s-21.39-.08-21.39-.17,9.57-.18,21.39-.18S446.54,133.56,446.54,133.66Z" style="fill:#263238"></path><rect x="407.43" y="141.44" width="42.58" height="7.73" style="fill:#90CAF9"></rect><path d="M411.61,149.23a20.58,20.58,0,0,1-.18-3.84,20.43,20.43,0,0,1,.18-3.83,22.13,22.13,0,0,1,.17,3.83A22.3,22.3,0,0,1,411.61,149.23Z" style="fill:#263238"></path><path d="M409.28,149.23a20.58,20.58,0,0,1-.18-3.84,20.43,20.43,0,0,1,.18-3.83,21,21,0,0,1,.17,3.83A21.16,21.16,0,0,1,409.28,149.23Z" style="fill:#263238"></path><path d="M416.72,149.23a22.3,22.3,0,0,1-.17-3.84,22.13,22.13,0,0,1,.17-3.83,20.43,20.43,0,0,1,.18,3.83A20.58,20.58,0,0,1,416.72,149.23Z" style="fill:#263238"></path><path d="M414.39,149.23a22.3,22.3,0,0,1-.17-3.84,22.13,22.13,0,0,1,.17-3.83,20.43,20.43,0,0,1,.18,3.83A20.58,20.58,0,0,1,414.39,149.23Z" style="fill:#263238"></path><path d="M421.84,149.23a20.58,20.58,0,0,1-.18-3.84,20.43,20.43,0,0,1,.18-3.83,20.43,20.43,0,0,1,.18,3.83A20.58,20.58,0,0,1,421.84,149.23Z" style="fill:#263238"></path><path d="M419.51,149.23a20.58,20.58,0,0,1-.18-3.84,20.43,20.43,0,0,1,.18-3.83,20.43,20.43,0,0,1,.18,3.83A20.58,20.58,0,0,1,419.51,149.23Z" style="fill:#263238"></path><path d="M427,149.23a20.58,20.58,0,0,1-.18-3.84,20.43,20.43,0,0,1,.18-3.83,22.13,22.13,0,0,1,.17,3.83A22.3,22.3,0,0,1,427,149.23Z" style="fill:#263238"></path><path d="M424.63,149.23a20.58,20.58,0,0,1-.18-3.84,20.43,20.43,0,0,1,.18-3.83,21,21,0,0,1,.17,3.83A21.16,21.16,0,0,1,424.63,149.23Z" style="fill:#263238"></path><path d="M432.07,149.23a22.3,22.3,0,0,1-.17-3.84,22.13,22.13,0,0,1,.17-3.83,20.43,20.43,0,0,1,.18,3.83A20.58,20.58,0,0,1,432.07,149.23Z" style="fill:#263238"></path><path d="M429.74,149.23a22.3,22.3,0,0,1-.17-3.84,22.13,22.13,0,0,1,.17-3.83,20.43,20.43,0,0,1,.18,3.83A20.58,20.58,0,0,1,429.74,149.23Z" style="fill:#263238"></path><path d="M437.19,149.23a20.58,20.58,0,0,1-.18-3.84,20.43,20.43,0,0,1,.18-3.83,20.43,20.43,0,0,1,.18,3.83A20.58,20.58,0,0,1,437.19,149.23Z" style="fill:#263238"></path><path d="M434.86,149.23a20.58,20.58,0,0,1-.18-3.84,20.43,20.43,0,0,1,.18-3.83,20.43,20.43,0,0,1,.18,3.83A20.58,20.58,0,0,1,434.86,149.23Z" style="fill:#263238"></path><path d="M442.31,149.23a20.58,20.58,0,0,1-.18-3.84,20.43,20.43,0,0,1,.18-3.83,22.13,22.13,0,0,1,.17,3.83A22.3,22.3,0,0,1,442.31,149.23Z" style="fill:#263238"></path><path d="M440,149.23a20.58,20.58,0,0,1-.18-3.84,20.43,20.43,0,0,1,.18-3.83,21,21,0,0,1,.17,3.83A21.16,21.16,0,0,1,440,149.23Z" style="fill:#263238"></path><path d="M447.42,149.23a22.3,22.3,0,0,1-.17-3.84,22.13,22.13,0,0,1,.17-3.83,20.43,20.43,0,0,1,.18,3.83A20.58,20.58,0,0,1,447.42,149.23Z" style="fill:#263238"></path><path d="M445.09,149.23a22.3,22.3,0,0,1-.17-3.84,22.13,22.13,0,0,1,.17-3.83,20.43,20.43,0,0,1,.18,3.83A20.58,20.58,0,0,1,445.09,149.23Z" style="fill:#263238"></path><path d="M450,141.44c0,.1-9.6.18-21.44.18s-21.45-.08-21.45-.18,9.6-.17,21.45-.17S450,141.34,450,141.44Z" style="fill:#263238"></path><rect x="404.1" y="149.11" width="42.58" height="7.73" style="fill:#90CAF9"></rect><path d="M408.27,156.9a20.58,20.58,0,0,1-.18-3.84,20.52,20.52,0,0,1,.18-3.83,20.52,20.52,0,0,1,.18,3.83A20.58,20.58,0,0,1,408.27,156.9Z" style="fill:#263238"></path><path d="M405.94,156.9a20.58,20.58,0,0,1-.18-3.84,20.52,20.52,0,0,1,.18-3.83,20.52,20.52,0,0,1,.18,3.83A20.58,20.58,0,0,1,405.94,156.9Z" style="fill:#263238"></path><path d="M413.39,156.9a20.58,20.58,0,0,1-.18-3.84,20.52,20.52,0,0,1,.18-3.83,22.23,22.23,0,0,1,.17,3.83A22.3,22.3,0,0,1,413.39,156.9Z" style="fill:#263238"></path><path d="M411.06,156.9a20.58,20.58,0,0,1-.18-3.84,20.52,20.52,0,0,1,.18-3.83,22.23,22.23,0,0,1,.17,3.83A22.3,22.3,0,0,1,411.06,156.9Z" style="fill:#263238"></path><path d="M418.5,156.9a20.58,20.58,0,0,1-.18-3.84,20.52,20.52,0,0,1,.18-3.83,20.52,20.52,0,0,1,.18,3.83A20.58,20.58,0,0,1,418.5,156.9Z" style="fill:#263238"></path><path d="M416.17,156.9a21.16,21.16,0,0,1-.17-3.84,21.09,21.09,0,0,1,.17-3.83,20.52,20.52,0,0,1,.18,3.83A20.58,20.58,0,0,1,416.17,156.9Z" style="fill:#263238"></path><path d="M423.62,156.9a20.58,20.58,0,0,1-.18-3.84,20.52,20.52,0,0,1,.18-3.83,20.52,20.52,0,0,1,.18,3.83A20.58,20.58,0,0,1,423.62,156.9Z" style="fill:#263238"></path><path d="M421.29,156.9a20.58,20.58,0,0,1-.18-3.84,20.52,20.52,0,0,1,.18-3.83,20.52,20.52,0,0,1,.18,3.83A20.58,20.58,0,0,1,421.29,156.9Z" style="fill:#263238"></path><path d="M428.74,156.9a20.58,20.58,0,0,1-.18-3.84,20.52,20.52,0,0,1,.18-3.83,22.23,22.23,0,0,1,.17,3.83A22.3,22.3,0,0,1,428.74,156.9Z" style="fill:#263238"></path><path d="M426.41,156.9a20.58,20.58,0,0,1-.18-3.84,20.52,20.52,0,0,1,.18-3.83,22.23,22.23,0,0,1,.17,3.83A22.3,22.3,0,0,1,426.41,156.9Z" style="fill:#263238"></path><path d="M433.85,156.9a20.58,20.58,0,0,1-.18-3.84,20.52,20.52,0,0,1,.18-3.83,20.52,20.52,0,0,1,.18,3.83A20.58,20.58,0,0,1,433.85,156.9Z" style="fill:#263238"></path><path d="M431.52,156.9a21.16,21.16,0,0,1-.17-3.84,21.09,21.09,0,0,1,.17-3.83,20.52,20.52,0,0,1,.18,3.83A20.58,20.58,0,0,1,431.52,156.9Z" style="fill:#263238"></path><path d="M439,156.9a20.58,20.58,0,0,1-.18-3.84,20.52,20.52,0,0,1,.18-3.83,20.52,20.52,0,0,1,.18,3.83A20.58,20.58,0,0,1,439,156.9Z" style="fill:#263238"></path><path d="M436.64,156.9a20.58,20.58,0,0,1-.18-3.84,20.52,20.52,0,0,1,.18-3.83,20.52,20.52,0,0,1,.18,3.83A20.58,20.58,0,0,1,436.64,156.9Z" style="fill:#263238"></path><path d="M444.09,156.9a20.58,20.58,0,0,1-.18-3.84,20.52,20.52,0,0,1,.18-3.83,22.23,22.23,0,0,1,.17,3.83A22.3,22.3,0,0,1,444.09,156.9Z" style="fill:#263238"></path><path d="M441.76,156.9a20.58,20.58,0,0,1-.18-3.84,20.52,20.52,0,0,1,.18-3.83,22.23,22.23,0,0,1,.17,3.83A22.3,22.3,0,0,1,441.76,156.9Z" style="fill:#263238"></path><path d="M446.68,149.11c0,.1-9.58.18-21.39.18s-21.39-.08-21.39-.18,9.57-.17,21.39-.17S446.68,149,446.68,149.11Z" style="fill:#263238"></path><rect x="408.36" y="156.96" width="42.58" height="7.73" style="fill:#90CAF9"></rect><path d="M412.54,164.74a20.43,20.43,0,0,1-.18-3.83,20.58,20.58,0,0,1,.18-3.84,22.3,22.3,0,0,1,.17,3.84A22.13,22.13,0,0,1,412.54,164.74Z" style="fill:#263238"></path><path d="M410.21,164.74a20.43,20.43,0,0,1-.18-3.83,20.58,20.58,0,0,1,.18-3.84,22.3,22.3,0,0,1,.17,3.84A22.13,22.13,0,0,1,410.21,164.74Z" style="fill:#263238"></path><path d="M417.65,164.74a21,21,0,0,1-.17-3.83,21.16,21.16,0,0,1,.17-3.84,20.58,20.58,0,0,1,.18,3.84A20.43,20.43,0,0,1,417.65,164.74Z" style="fill:#263238"></path><path d="M415.32,164.74a22.13,22.13,0,0,1-.17-3.83,22.3,22.3,0,0,1,.17-3.84,20.58,20.58,0,0,1,.18,3.84A20.43,20.43,0,0,1,415.32,164.74Z" style="fill:#263238"></path><path d="M422.77,164.74a20.43,20.43,0,0,1-.18-3.83,20.58,20.58,0,0,1,.18-3.84,20.58,20.58,0,0,1,.18,3.84A20.43,20.43,0,0,1,422.77,164.74Z" style="fill:#263238"></path><path d="M420.44,164.74a20.43,20.43,0,0,1-.18-3.83,20.58,20.58,0,0,1,.18-3.84,20.58,20.58,0,0,1,.18,3.84A20.43,20.43,0,0,1,420.44,164.74Z" style="fill:#263238"></path><path d="M427.89,164.74a20.43,20.43,0,0,1-.18-3.83,20.58,20.58,0,0,1,.18-3.84,22.3,22.3,0,0,1,.17,3.84A22.13,22.13,0,0,1,427.89,164.74Z" style="fill:#263238"></path><path d="M425.56,164.74a20.43,20.43,0,0,1-.18-3.83,20.58,20.58,0,0,1,.18-3.84,22.3,22.3,0,0,1,.17,3.84A22.13,22.13,0,0,1,425.56,164.74Z" style="fill:#263238"></path><path d="M433,164.74a21,21,0,0,1-.17-3.83,21.16,21.16,0,0,1,.17-3.84,20.58,20.58,0,0,1,.18,3.84A20.43,20.43,0,0,1,433,164.74Z" style="fill:#263238"></path><path d="M430.67,164.74a22.13,22.13,0,0,1-.17-3.83,22.3,22.3,0,0,1,.17-3.84,20.58,20.58,0,0,1,.18,3.84A20.43,20.43,0,0,1,430.67,164.74Z" style="fill:#263238"></path><path d="M438.12,164.74a20.43,20.43,0,0,1-.18-3.83,20.58,20.58,0,0,1,.18-3.84,20.58,20.58,0,0,1,.18,3.84A20.43,20.43,0,0,1,438.12,164.74Z" style="fill:#263238"></path><path d="M435.79,164.74a20.43,20.43,0,0,1-.18-3.83,20.58,20.58,0,0,1,.18-3.84,20.58,20.58,0,0,1,.18,3.84A20.43,20.43,0,0,1,435.79,164.74Z" style="fill:#263238"></path><path d="M443.24,164.74a20.43,20.43,0,0,1-.18-3.83,20.58,20.58,0,0,1,.18-3.84,22.3,22.3,0,0,1,.17,3.84A22.13,22.13,0,0,1,443.24,164.74Z" style="fill:#263238"></path><path d="M440.91,164.74a20.43,20.43,0,0,1-.18-3.83,20.58,20.58,0,0,1,.18-3.84,22.3,22.3,0,0,1,.17,3.84A22.13,22.13,0,0,1,440.91,164.74Z" style="fill:#263238"></path><path d="M448.35,164.74a21,21,0,0,1-.17-3.83,21.16,21.16,0,0,1,.17-3.84,20.58,20.58,0,0,1,.18,3.84A20.43,20.43,0,0,1,448.35,164.74Z" style="fill:#263238"></path><path d="M446,164.74a22.13,22.13,0,0,1-.17-3.83,22.3,22.3,0,0,1,.17-3.84,20.58,20.58,0,0,1,.18,3.84A20.43,20.43,0,0,1,446,164.74Z" style="fill:#263238"></path><path d="M451,157c0,.1-9.58.17-21.39.17s-21.39-.07-21.39-.17,9.57-.18,21.39-.18S451,156.86,451,157Z" style="fill:#263238"></path><g style="opacity:0.30000000000000004"><path d="M407.43,141.44a64.7,64.7,0,0,0,19.68,1.43c6.53-.43,13.13-1.39,19.68-1.31Z"></path></g><g style="opacity:0.30000000000000004"><path d="M407.82,133.74a65,65,0,0,0,19.67,1.44c6.53-.44,13.13-1.4,19.68-1.32Z"></path></g><g style="opacity:0.30000000000000004"><path d="M409.88,149.19a65,65,0,0,0,19.67,1.43c6.54-.43,13.13-1.39,19.68-1.31Z"></path></g><g style="opacity:0.30000000000000004"><path d="M408.21,156.91a65,65,0,0,0,19.67,1.43c6.54-.43,13.13-1.39,19.68-1.31Z"></path></g><path d="M407.52,131.09a6.55,6.55,0,0,1-.17-2.12,6.47,6.47,0,0,1,.17-2.11,6.3,6.3,0,0,1,.18,2.11A6.38,6.38,0,0,1,407.52,131.09Z" style="fill:#fff"></path><path d="M404.84,139.35a14.4,14.4,0,0,1,0-4.54,15.24,15.24,0,0,1,0,4.54Z" style="fill:#fff"></path><path d="M408.66,147.31a5.83,5.83,0,0,1-.18-2,5.75,5.75,0,0,1,.18-2,5.75,5.75,0,0,1,.18,2A5.83,5.83,0,0,1,408.66,147.31Z" style="fill:#fff"></path><path d="M404.73,154.64a9.72,9.72,0,0,1,0-3.62,9.19,9.19,0,0,1,0,3.62Z" style="fill:#fff"></path><path d="M420.33,134.29a137.18,137.18,0,0,1-14.05,0,137.18,137.18,0,0,1,14.05,0Z" style="fill:#fff"></path><path d="M424.87,126.86c0,.09-3.16.17-7.07.17s-7.08-.08-7.08-.17a139.13,139.13,0,0,1,14.15,0Z" style="fill:#fff"></path><path d="M431.69,127a15.11,15.11,0,0,1-4.65,0,15.11,15.11,0,0,1,4.65,0Z" style="fill:#fff"></path></g><g id="freepik--Love--inject-55"><path d="M293.46,46.82c-1.84-7.35-9-13.53-16.53-12.62-4.44.55-8.38,3.38-11,7a30.22,30.22,0,0,0-2.53,3.88,31,31,0,0,0-2.71-3.76c-2.8-3.49-6.87-6.15-11.33-6.49-7.56-.57-14.43,5.93-15.94,13.36s1.46,15.2,6.16,21.14S252,82.85,264.92,85.5c8.41-2.14,18.93-11.12,23.35-17.28S295.3,54.17,293.46,46.82Z" style="fill:#90CAF9"></path><path d="M293.46,46.82a2.46,2.46,0,0,1,.07.24c0,.18.1.41.17.71s.14.7.21,1.17.13,1,.18,1.63a24.54,24.54,0,0,1-1.75,10.49,32.07,32.07,0,0,1-3.56,6.72,43.2,43.2,0,0,1-5.88,6.72A62.94,62.94,0,0,1,275,80.85a35.16,35.16,0,0,1-10,4.88h-.11a41.2,41.2,0,0,1-17.74-8.31,48.66,48.66,0,0,1-7.48-7.56,32.55,32.55,0,0,1-5.44-9.6,24.18,24.18,0,0,1-1.43-7.19,19,19,0,0,1,1-7.12,17.63,17.63,0,0,1,3.58-6,16.33,16.33,0,0,1,5.45-4.09,13.56,13.56,0,0,1,6.48-1.23,14.53,14.53,0,0,1,6.08,1.88,18.75,18.75,0,0,1,4.74,3.84A33.64,33.64,0,0,1,263.56,45h-.37a29.83,29.83,0,0,1,2.48-3.79,20.32,20.32,0,0,1,2.9-3.21,15.86,15.86,0,0,1,7-3.71,13.2,13.2,0,0,1,6.94.36,16,16,0,0,1,5.13,2.9,16.91,16.91,0,0,1,3.2,3.49,18.55,18.55,0,0,1,1.73,3,16,16,0,0,1,.71,2c.13.47.18.71.18.71a7.13,7.13,0,0,1-.24-.69,18.59,18.59,0,0,0-.77-2,18.31,18.31,0,0,0-1.76-3,17,17,0,0,0-3.2-3.41,16,16,0,0,0-5.07-2.81,13,13,0,0,0-6.77-.3,15.68,15.68,0,0,0-6.82,3.66A19.56,19.56,0,0,0,266,41.43a30.88,30.88,0,0,0-2.43,3.75l-.17.33-.21-.32c-2-3.1-4.47-6.34-8.06-8.31a14.19,14.19,0,0,0-5.88-1.81A13.1,13.1,0,0,0,243,36.28a16.06,16.06,0,0,0-5.29,4,17.27,17.27,0,0,0-3.46,5.87,18.31,18.31,0,0,0-1,6.93,23.61,23.61,0,0,0,1.4,7,32.25,32.25,0,0,0,5.35,9.45,48.58,48.58,0,0,0,7.4,7.49A40.79,40.79,0,0,0,265,85.27h-.11a34.77,34.77,0,0,0,9.93-4.79,63.64,63.64,0,0,0,7.85-6.27,44.13,44.13,0,0,0,5.87-6.63A32.57,32.57,0,0,0,292.08,61a24.74,24.74,0,0,0,1.86-10.38c0-.62-.07-1.16-.14-1.63s-.11-.86-.18-1.17-.1-.53-.13-.71A.77.77,0,0,1,293.46,46.82Z" style="fill:#263238"></path><path d="M260.87,63.43a.82.82,0,0,1-.82-.82V55.07H254v7.54a.82.82,0,1,1-1.64,0V54.86a1.42,1.42,0,0,1,1.41-1.43h6.55a1.43,1.43,0,0,1,1.41,1.43v7.75A.83.83,0,0,1,260.87,63.43Z" style="fill:#fff"></path><rect x="254.52" y="53.51" width="4.99" height="9.1" style="fill:#fff"></rect><path d="M255.52,73.41a1,1,0,0,1-1-1V61.68a1,1,0,1,1,2,0V72.43A1,1,0,0,1,255.52,73.41Z" style="fill:#fff"></path><path d="M258.51,73.41a1,1,0,0,1-1-1V61.68a1,1,0,0,1,2,0V72.43A1,1,0,0,1,258.51,73.41Z" style="fill:#fff"></path><path d="M259.42,50.49a2.41,2.41,0,1,1-2.4-2.4A2.4,2.4,0,0,1,259.42,50.49Z" style="fill:#fff"></path><path d="M274.89,64.1a.83.83,0,0,1-.8-.64l-1.83-7.73h-5.12l-1.77,7.38a.82.82,0,0,1-1.6-.39l1.76-7.31a1.37,1.37,0,0,1,1.33-1.32h5.68a1.37,1.37,0,0,1,1.33,1.32l1.82,7.67a.81.81,0,0,1-.61,1A.58.58,0,0,1,274.89,64.1Z" style="fill:#fff"></path><rect x="267.19" y="54.18" width="4.99" height="9.1" style="fill:#fff"></rect><path d="M268.19,74.08a1,1,0,0,1-1-1V62.34a1,1,0,0,1,2,0V73.09A1,1,0,0,1,268.19,74.08Z" style="fill:#fff"></path><path d="M271.18,74.08a1,1,0,0,1-1-1V62.34a1,1,0,0,1,2,0V73.09A1,1,0,0,1,271.18,74.08Z" style="fill:#fff"></path><path d="M272.09,51.16a2.41,2.41,0,1,1-2.41-2.41A2.41,2.41,0,0,1,272.09,51.16Z" style="fill:#fff"></path><polygon points="265.38 65.98 267.28 58.73 272.09 58.73 273.94 65.98 265.38 65.98" style="fill:#fff"></polygon></g><g id="freepik--Health--inject-55"><circle cx="111.11" cy="135.52" r="56.71" style="fill:#fafafa"></circle><path d="M167.46,135.52s0-.31-.08-.91-.09-1.52-.16-2.7c0-.59-.07-1.25-.11-2s-.23-1.51-.36-2.37-.27-1.78-.43-2.76a10.44,10.44,0,0,0-.32-1.51c-.14-.51-.27-1-.42-1.59a54,54,0,0,0-6.26-15.06A56.35,56.35,0,0,0,145,90.6l-2.45-1.83c-.85-.56-1.76-1.08-2.65-1.63l-1.36-.82a10,10,0,0,0-1.4-.77l-2.93-1.41-1.49-.71-1.57-.57-3.18-1.16c-1.08-.36-2.21-.59-3.33-.89l-1.69-.43c-.28-.07-.56-.16-.85-.21l-.88-.14a52,52,0,0,0-7.14-.82c-1.22,0-2.44-.17-3.68-.15l-3.74.19c-.62,0-1.26,0-1.88.13l-1.89.29c-1.25.2-2.53.35-3.8.61a59.69,59.69,0,0,0-7.53,2.21l-1.87.69c-.31.11-.63.22-.94.35l-.9.43-3.65,1.76c-1.19.65-2.34,1.4-3.52,2.1-.57.37-1.19.69-1.74,1.11l-1.66,1.24a64.48,64.48,0,0,0-6.41,5.44L68,98.77l-.72.8c-.22.28-.43.57-.65.86l-1.29,1.73L64,103.89l-1.14,1.86-1.13,1.87-.57.94c-.17.32-.32.66-.49,1-.63,1.33-1.27,2.65-1.91,4s-1,2.78-1.53,4.18a59.91,59.91,0,0,0-2.92,17.81,60.33,60.33,0,0,0,2.91,17.81l1.53,4.18c.65,1.34,1.28,2.66,1.92,4l.48,1,.57.94,1.14,1.87L64,167.15l1.29,1.74,1.3,1.73.64.86.73.79,2.87,3.16a64.28,64.28,0,0,0,6.4,5.45l1.67,1.24c.55.42,1.16.73,1.74,1.1,1.18.7,2.33,1.46,3.52,2.1l3.65,1.76.9.44c.31.13.63.23.94.35l1.87.69a61,61,0,0,0,7.54,2.21c1.26.26,2.54.4,3.79.61l1.89.29c.63.08,1.26.08,1.89.12l3.73.2c1.24,0,2.47-.11,3.69-.15a50.82,50.82,0,0,0,7.14-.83l.87-.13c.29-.06.57-.14.85-.21l1.7-.43c1.11-.31,2.25-.54,3.32-.89l3.18-1.16,1.57-.58c.51-.22,1-.47,1.49-.7l2.94-1.41a12.79,12.79,0,0,0,1.4-.78l1.35-.82c.9-.55,1.8-1.06,2.66-1.63l2.44-1.82a56.38,56.38,0,0,0,14.37-16c.41-.68.83-1.34,1.21-2s.67-1.37,1-2,.64-1.32,1-2c.15-.33.32-.64.45-1l.36-1,1.35-3.69c.4-1.18.64-2.34.94-3.43.15-.54.28-1.07.42-1.58a10.73,10.73,0,0,0,.32-1.51c.16-1,.3-1.91.43-2.76s.28-1.65.36-2.37.08-1.39.11-2c.07-1.17.13-2.07.16-2.69s.08-.92.08-.92,0,.31,0,.92-.07,1.52-.11,2.7c0,.6-.06,1.26-.09,2s-.21,1.52-.33,2.38-.27,1.78-.41,2.77a10.79,10.79,0,0,1-.31,1.52c-.14.51-.27,1-.41,1.59-.29,1.09-.53,2.26-.92,3.45s-.88,2.42-1.34,3.71l-.36,1c-.13.32-.3.64-.45,1l-.94,2c-.33.67-.65,1.36-1,2.06s-.8,1.34-1.21,2a56.32,56.32,0,0,1-14.4,16.19l-2.45,1.84c-.86.57-1.77,1.1-2.67,1.65l-1.36.83a12.12,12.12,0,0,1-1.41.79l-2.95,1.42c-.5.24-1,.49-1.5.72l-1.58.58-3.2,1.17c-1.09.37-2.22.6-3.35.91l-1.7.44c-.29.07-.57.16-.86.21l-.88.14a53,53,0,0,1-7.2.85c-1.23,0-2.46.16-3.71.15l-3.77-.19c-.63,0-1.27,0-1.9-.12l-1.9-.29c-1.27-.21-2.56-.35-3.83-.61a60.25,60.25,0,0,1-7.6-2.22l-1.89-.69c-.31-.12-.64-.23-.95-.36l-.91-.43-3.68-1.78c-1.21-.65-2.36-1.4-3.55-2.11-.59-.37-1.21-.69-1.76-1.11l-1.68-1.25a64.34,64.34,0,0,1-6.47-5.49l-2.9-3.19-.73-.8-.65-.87-1.31-1.74-1.31-1.75-1.15-1.88-1.14-1.88-.58-1-.49-1-1.93-4c-.52-1.4-1-2.8-1.55-4.22a60.7,60.7,0,0,1-2.94-18,60.77,60.77,0,0,1,2.94-18c.52-1.41,1-2.82,1.55-4.22l1.94-4c.16-.34.31-.67.49-1l.57-1,1.15-1.88,1.15-1.87,1.31-1.76,1.3-1.74c.22-.29.43-.58.66-.87l.73-.8,2.89-3.18a64.15,64.15,0,0,1,6.47-5.49l1.68-1.25c.55-.42,1.18-.74,1.76-1.11,1.19-.71,2.34-1.47,3.55-2.12l3.68-1.77.91-.44c.31-.13.64-.23.95-.35L91.35,82A60.25,60.25,0,0,1,99,79.82c1.27-.26,2.56-.41,3.83-.61l1.9-.29c.63-.08,1.27-.08,1.9-.12l3.77-.19c1.24,0,2.48.11,3.71.15a52.89,52.89,0,0,1,7.19.85l.88.13c.29.06.58.15.86.22l1.71.44c1.12.31,2.26.54,3.35.9l3.2,1.18,1.58.58,1.5.71,2.95,1.43a11.92,11.92,0,0,1,1.4.78l1.37.83c.9.56,1.8,1.08,2.67,1.65l2.45,1.84a56.58,56.58,0,0,1,14.4,16.19,54.12,54.12,0,0,1,6.21,15.16l.4,1.6a9.48,9.48,0,0,1,.32,1.51c.14,1,.28,1.92.41,2.78s.26,1.65.33,2.38.06,1.39.09,2c0,1.17.08,2.07.11,2.7S167.46,135.52,167.46,135.52Z" style="fill:#263238"></path><path d="M112.11,68.74c-.14,0-.26-5.69-.26-12.7s.12-12.69.26-12.69.26,5.68.26,12.69S112.25,68.74,112.11,68.74Z" style="fill:#263238"></path><path d="M88.76,73.13a56.41,56.41,0,0,1-4.14-6.53,59.11,59.11,0,0,1-3.69-6.79,58.05,58.05,0,0,1,4.14,6.53A58.17,58.17,0,0,1,88.76,73.13Z" style="fill:#263238"></path><path d="M142.4,58.13c0-.05.11,0,.08.16a2.2,2.2,0,0,1-.12.48,16.55,16.55,0,0,1-.71,1.64c-.66,1.36-1.64,3.19-2.78,5.18s-2.21,3.76-3,5a11.46,11.46,0,0,1-1.4,2,11.58,11.58,0,0,1,1.08-2.18c.72-1.32,1.74-3.13,2.88-5.11C140.68,61.37,142.58,58.12,142.4,58.13Z" style="fill:#263238"></path><path d="M83.14,121.67s-3.46-30.31,27.63-31,27.81,30.65,26.49,34.9-7.57,16.58-8.23,22.2.2,22.51.63,28h-32l.12-16.69S86.1,161,84,155.72s-2-15.5-2-15.5-6.42,0-6.91-1S83.14,121.67,83.14,121.67Z" style="fill:#90CAF9"></path><g style="opacity:0.7000000000000001"><path d="M83.14,121.67s-3.46-30.31,27.63-31,27.81,30.65,26.49,34.9-7.57,16.58-8.23,22.2.2,22.51.63,28h-32l.12-16.69S86.1,161,84,155.72s-2-15.5-2-15.5-6.42,0-6.91-1S83.14,121.67,83.14,121.67Z" style="fill:#fff"></path></g><path d="M99.44,103.19c-1.78-.44-4.14-1.38-6,.34a6.65,6.65,0,0,0-1.59,4.14A6.42,6.42,0,0,0,87,110.4a4.6,4.6,0,0,0-.9,2.76,2.91,2.91,0,0,0,1.37,2.45,4.57,4.57,0,0,0-.24,4.68,4.34,4.34,0,0,0,4,2.21,5.16,5.16,0,0,0,1.69,4.63,4.88,4.88,0,0,0,4.75.88,5,5,0,0,0,7.16,1,1.93,1.93,0,0,1,.85-.54,1.59,1.59,0,0,1,.85.17,8.45,8.45,0,0,0,4.35.75,3.46,3.46,0,0,0,3-2.91,11.1,11.1,0,0,0,5.22,1.34c2.08,0,4.51-.94,5-3a4.09,4.09,0,0,0,4.39.39,4.28,4.28,0,0,0,2.16-3.92c1.77.34,3.27-1.47,3.75-3.24a6.74,6.74,0,0,0-.61-5.19,4.5,4.5,0,0,0-4.46-2.18,4.58,4.58,0,0,0,.32-4.59,4.38,4.38,0,0,0-3.86-2.36,4.07,4.07,0,0,0-2.67-2.68,4,4,0,0,0-3.65.81,6.81,6.81,0,0,0-5.05-3.28,6.73,6.73,0,0,0-5.61,2.12A6.53,6.53,0,0,0,103,99.34a5.35,5.35,0,0,0-3.59,3.85" style="fill:#90CAF9"></path><g style="opacity:0.30000000000000004"><path d="M99.44,103.05c-1.78-.45-4.14-1.38-6,.33a6.7,6.7,0,0,0-1.59,4.14A6.47,6.47,0,0,0,87,110.26a4.6,4.6,0,0,0-.9,2.76,2.91,2.91,0,0,0,1.37,2.45,4.57,4.57,0,0,0-.24,4.68,4.34,4.34,0,0,0,4,2.21A5.16,5.16,0,0,0,92.94,127a4.88,4.88,0,0,0,4.75.88,5,5,0,0,0,7.16,1,1.93,1.93,0,0,1,.85-.54,1.59,1.59,0,0,1,.85.17,8.55,8.55,0,0,0,4.35.75,3.47,3.47,0,0,0,3-2.91,11.1,11.1,0,0,0,5.22,1.34c2.08,0,4.51-1,5-3a4.09,4.09,0,0,0,4.39.39,4.28,4.28,0,0,0,2.16-3.92c1.77.34,3.27-1.47,3.75-3.25a6.72,6.72,0,0,0-.61-5.18,4.5,4.5,0,0,0-4.46-2.18,4.58,4.58,0,0,0,.32-4.59,4.38,4.38,0,0,0-3.86-2.36,4.07,4.07,0,0,0-2.67-2.68,4,4,0,0,0-3.65.81,6.81,6.81,0,0,0-5.05-3.28,6.73,6.73,0,0,0-5.61,2.12A6.53,6.53,0,0,0,103,99.2a5.35,5.35,0,0,0-3.59,3.85" style="fill:#fff"></path></g><path d="M97.89,106.92a3.11,3.11,0,0,0-.54,0,2.18,2.18,0,0,0-1.23.81,4.22,4.22,0,0,0-.74,2.15,5.37,5.37,0,0,0,0,1.39,2.33,2.33,0,0,0,.59,1.34l.08.08-.11,0a4.12,4.12,0,0,0-3.14,2.66,4.14,4.14,0,0,0-.23,1.33,4.3,4.3,0,0,0,.64,2.35l0,0-.06,0a2,2,0,0,0-.9.51,2.81,2.81,0,0,0-.56.76,4.36,4.36,0,0,0-.41,1.49c0,.43,0,.77-.06,1v.27c0,.06,0,.09,0,.09v-.36c0-.23,0-.57,0-1a4.21,4.21,0,0,1,.39-1.51,3,3,0,0,1,.56-.8,2.2,2.2,0,0,1,.94-.54l0,.08a4.3,4.3,0,0,1-.67-2.4,4.38,4.38,0,0,1,.23-1.37,4.07,4.07,0,0,1,.72-1.26,4.18,4.18,0,0,1,2.52-1.47l0,.09a2.45,2.45,0,0,1-.63-1.41,5.49,5.49,0,0,1,0-1.41,4.13,4.13,0,0,1,.78-2.18,2.2,2.2,0,0,1,1.28-.81A1.26,1.26,0,0,1,97.89,106.92Z" style="fill:#90CAF9"></path><path d="M102.34,120.08a1.93,1.93,0,0,1-.32.15c-.2.08-.51.2-.89.32a4.26,4.26,0,0,1-1.41.19,2.45,2.45,0,0,1-.82-.17,2.81,2.81,0,0,1-.78-.46,3.26,3.26,0,0,1-1.1-1.34,2.69,2.69,0,0,1-.11-1.41,2.46,2.46,0,0,1,.37-.88,1.31,1.31,0,0,1,.17-.2s.06-.07.06-.06-.08.09-.19.28a2.49,2.49,0,0,0-.33.88,2.6,2.6,0,0,0,.13,1.35A3.26,3.26,0,0,0,98.19,120a2.67,2.67,0,0,0,1.54.62,4.46,4.46,0,0,0,1.38-.17c.38-.1.69-.21.9-.28A1.62,1.62,0,0,1,102.34,120.08Z" style="fill:#90CAF9"></path><path d="M121.67,116.18a.28.28,0,0,1,0,.06l0,.18c0,.15-.07.38-.13.68a8.36,8.36,0,0,1-.27,1.07,4.65,4.65,0,0,1-.64,1.34,4.74,4.74,0,0,1-1.33,1.26,6.23,6.23,0,0,1-2,.85,5.08,5.08,0,0,1-1.18.11,5.86,5.86,0,0,1-1.22-.2,8.09,8.09,0,0,1-2.38-1.13l.09,0a8.92,8.92,0,0,1-.77,2.71,4.14,4.14,0,0,1-.42.61,3.39,3.39,0,0,1-.56.51,4,4,0,0,1-1.41.57,5.34,5.34,0,0,1-2.64-.15,5.26,5.26,0,0,1-2.14-1.28l.09,0a2.64,2.64,0,0,1-.59,1.29,3.1,3.1,0,0,1-1.08.83,3.79,3.79,0,0,1-2.49.2,6.16,6.16,0,0,1-2.06-.92,3.76,3.76,0,0,1-1.28-1.43,2.4,2.4,0,0,1-.25-.8,2.59,2.59,0,0,1,0-.74,2.28,2.28,0,0,1,.5-1.06,1.61,1.61,0,0,1,.6-.43,1,1,0,0,1,.24-.07,1.78,1.78,0,0,1-.24.09,1.61,1.61,0,0,0-.57.44,2.24,2.24,0,0,0-.47,1,2.29,2.29,0,0,0,.23,1.5,3.7,3.7,0,0,0,1.27,1.39,6.06,6.06,0,0,0,2,.9,3.73,3.73,0,0,0,2.43-.2,3.12,3.12,0,0,0,1-.81,2.52,2.52,0,0,0,.56-1.24l0-.1.07.07a5.26,5.26,0,0,0,4.68,1.39,3.59,3.59,0,0,0,1.37-.55,2.77,2.77,0,0,0,.54-.48,4,4,0,0,0,.41-.6,8.73,8.73,0,0,0,.76-2.66v-.09l.07,0a8.28,8.28,0,0,0,2.35,1.12,5,5,0,0,0,1.2.2,4.4,4.4,0,0,0,1.15-.11,5.8,5.8,0,0,0,1.93-.82,4.62,4.62,0,0,0,1.32-1.23,4.69,4.69,0,0,0,.65-1.31c.14-.42.22-.78.29-1.07s.11-.52.14-.68l0-.17A.32.32,0,0,1,121.67,116.18Z" style="fill:#90CAF9"></path><path d="M122.74,109.5l.14,0,.18,0,.23.06a3.48,3.48,0,0,1,1.34.72,5.3,5.3,0,0,1,1.37,1.79,6.78,6.78,0,0,1,.45,1.27,2.71,2.71,0,0,1,.1.71,6.21,6.21,0,0,1-.07.73,4,4,0,0,1-.45,1.37,3.58,3.58,0,0,1-.9,1,5.31,5.31,0,0,1-3.55,1.15l-.41,0c-.1,0-.15,0-.15,0h.56a5.86,5.86,0,0,0,1.5-.18,6,6,0,0,0,2-1,3.54,3.54,0,0,0,.87-1,3.86,3.86,0,0,0,.44-1.33,4.25,4.25,0,0,0-.47-2.64,5.17,5.17,0,0,0-1.32-1.78,3.62,3.62,0,0,0-1.3-.74l-.23-.07-.17,0C122.79,109.52,122.74,109.51,122.74,109.5Z" style="fill:#90CAF9"></path><path d="M130.11,112.83a1,1,0,0,1,.13.26,2.42,2.42,0,0,1,.16.76,2.92,2.92,0,0,1-.18,1.15,2.67,2.67,0,0,1-.82,1.16,3.2,3.2,0,0,1-.63.38,2.81,2.81,0,0,1-.66.21,2.18,2.18,0,0,1-1.16-.09,2.08,2.08,0,0,1-.66-.43l-.14-.16,0-.06s.08.07.21.19a2.16,2.16,0,0,0,.66.38,2.23,2.23,0,0,0,1.11.07,2.59,2.59,0,0,0,.63-.21,3.2,3.2,0,0,0,.61-.37,2.57,2.57,0,0,0,.79-1.11,2.89,2.89,0,0,0,.2-1.1A3.73,3.73,0,0,0,130.11,112.83Z" style="fill:#90CAF9"></path><path d="M126.11,103.68a3.91,3.91,0,0,0-.41-.06,1.82,1.82,0,0,0-.5,0,2.22,2.22,0,0,0-.64.24,3,3,0,0,0-1.29,1.35,9.09,9.09,0,0,0-.73,2.45l0,.09,0-.08a5.22,5.22,0,0,0-1.86-1.74,4.89,4.89,0,0,0-2.84-.62,5.19,5.19,0,0,0-3,1.29,4.26,4.26,0,0,0-1,1.39,2.44,2.44,0,0,0-.18,1.74l.1.33-.2-.28a4.53,4.53,0,0,0-3.33-1.85c-.17,0-.34,0-.51,0s-.34,0-.51,0a4.32,4.32,0,0,0-1,.29,4.09,4.09,0,0,0-.9.53,5.32,5.32,0,0,0-.75.75,5.18,5.18,0,0,0-.89,1.71,4.73,4.73,0,0,0-.14,1.87l0,.09-.09,0a4.8,4.8,0,0,0-2.18-.25,3,3,0,0,0-1.85,1,2.58,2.58,0,0,0-.66,1.88,2.83,2.83,0,0,0,.74,1.77,3.15,3.15,0,0,0,1.58,1,5.3,5.3,0,0,0,1.77.1,4.68,4.68,0,0,0,1.6-.43,2.59,2.59,0,0,0,1.12-1l0,0,0,0A2.77,2.77,0,0,0,109,118a2.64,2.64,0,0,0,1.45,0,2.34,2.34,0,0,0,1.06-.66,2.73,2.73,0,0,0,.53-.92,2.52,2.52,0,0,0,.09-1.46,4.09,4.09,0,0,0-.16-.48l0,.11a1.6,1.6,0,0,1,.14.37,2.61,2.61,0,0,1-.07,1.47,2.92,2.92,0,0,1-.54.94,2.3,2.3,0,0,1-1.09.69,2.74,2.74,0,0,1-1.48,0,2.89,2.89,0,0,1-1.42-.85h.06a2.71,2.71,0,0,1-1.15,1.07,4.85,4.85,0,0,1-1.63.44,5.57,5.57,0,0,1-1.81-.1,3.29,3.29,0,0,1-1.63-1,2.92,2.92,0,0,1-.77-1.84,2.76,2.76,0,0,1,.68-2,3.24,3.24,0,0,1,1.93-1,4.88,4.88,0,0,1,2.23.25l-.08.06a5,5,0,0,1,.14-1.91,5.14,5.14,0,0,1,.91-1.75,5.6,5.6,0,0,1,.77-.77,4.77,4.77,0,0,1,.92-.55,4.56,4.56,0,0,1,1-.29,3.27,3.27,0,0,1,.53,0,4.51,4.51,0,0,1,.52,0,4.67,4.67,0,0,1,3.41,1.91l-.1,0a2.62,2.62,0,0,1,.19-1.83,4.46,4.46,0,0,1,1.08-1.41,5.28,5.28,0,0,1,3-1.31,5,5,0,0,1,2.89.64,5.21,5.21,0,0,1,1.88,1.78h-.06a8.8,8.8,0,0,1,.75-2.46,3.08,3.08,0,0,1,1.32-1.37,2.61,2.61,0,0,1,.66-.23,1.82,1.82,0,0,1,.51,0,1.54,1.54,0,0,1,.3.05Z" style="fill:#90CAF9"></path><path d="M121.32,112.72s0,.12,0,.35a5.66,5.66,0,0,1-.2.93,2.58,2.58,0,0,1-.73,1.23,3.05,3.05,0,0,1-1.61.64,3.39,3.39,0,0,1-1.73-.24,2.65,2.65,0,0,1-1.09-.91,2.2,2.2,0,0,1-.38-.89,1.58,1.58,0,0,1,0-.26c0-.06,0-.09,0-.09s0,.13.07.34a2.37,2.37,0,0,0,.39.85,2.63,2.63,0,0,0,1.07.86,3.28,3.28,0,0,0,1.67.22,2.9,2.9,0,0,0,1.56-.6A2.56,2.56,0,0,0,121,114a8,8,0,0,0,.24-.92A1.31,1.31,0,0,1,121.32,112.72Z" style="fill:#90CAF9"></path><path d="M119.81,101.5s-.08,0-.25.11l-.7.32a4.59,4.59,0,0,0-1,.61,1.31,1.31,0,0,0-.37.57.9.9,0,0,0,0,.72l-.09.06a3,3,0,0,0-1.65-1,7.14,7.14,0,0,0-2.19-.27,3.57,3.57,0,0,0-1.68.59,3.69,3.69,0,0,0-.87.84c-.18.23-.25.37-.26.37a.49.49,0,0,1,0-.11A2.06,2.06,0,0,1,111,104a3.53,3.53,0,0,1,.87-.88,3.42,3.42,0,0,1,1.71-.62,5,5,0,0,1,1.09,0,7.89,7.89,0,0,1,1.14.22,3.15,3.15,0,0,1,1.71,1.08l-.09,0a1,1,0,0,1,0-.8,1.46,1.46,0,0,1,.41-.61,4.18,4.18,0,0,1,1-.6l.71-.29Z" style="fill:#90CAF9"></path><path d="M100.72,109.93a1.45,1.45,0,0,1-.28-.44,2.57,2.57,0,0,1-.23-1.42,2.85,2.85,0,0,1,.3-1,2.37,2.37,0,0,1,.81-.86,2.56,2.56,0,0,1,1.25-.39,2.45,2.45,0,0,1,1.38.33l-.08.08a2.77,2.77,0,0,1-.45-1.24,4.31,4.31,0,0,1,.81-3,3.77,3.77,0,0,1,2.11-1.46,3.6,3.6,0,0,1,1.75,0,2.58,2.58,0,0,1,.45.13l.15.07s-.21-.08-.61-.16a3.79,3.79,0,0,0-3.77,1.52,4.29,4.29,0,0,0-.78,3,2.84,2.84,0,0,0,.43,1.19l.15.21-.22-.13a2.33,2.33,0,0,0-1.32-.32,2.42,2.42,0,0,0-1.2.37,2.23,2.23,0,0,0-.78.81,2.51,2.51,0,0,0-.3.94,2.65,2.65,0,0,0,.18,1.39A4.27,4.27,0,0,0,100.72,109.93Z" style="fill:#90CAF9"></path><path d="M90.12,112.69h.06a.55.55,0,0,1,.18,0,1.09,1.09,0,0,1,.5.47,1.34,1.34,0,0,1,.14,1,1.79,1.79,0,0,1-.73,1,2.5,2.5,0,0,1-1.18.41,3.82,3.82,0,0,1-1,0,1.62,1.62,0,0,1-.65-.23.88.88,0,0,1-.19-.17,1.81,1.81,0,0,0,.85.32,4.23,4.23,0,0,0,1,0,2.57,2.57,0,0,0,1.12-.4,1.77,1.77,0,0,0,.7-.94,1.23,1.23,0,0,0-.11-.94,1.14,1.14,0,0,0-.45-.47C90.2,112.71,90.11,112.7,90.12,112.69Z" style="fill:#90CAF9"></path><path d="M98.3,128.62l-.17-.11a2.38,2.38,0,0,1-.38-.42,3.65,3.65,0,0,1-.65-1.72,3.13,3.13,0,0,1,0-1,3.5,3.5,0,0,1,.25-.79,1.39,1.39,0,0,1,.43-.63l-.11.17a2.79,2.79,0,0,0-.24.49,3.39,3.39,0,0,0-.25,1.77,3.94,3.94,0,0,0,.61,1.69A6,6,0,0,0,98.3,128.62Z" style="fill:#90CAF9"></path><path d="M105.86,125.92a1.22,1.22,0,0,1,.14.44,2.62,2.62,0,0,1-.06,1.09,2.51,2.51,0,0,1-.52,1,1.05,1.05,0,0,1-.34.3,3.43,3.43,0,0,1,.28-.35,3,3,0,0,0,.47-1,3.12,3.12,0,0,0,.09-1A3.94,3.94,0,0,1,105.86,125.92Z" style="fill:#90CAF9"></path><path d="M114.13,123.35a.75.75,0,0,1,.09.2,4.26,4.26,0,0,1,.16.59,4.6,4.6,0,0,1-.09,2,4.34,4.34,0,0,1-1,1.76,4,4,0,0,1-.43.42c-.11.09-.18.13-.19.12s.24-.21.56-.6a4.72,4.72,0,0,0,.91-1.73,5,5,0,0,0,.12-1.95C114.22,123.65,114.11,123.36,114.13,123.35Z" style="fill:#90CAF9"></path><path d="M123.54,120.32l.1.15a2.88,2.88,0,0,1,.21.43,5.7,5.7,0,0,1,.42,1.56,5.63,5.63,0,0,1,0,1.61,2.8,2.8,0,0,1-.1.48c0,.11-.05.17-.06.17s0-.25.08-.66a6.51,6.51,0,0,0,0-1.59,7.35,7.35,0,0,0-.38-1.54A4.94,4.94,0,0,1,123.54,120.32Z" style="fill:#90CAF9"></path><path d="M106.05,118.14l.06,0,0,0Z" style="fill:#455a64"></path><path d="M146.67,131.51c-1.56-6.22-7.63-11.46-14-10.69a14.1,14.1,0,0,0-9.34,5.93,26.43,26.43,0,0,0-2.14,3.28,26.8,26.8,0,0,0-2.3-3.18,14.07,14.07,0,0,0-9.59-5.5c-6.4-.48-12.23,5-13.5,11.32S97,145.54,101,150.58a36.12,36.12,0,0,0,21.48,13.69c7.13-1.81,16-9.42,19.79-14.63S148.22,137.74,146.67,131.51Z" style="fill:#90CAF9"></path><path d="M146.67,131.51a13.51,13.51,0,0,1,.54,3.17,20.74,20.74,0,0,1-1.47,8.9,28.17,28.17,0,0,1-3,5.7,37.3,37.3,0,0,1-5,5.69,53,53,0,0,1-6.68,5.39,29.73,29.73,0,0,1-8.52,4.14h-.1a35,35,0,0,1-15-7,40.92,40.92,0,0,1-6.34-6.41,27.68,27.68,0,0,1-4.62-8.14,18.51,18.51,0,0,1-.37-12.15,15,15,0,0,1,3-5.13,14,14,0,0,1,4.63-3.47,11.64,11.64,0,0,1,5.51-1,12.43,12.43,0,0,1,5.16,1.6,15.89,15.89,0,0,1,4,3.26,28.69,28.69,0,0,1,2.93,4H121a25.5,25.5,0,0,1,2.1-3.22,17,17,0,0,1,2.47-2.73,13.62,13.62,0,0,1,5.94-3.14,11.26,11.26,0,0,1,5.89.31,13.78,13.78,0,0,1,4.35,2.46,14.32,14.32,0,0,1,2.71,3,14.84,14.84,0,0,1,1.46,2.58,13,13,0,0,1,.6,1.73c.11.4.15.61.15.61s-.22-.83-.87-2.29a15.71,15.71,0,0,0-1.49-2.52,14.38,14.38,0,0,0-2.71-2.89,13.77,13.77,0,0,0-4.29-2.37,11.07,11.07,0,0,0-5.72-.25,13.25,13.25,0,0,0-5.76,3.1,16.66,16.66,0,0,0-2.4,2.67,27.28,27.28,0,0,0-2.05,3.17l-.17.33-.21-.32c-1.68-2.61-3.78-5.36-6.82-7a11.94,11.94,0,0,0-5-1.53,11.16,11.16,0,0,0-5.27,1A13.34,13.34,0,0,0,99.49,126a14.36,14.36,0,0,0-2.93,5,18,18,0,0,0,.37,11.81,27.38,27.38,0,0,0,4.53,8,41.29,41.29,0,0,0,6.26,6.34,34.74,34.74,0,0,0,14.82,7h-.1a29.41,29.41,0,0,0,8.39-4.05,52.12,52.12,0,0,0,6.65-5.31,37.16,37.16,0,0,0,5-5.6,28,28,0,0,0,3-5.61,21,21,0,0,0,1.58-8.79,16.06,16.06,0,0,0-.26-2.37l-.11-.6C146.67,131.58,146.66,131.51,146.67,131.51Z" style="fill:#263238"></path><path d="M145.76,143.15l-.21,0-.62,0-2.38.09-8.76.27.14-.11c-.71,2.85-1.54,6.19-2.46,9.85l-.14.59-.22-.57-5.48-14.63c-.6-1.62-1.19-3.22-1.77-4.77l.37,0-5.5,9.91,0,.09h-.11l-15.41.28-4.37.05H97.63a1.79,1.79,0,0,1-.4,0l.4,0,1.16-.05,4.36-.16,15.41-.42-.16.09,5.47-9.92.22-.39.16.42q.87,2.34,1.78,4.77c1.94,5.24,3.79,10.21,5.44,14.65l-.37,0c1-3.66,1.8-7,2.54-9.84l0-.11h.12l8.76-.13,2.39,0h.62C145.69,143.13,145.76,143.14,145.76,143.15Z" style="fill:#fff"></path></g><g id="freepik--Books--inject-55"><path d="M73.38,281.52s-4.32,4.17-.26,11.68a.48.48,0,0,0,.43.18l60.47-.16a11.72,11.72,0,0,0-.32-12.41Z" style="fill:#90CAF9"></path><path d="M135.46,299.67V311h-22V299.67Z" style="fill:#fff"></path><path d="M66.56,298.7c-2,1.42-3.29,8.72-.16,13.17l70.08,0V311H119.59a4.3,4.3,0,0,1-4.3-4.3V304a4.31,4.31,0,0,1,4.3-4.3h16.89v-1.21Z" style="fill:#90CAF9"></path><path d="M135.46,305.49c0,.07-4.51.12-10.08.12s-10.08-.05-10.08-.12,4.51-.11,10.08-.11S135.46,305.43,135.46,305.49Z" style="fill:#e0e0e0"></path><path d="M135.14,308.05c0,.06-4.27.12-9.54.12s-9.54-.06-9.54-.12,4.27-.12,9.54-.12S135.14,308,135.14,308.05Z" style="fill:#e0e0e0"></path><path d="M135.46,310.39c0,.06-3.84.11-8.58.11s-8.57-.05-8.57-.11,3.84-.12,8.57-.12S135.46,310.32,135.46,310.39Z" style="fill:#e0e0e0"></path><path d="M135.46,303.2c0,.06-4.42.11-9.88.11s-9.87-.05-9.87-.11,4.42-.12,9.87-.12S135.46,303.13,135.46,303.2Z" style="fill:#e0e0e0"></path><path d="M135.14,300.9c0,.06-3.93.12-8.79.12s-8.79-.06-8.79-.12,3.94-.12,8.79-.12S135.14,300.83,135.14,300.9Z" style="fill:#e0e0e0"></path><path d="M114.69,298.87a15.58,15.58,0,0,0-1.39,1.65,8.41,8.41,0,0,0,.12,9.73,13,13,0,0,0,1.43,1.62,2.29,2.29,0,0,1-.47-.35,8.13,8.13,0,0,1-1.1-1.17,8.3,8.3,0,0,1-.11-9.92,7.72,7.72,0,0,1,1.06-1.2A2.7,2.7,0,0,1,114.69,298.87Z" style="fill:#e0e0e0"></path><path d="M112.48,298.63a15.58,15.58,0,0,0-1.39,1.65,8.41,8.41,0,0,0,.12,9.73,12.34,12.34,0,0,0,1.43,1.61,2,2,0,0,1-.47-.34,8.31,8.31,0,0,1-1.1-1.18,8.29,8.29,0,0,1-.11-9.91A7.72,7.72,0,0,1,112,299,2.3,2.3,0,0,1,112.48,298.63Z" style="fill:#e0e0e0"></path><path d="M105.31,305.71c0,.07-4.72.12-10.55.12s-10.56-.05-10.56-.12,4.73-.11,10.56-.11S105.31,305.65,105.31,305.71Z" style="fill:#e0e0e0"></path><path d="M129.39,298.7H63.59c-.86-2-1.07-3.81,0-5.48h65.8A6.36,6.36,0,0,1,129.39,298.7Z" style="fill:#455a64"></path><rect x="77.21" y="294.79" width="35.65" height="1.99" style="fill:#ebebeb"></rect><path d="M66.12,298.73a1.84,1.84,0,0,1-.52-.66,4.85,4.85,0,0,1-.35-4,2,2,0,0,1,.39-.75,5.51,5.51,0,0,1-.23.8,5.38,5.38,0,0,0-.18,1.94,5.82,5.82,0,0,0,.51,1.89C66,298.45,66.15,298.71,66.12,298.73Z" style="fill:#e0e0e0"></path><path d="M67.54,298.73a2,2,0,0,1-.52-.66,4.88,4.88,0,0,1-.6-1.95,4.76,4.76,0,0,1,.25-2,1.94,1.94,0,0,1,.4-.75s-.11.31-.24.8a5.44,5.44,0,0,0,.34,3.83C67.38,298.45,67.57,298.71,67.54,298.73Z" style="fill:#e0e0e0"></path><path d="M126.73,298.6a10.58,10.58,0,0,0,.46-2.68,11.13,11.13,0,0,0-.43-2.68,4.9,4.9,0,0,1,.67,2.69A4.8,4.8,0,0,1,126.73,298.6Z" style="fill:#e0e0e0"></path><path d="M125.5,298.59c-.07,0,.21-1.17.2-2.62s-.27-2.61-.2-2.63a6.64,6.64,0,0,1,.44,2.63A6.41,6.41,0,0,1,125.5,298.59Z" style="fill:#e0e0e0"></path><path d="M122.91,299.91a.75.75,0,0,1,.24,0l.71,0,2.74-.05,10.12-.08-.19.19c0-.37,0-.79,0-1.21l.2.2L108,299,77,298.88l-9.38-.08-2.55-.05a4.65,4.65,0,0,1-.89-.05,4.65,4.65,0,0,1,.89-.05l2.55,0,9.38-.08,30.94-.08,28.75.06h.19v1.6h-.18L126.6,300l-2.74-.05-.71,0Z" style="fill:#263238"></path><path d="M66.56,298.7a11.88,11.88,0,0,0-1.41,3.35,15.92,15.92,0,0,0,1.42,9.74l-.17-.1,35.65-.08,34.67.07-.19.19V311l.18.18-10.2-.08-2.75,0-.72,0-.24,0,.24,0,.72,0,2.75,0,10.2-.08h.18v1.22h-.18l-34.67.08-35.65-.08h-.11l-.05-.1A15.81,15.81,0,0,1,65,302,9.12,9.12,0,0,1,66,299.48l.4-.59C66.5,298.76,66.55,298.69,66.56,298.7Z" style="fill:#263238"></path><path d="M129.57,293.34c0,.15-14.63.26-32.68.26s-32.68-.11-32.68-.26,14.63-.26,32.68-.26S129.57,293.2,129.57,293.34Z" style="fill:#263238"></path><path d="M118.81,311a3.44,3.44,0,0,1-1.79-.84,6.13,6.13,0,0,1-1.1-8.7,3.37,3.37,0,0,1,1.52-1.26c.06.07-.56.5-1.22,1.48a6.49,6.49,0,0,0-1.07,4.3,6.42,6.42,0,0,0,2.11,3.89C118.13,310.66,118.85,310.93,118.81,311Z" style="fill:#263238"></path><path d="M135.3,311.08a60.12,60.12,0,0,1,0-11.17,60.12,60.12,0,0,1,0,11.17Z" style="fill:#263238"></path><path d="M77.21,309.91h0A1.88,1.88,0,0,1,75.33,308V302.1a1.88,1.88,0,0,1,1.88-1.89h0a1.88,1.88,0,0,1,1.89,1.89V308A1.88,1.88,0,0,1,77.21,309.91Z" style="fill:#fff"></path><path d="M70.86,311.77A5.26,5.26,0,0,1,69.79,310a12.23,12.23,0,0,1,.06-9.78,5.29,5.29,0,0,1,1.09-1.75,17,17,0,0,1-.75,1.89,14,14,0,0,0-.87,4.75,14.17,14.17,0,0,0,.81,4.75A18.87,18.87,0,0,1,70.86,311.77Z" style="fill:#263238"></path><path d="M72.69,311.77A5.26,5.26,0,0,1,71.62,310a12.29,12.29,0,0,1,0-9.78,5.39,5.39,0,0,1,1.1-1.75,17,17,0,0,1-.75,1.89,13.85,13.85,0,0,0-.06,9.5A18.87,18.87,0,0,1,72.69,311.77Z" style="fill:#263238"></path><rect x="84.89" y="285.69" width="38.26" height="2.41" style="fill:#fff"></rect><path d="M76.91,293.4a4.41,4.41,0,0,1-1-1.57,11.45,11.45,0,0,1-.89-4.35,11.25,11.25,0,0,1,.84-4.36,4.22,4.22,0,0,1,.93-1.58,14.33,14.33,0,0,0,.07,11.86Z" style="fill:#263238"></path><path d="M78.73,293.4a4.41,4.41,0,0,1-1-1.57,11.26,11.26,0,0,1-.89-4.35,11.45,11.45,0,0,1,.83-4.36,4.39,4.39,0,0,1,.93-1.58,18,18,0,0,0-1.24,5.94A17.57,17.57,0,0,0,78.73,293.4Z" style="fill:#263238"></path><path d="M129.59,293.7a15.34,15.34,0,0,0,.08-12.89,4.93,4.93,0,0,1,1,1.73,12.14,12.14,0,0,1,.91,4.73,12.41,12.41,0,0,1-1,4.72A5,5,0,0,1,129.59,293.7Z" style="fill:#263238"></path><path d="M127.62,293.7a15.44,15.44,0,0,0,.08-12.89,5.13,5.13,0,0,1,1,1.73,12.47,12.47,0,0,1-.06,9.45A5.16,5.16,0,0,1,127.62,293.7Z" style="fill:#263238"></path></g><g id="freepik--speech-bubble--inject-55"><path d="M300.55,138.67l1.28-8.12a25.92,25.92,0,1,1,6.21,6.91h0Z" style="fill:#fff"></path><path d="M300.55,138.67l.5-.1,1.45-.25,5.53-.95-.06.17h0a.1.1,0,0,1,0-.15.11.11,0,0,1,.13,0,26,26,0,0,0,11.5,5,25.31,25.31,0,0,0,4,.33,27.25,27.25,0,0,0,4.26-.34,25.67,25.67,0,0,0,8.8-3.1,25.59,25.59,0,0,0,12-28.73,24.57,24.57,0,0,0-5.92-10.83,25.82,25.82,0,0,0-4.71-4,27.14,27.14,0,0,0-2.66-1.52L334,93.46c-.47-.2-.95-.36-1.42-.54a25.46,25.46,0,0,0-22,2.18,25.75,25.75,0,0,0-8.67,35.4.09.09,0,0,1,0,.07c-.44,2.6-.78,4.61-1,6-.12.67-.21,1.19-.28,1.57s-.1.54-.1.54,0-.16.06-.51.12-.88.22-1.54c.2-1.4.5-3.44.89-6.08l0,.07a25.66,25.66,0,0,1-3.86-12.11,26.07,26.07,0,0,1,45.23-19.17,25.2,25.2,0,0,1,6,11.07,26.1,26.1,0,0,1-12.29,29.23,26,26,0,0,1-9,3.11,28,28,0,0,1-4.32.32,25.79,25.79,0,0,1-15.6-5.51l.15-.15h0a.12.12,0,0,1,0,.15l-.05,0-5.63.83-1.42.2Z" style="fill:#263238"></path><path d="M324.31,111.44V125.7H321V114.09h-2.85v-2.65Z" style="fill:#263238"></path><path d="M326.49,113.78c0-2,1.63-3.36,3.87-3.36s3.85,1.41,3.85,3.36-1.61,3.39-3.85,3.39S326.49,115.76,326.49,113.78Zm5.56,0a1.7,1.7,0,0,0-3.4,0,1.7,1.7,0,0,0,3.4,0Z" style="fill:#263238"></path></g><g id="freepik--Character--inject-55"><path d="M184.36,177.82a4.11,4.11,0,0,0-2.08,1.51,3.48,3.48,0,0,0-.29,2.4,7.74,7.74,0,0,0,2.73,4.93l6.35,6.17,1.3,9,11.43-.27-3-15.14s-.06-2.28,0-3.18a19.72,19.72,0,0,0-.68-3.34s-2.78-5.56-3.25-8.35-4-9.79-5.19-11.74-2.76-.13-2.44,1.7,2.37,5.49,2.74,9c0,0,0,1.18-.78.6a2.82,2.82,0,0,0-3.52,1.5,3,3,0,0,0-.26,1.29c0,.43-.06,1-.36,1a2.89,2.89,0,0,0-1.76.55C184.5,176.06,184.36,177.82,184.36,177.82Z" style="fill:#9e5f5a"></path><path d="M187.91,175.23c.66,2.54,1.33,5.08,2,7.62a4.75,4.75,0,0,0,1,2.14,1.82,1.82,0,0,0,2.22.41,1.7,1.7,0,0,0,.69-1.34,4.93,4.93,0,0,0-.25-1.51c-.86-3.23-1.56-6.51-2.1-9.81" style="fill:#9e5f5a"></path><path d="M191.43,172.74s0,.08.07.25.09.44.14.74c.14.67.33,1.59.55,2.71s.55,2.5.92,4c.19.75.39,1.53.61,2.34a4,4,0,0,1,.18,1.3,1.89,1.89,0,0,1-.55,1.27,1.56,1.56,0,0,1-1.33.38,2.2,2.2,0,0,1-1.19-.61,4.64,4.64,0,0,1-1-2.23c-.38-1.49-.73-2.83-1-4s-.5-2-.66-2.68c-.07-.3-.13-.54-.17-.74a.74.74,0,0,1,0-.26.9.9,0,0,1,.09.25l.21.72c.19.66.44,1.57.74,2.67l1.07,4a4.59,4.59,0,0,0,1,2.12,2,2,0,0,0,1.06.53,1.3,1.3,0,0,0,1.12-.31,1.6,1.6,0,0,0,.47-1.1,4,4,0,0,0-.16-1.23c-.22-.81-.42-1.6-.6-2.35-.36-1.5-.65-2.87-.87-4s-.37-2.09-.47-2.73c-.05-.33-.08-.58-.1-.75A1,1,0,0,1,191.43,172.74Z" style="fill:#714240"></path><path d="M198.26,179.45a35.12,35.12,0,0,1-3.54-.7,2.18,2.18,0,0,0-2,.43,1.77,1.77,0,0,0-.2,1.73,4.07,4.07,0,0,0,1.39,1.82,4.49,4.49,0,0,0,.75.47,3.22,3.22,0,0,0,.86.23.48.48,0,0,1,.26.09,2.59,2.59,0,0,1,.34.58,3.56,3.56,0,0,0,1.25,1.22,3,3,0,0,0,.36.19" style="fill:#9e5f5a"></path><path d="M197.71,185.51l-.15,0a2.64,2.64,0,0,1-.39-.19,3.4,3.4,0,0,1-1.15-1.12c-.09-.16-.15-.33-.24-.46a.32.32,0,0,0-.17-.14l-.27,0a2.76,2.76,0,0,1-1.2-.47,4.17,4.17,0,0,1-1.81-2.27,1.89,1.89,0,0,1,.18-1.54,1.67,1.67,0,0,1,1.29-.65,4.3,4.3,0,0,1,1.28.14c.39.08.74.18,1.07.26.65.16,1.17.29,1.54.36a4.11,4.11,0,0,1,.57.11,1.57,1.57,0,0,1-.59,0c-.37,0-.91-.14-1.56-.28l-1.07-.23a4.4,4.4,0,0,0-1.22-.11,1.43,1.43,0,0,0-1.11.56,1.64,1.64,0,0,0-.14,1.33,4,4,0,0,0,1.69,2.15,2.5,2.5,0,0,0,1.12.45,2.48,2.48,0,0,1,.3.07.48.48,0,0,1,.25.21c.11.17.16.34.24.48a3.76,3.76,0,0,0,1.05,1.13A5.56,5.56,0,0,1,197.71,185.51Z" style="fill:#714240"></path><path d="M195.92,172.83a5.64,5.64,0,0,1-1.15,2.41,5.77,5.77,0,0,1-2,1.8c0-.06.91-.78,1.78-1.95A25.18,25.18,0,0,0,195.92,172.83Z" style="fill:#714240"></path><path d="M192.12,185.7s0,0,.12.11a2.38,2.38,0,0,1,.27.37,1.35,1.35,0,0,1,.22.7,1,1,0,0,1-.55.82,2.75,2.75,0,0,1-2.46-.19,6.92,6.92,0,0,1-2.19-2.1,17.7,17.7,0,0,1-1.65-2.55,9.54,9.54,0,0,1-.86-2.32,7.06,7.06,0,0,1-.16-1.67,2.17,2.17,0,0,1,.08-.6,10.11,10.11,0,0,0,.26,2.23,9.75,9.75,0,0,0,.88,2.26,19.4,19.4,0,0,0,1.64,2.5,7.05,7.05,0,0,0,2.11,2.05,2.57,2.57,0,0,0,2.27.23.85.85,0,0,0,.49-.66,1.43,1.43,0,0,0-.17-.66C192.25,185.88,192.11,185.71,192.12,185.7Z" style="fill:#714240"></path><path d="M187.86,177.11c.07,0,.32.85.75,1.88a15.55,15.55,0,0,1,.78,1.86,5.64,5.64,0,0,1-1-1.77A5.3,5.3,0,0,1,187.86,177.11Z" style="fill:#714240"></path><path d="M189.25,187.07s-.12.2-.42.4a2.33,2.33,0,0,1-1.37.3,2.63,2.63,0,0,1-1.32-.47c-.3-.21-.42-.41-.4-.42s.19.11.49.27a3.25,3.25,0,0,0,1.25.37,2.67,2.67,0,0,0,1.27-.21C189.05,187.17,189.22,187,189.25,187.07Z" style="fill:#714240"></path><path d="M296.06,158.46c-.12-1.43.48-3-.1-4.27-1-2.18-4.26-2.14-5.86-3.93-2.28-2.56.12-7.22-2.23-9.72-2.07-2.21-4.89-1.92-6.7-4.35-.92-1.23,0-4-3.1-5.22-1.95-.77-4.56-.55-6.54-1.25-2.85-1-3.73-3-6.64-3.86-3.48-1-6.5,3.13-10.12,3.19-3.16.06-6.23-3-9.1-1.68-2.3,1-2.76,4.31-5,5.57-1.91,1.09-4.65.38-6.23,1.9s-.84,4.59-2.23,6.45-4.6,2-5.41,4.2c-1,2.53,2.37,5.18,1.47,7.73a8.36,8.36,0,0,1-2,2.49,6.85,6.85,0,0,0-1.51,6.22,7,7,0,0,0,4.38,4.72l38.47,12.53a18.47,18.47,0,0,0,15.12,1.91,10.41,10.41,0,0,0,4.52-2.63c1.45-1.55,2.16-3.71,3.77-5.11,1.35-1.18,3.16-1.68,4.81-2.41s3.31-1.91,3.67-3.66C300.18,164.12,296.34,161.67,296.06,158.46Z" style="fill:#263238"></path><path d="M269.39,137.79c2.25-1.42,2.79-4.73,1.57-7.1a8.69,8.69,0,0,0-6.43-4.23A12.26,12.26,0,0,0,254,130c-1.45,1.49-2.63,3.44-4.59,4.12-1.73.61-3.64.06-5.46.3a8.22,8.22,0,0,0-5.77,4.16,17.89,17.89,0,0,0-2,7c-.26,2.23-.43,4.69-2,6.32s-3.9,1.93-5.78,3.06A7.91,7.91,0,0,0,226,165.74c.74,1.09,1.81,2.08,1.9,3.4s-.7,2.27-1.06,3.41a5.34,5.34,0,0,0,4.57,6.64c1.56.09,3.23-.52,4.63.18s1.91,2.37,2.8,3.64a6.67,6.67,0,0,0,8.14,2.1c1.15-.56,2.24-1.49,3.51-1.4s2.28,1.17,3.53,1.41c1.64.32,3.19-.89,4.17-2.24s1.65-3,2.9-4.07c1.64-1.45,3.93-1.81,6-2.52a16.92,16.92,0,0,0,9.55-23.7" style="fill:#263238"></path><path d="M275.26,191.07l2.39-43.83a3.71,3.71,0,0,0-3.22-3.87l-19.6-5.55c-6.3-.85-10.72,6.82-11.3,13.15-.65,7-1.16,15.65-.47,20.94,1.38,10.62,9.45,12.19,9.45,12.19s-.2,9.53-.27,13.38L255,233Z" style="fill:#9e5f5a"></path><path d="M245.25,159.4a1.37,1.37,0,0,0,1.27,1.41,1.29,1.29,0,0,0,1.43-1.18,1.35,1.35,0,0,0-1.26-1.41A1.31,1.31,0,0,0,245.25,159.4Z" style="fill:#263238"></path><path d="M245.27,155.51c.16.18,1.21-.55,2.67-.5s2.51.8,2.67.63-.08-.4-.54-.76a3.68,3.68,0,0,0-2.13-.72,3.57,3.57,0,0,0-2.13.62C245.35,155.11,245.19,155.43,245.27,155.51Z" style="fill:#263238"></path><path d="M258.84,159.4a1.37,1.37,0,0,0,1.27,1.41,1.31,1.31,0,0,0,1.44-1.18,1.37,1.37,0,0,0-1.27-1.41A1.31,1.31,0,0,0,258.84,159.4Z" style="fill:#263238"></path><path d="M259.61,156.19c.16.18,1.21-.55,2.67-.5s2.51.8,2.67.63-.08-.4-.54-.76a3.71,3.71,0,0,0-2.13-.72,3.57,3.57,0,0,0-2.13.62C259.69,155.79,259.53,156.11,259.61,156.19Z" style="fill:#263238"></path><path d="M254,166.86a9.94,9.94,0,0,0-2.35-.49c-.38-.05-.73-.14-.78-.39a1.93,1.93,0,0,1,.28-1.1l1.18-2.81c1.65-4,2.85-7.28,2.69-7.35s-1.63,3.12-3.27,7.12l-1.14,2.83a2.19,2.19,0,0,0-.24,1.45,1,1,0,0,0,.6.57,2.71,2.71,0,0,0,.63.1A9.09,9.09,0,0,0,254,166.86Z" style="fill:#263238"></path><path d="M252.51,184.1a26.84,26.84,0,0,0,14.27-3.37s-3.65,7.17-14.2,5.88Z" style="fill:#714240"></path><path d="M254.12,170.34a12.52,12.52,0,0,1,4.25-1.86c.76-.06.25.8.64,1.47a2.15,2.15,0,0,1-2.49,3.15,5.44,5.44,0,0,1-2.11-1.39,1.74,1.74,0,0,1-.45-.56.75.75,0,0,1,.08-.74" style="fill:#714240"></path><path d="M259.13,150.16c.14.4,1.6.26,3.31.51s3.07.76,3.31.41c.11-.16-.12-.54-.67-.94a5.63,5.63,0,0,0-2.44-.94,5.51,5.51,0,0,0-2.6.24C259.4,149.67,259.08,150,259.13,150.16Z" style="fill:#263238"></path><path d="M245.93,150.5c.24.34,1.26,0,2.47,0s2.23.29,2.47,0c.11-.17,0-.5-.48-.83a3.47,3.47,0,0,0-2-.6,3.35,3.35,0,0,0-2,.61C246,150,245.82,150.34,245.93,150.5Z" style="fill:#263238"></path><path d="M236.4,148.75a7.24,7.24,0,0,1,2.79-4c.76-.5,1.64-.8,2.35-1.37,1.53-1.24,1.88-3.38,2.83-5.11a8,8,0,0,1,6.08-4c2.1-.22,4.26.41,6.3-.1,1.51-.38,2.83-1.36,4.36-1.65,3-.57,5.75,1.57,7.91,3.7,0,2.13-1.69,3.55-3.33,4.92a7.36,7.36,0,0,1-6,1.58c-1.63-.29-3.41-1.12-4.82-.25s-1.54,3.15-2.85,4.29c-1.88,1.63-4.87.1-7.25.8-1.84.55-3,2.31-4.22,3.79s-3.05,2.89-4.89,2.34A21.34,21.34,0,0,1,236.4,148.75Z" style="fill:#263238"></path><path d="M258.77,139.74c1.33-.39,4.06-1.25,4.78-2.41a8.19,8.19,0,0,1,7.1-4.08,6.75,6.75,0,0,1,6.07,5.33,9.65,9.65,0,0,1,8.32,5.36,9.06,9.06,0,0,1,.53,1.24,7.38,7.38,0,0,1,.5,6.19c-.47,1.2-1.25,2.54-.63,3.68s2.22,1.19,3.47,1.61a4.9,4.9,0,0,1,3.08,5.47,6,6,0,0,0-.39,2.41,5.22,5.22,0,0,0,1.44,2.08,6.09,6.09,0,0,1-3.57,9.91,7.91,7.91,0,0,0-2.8.64c-.95.58-1.36,1.72-2,2.6a5.25,5.25,0,0,1-5.7,1.78,4.51,4.51,0,0,1-1.14-.57,3.79,3.79,0,0,1-3.34,1.48l.39-22.3a1.85,1.85,0,0,1-1.35,1.06c-3.58.81-4.11-6.57-3.31-8.57a20.71,20.71,0,0,1-3.59-3.77,15,15,0,0,1-1.65-7.24C263.67,141.72,258.18,139.9,258.77,139.74Z" style="fill:#263238"></path><path d="M273.87,162c.12-2.26,2.89-2.75,4.85-1.61,1.08.62,1.91,1.88,1.81,4.28-.27,6.42-6.65,4.83-6.66,4.64S273.74,164.63,273.87,162Z" style="fill:#9e5f5a"></path><path d="M275.93,166.93s.11.09.3.18a1.12,1.12,0,0,0,.83,0,2.76,2.76,0,0,0,1.38-2.43,3.82,3.82,0,0,0-.24-1.61,1.28,1.28,0,0,0-.81-.89.56.56,0,0,0-.67.28c-.09.17-.06.3-.09.31s-.14-.11-.07-.37a.68.68,0,0,1,.26-.39.83.83,0,0,1,.63-.14,1.58,1.58,0,0,1,1.13,1,3.78,3.78,0,0,1,.31,1.8,2.91,2.91,0,0,1-1.74,2.71,1.2,1.2,0,0,1-1-.21C275.94,167.09,275.91,167,275.93,166.93Z" style="fill:#714240"></path><path d="M256.89,173s.17-.07.47-.11a2.86,2.86,0,0,0,1.15-.37c1.05-.51.25-2.2.07-3.78,0-.09-.05-.12,0-.09s0,0,0,0l-.12,0h0c.06.3-.46-.43-.22-.41l0,0,0,0h.06l.07,0,.07,0s0,0,0,0h0c0-.1.37.83.18.44h0l-.27.12-1.05.43-1.78.71a6.69,6.69,0,0,1-1.69.54,6.55,6.55,0,0,1,1.55-.85l1.74-.81,1-.46.27-.12h0c-.17-.39.23.54.2.44h0l-.07,0-.07,0h-.05a.36.36,0,0,0,0-.11l-.06-.09c.05,0,0-.08,0-.1-.06-.21,0-.12,0-.14h0l.17-.05a.57.57,0,0,1,.31,0,.59.59,0,0,1,.29.42c.13.82.26,1.59.38,2.33a2.13,2.13,0,0,1-.07,1.12,1.52,1.52,0,0,1-.68.73,2.56,2.56,0,0,1-1.33.27C257.05,173.07,256.89,173,256.89,173Z" style="fill:#263238"></path><path d="M292.66,434c-.15,1.14-2.94,32.76-2.94,32.76H275.23l-2.54-32.62Z" style="fill:#9e5f5a"></path><path d="M275.2,462.09s10.17,7.22,15.09,1l1.29,3,5.79,21.57a2.9,2.9,0,0,1-1.63,3.47,2.79,2.79,0,0,1-3-.57c-4.19-4-19.51-18.7-19.36-20.69l.06-5.3a2.7,2.7,0,0,1,1.72-2.48Z" style="fill:#455a64"></path><path d="M295.24,491.27,273.42,468v1.16a3.19,3.19,0,0,0,1,2.55c1.76,2.39,6.65,7.71,18.24,18.83a2.76,2.76,0,0,0,2.54.71Z" style="fill:#263238"></path><path d="M276.61,464.58a1.69,1.69,0,0,1,.48,2.21,1.64,1.64,0,0,1-2.19.48,1.78,1.78,0,0,1-.49-2.34,1.68,1.68,0,0,1,2.33-.25" style="fill:#fff"></path><path d="M289,479.37a8.3,8.3,0,0,1,2.39-2.14,8.56,8.56,0,0,1,3.14-.61c0-.07-.33-.28-1-.37a4.35,4.35,0,0,0-2.44.44,4.4,4.4,0,0,0-1.83,1.69C288.92,478.94,288.88,479.34,289,479.37Z" style="fill:#263238"></path><path d="M290.91,483a20.45,20.45,0,0,1,2.41-1.19,22.92,22.92,0,0,1,2.67-.35c.08-.14-1.24-.72-2.84-.22S290.77,482.94,290.91,483Z" style="fill:#263238"></path><path d="M285.31,474.69c.13.13,1.46-1.25,3.6-2.08s4-.77,4-1a6.27,6.27,0,0,0-4.27.41A6.21,6.21,0,0,0,285.31,474.69Z" style="fill:#263238"></path><path d="M284.82,468.12c.08.17,1.58-.47,3.55-.55s3.52.39,3.58.22a5.44,5.44,0,0,0-3.61-.82A5.5,5.5,0,0,0,284.82,468.12Z" style="fill:#263238"></path><path d="M289.48,467.51a2.22,2.22,0,0,0-.15-1A7.25,7.25,0,0,0,288,464a3.22,3.22,0,0,0-1.63-1.24,1.12,1.12,0,0,0-1.2.48,1.83,1.83,0,0,0-.19,1.29,4,4,0,0,0,4.08,3,4.59,4.59,0,0,0,4-3.19,1.61,1.61,0,0,0-.17-1.31,1.11,1.11,0,0,0-1.25-.36,3.81,3.81,0,0,0-1.59,1.25,7.84,7.84,0,0,0-1.44,2.42,2.35,2.35,0,0,0-.24,1,12.7,12.7,0,0,1,2-3.15,3.69,3.69,0,0,1,1.42-1.06.59.59,0,0,1,.68.2,1.09,1.09,0,0,1,.06.87,4.1,4.1,0,0,1-3.49,2.72,3.43,3.43,0,0,1-3.5-2.46,1.37,1.37,0,0,1,.1-.91.61.61,0,0,1,.66-.27,2.82,2.82,0,0,1,1.39,1A10.34,10.34,0,0,1,289.48,467.51Z" style="fill:#263238"></path><polygon points="213.1 423.75 215.59 464.12 233.14 464 236.1 422.06 213.1 423.75" style="fill:#9e5f5a"></polygon><path d="M215.28,459.25v1.17s-19.82,7.86-20,11.61l39.28,0L234,458.92A22.48,22.48,0,0,1,215.28,459.25Z" style="fill:#455a64"></path><path d="M230,463.1a1.61,1.61,0,0,1,1.12,1.83,1.55,1.55,0,0,1-1.81,1.12,1.69,1.69,0,0,1-1.16-1.94,1.6,1.6,0,0,1,2-1" style="fill:#fff"></path><path d="M234.51,472l-.14-3.14L196.78,470s-1.75.76-1.55,2Z" style="fill:#263238"></path><path d="M215.13,460.53c0,.19,1,.27,1.91.89s1.45,1.42,1.62,1.35-.11-1.19-1.26-1.91S215.09,460.35,215.13,460.53Z" style="fill:#263238"></path><path d="M211,462.24c0,.18.79.51,1.44,1.32s.84,1.67,1,1.66.31-1.1-.52-2.09S211,462.05,211,462.24Z" style="fill:#263238"></path><path d="M208.68,467.17c.17,0,.44-.92-.06-2s-1.39-1.47-1.47-1.31.48.72.87,1.59S208.49,467.15,208.68,467.17Z" style="fill:#263238"></path><path d="M236.1,298.82c-.52,1.51-21.33,72-21.33,72l-3.58,83.63,25.9,1.5,9.27-83.5L270,320.21l-10.39-42.48H238.46Z" style="fill:#263238"></path><path d="M254.53,277.73c.37,1,13.64,48.84,13.64,48.84l1.84,71.3v59h23.6l11-130.1s1.94-23.6-1.37-31.59-16.77-21.91-16.77-21.91Z" style="fill:#263238"></path><path d="M256.43,282.62a13.23,13.23,0,0,1,.53,1.67c.34,1.17.79,2.71,1.34,4.57l4.52,15c1.75,5.89,3.17,11.27,4,15.21.42,2,.71,3.58.87,4.69a12.69,12.69,0,0,1,.2,1.74,10.38,10.38,0,0,1-.41-1.7c-.22-1.1-.56-2.69-1-4.64-.92-3.91-2.4-9.26-4.14-15.15S259,292.85,257.93,289c-.53-1.94-.92-3.52-1.17-4.62A9.91,9.91,0,0,1,256.43,282.62Z" style="fill:#455a64"></path><path d="M264.57,282.62a3.11,3.11,0,0,0-1.48,1.07,1.88,1.88,0,0,0-.2,1.8,2,2,0,0,0,3.61.17,1.91,1.91,0,0,0,0-1.82,3,3,0,0,0-1.37-1.19s.2-.06.54.06a2.31,2.31,0,0,1,1.16.94,2.27,2.27,0,0,1,.15,2.23,2.42,2.42,0,0,1-4.51-.21,2.21,2.21,0,0,1,.36-2.2,2.28,2.28,0,0,1,1.24-.84C264.37,282.55,264.57,282.59,264.57,282.62Z" style="fill:#455a64"></path><path d="M285.52,317a1.65,1.65,0,0,1,0,.36c0,.26,0,.61,0,1.05,0,1,0,2.32,0,4.05,0,3.52,0,8.61-.12,14.91-.18,12.58-.75,30-1.48,49.14s-1.36,36.56-1.65,49.14c-.14,6.29-.24,11.38-.28,14.89,0,1.74-.05,3.1-.07,4.05,0,.44,0,.79,0,1.06a1.65,1.65,0,0,1,0,.36,1.65,1.65,0,0,1,0-.36c0-.27,0-.62,0-1.06q0-1.44,0-4.05c0-3.52,0-8.61.12-14.9.18-12.58.75-30,1.48-49.15s1.36-36.55,1.65-49.13c.14-6.29.24-11.38.28-14.9,0-1.73.05-3.09.07-4.05,0-.44,0-.79,0-1.05A1.65,1.65,0,0,1,285.52,317Z" style="fill:#455a64"></path><path d="M249.11,308.38a1.8,1.8,0,0,1-.12.37l-.4,1.06L247,313.86c-1.41,3.54-3.44,8.6-5.94,14.86S235.69,342.51,233,351a144.32,144.32,0,0,0-6.53,28.21c-.53,5.12-.77,10.15-1.09,15s-.51,9.54-.75,14c-.46,8.91-.88,17-1.23,23.7s-.72,12.21-1,16c-.15,1.86-.27,3.31-.35,4.33-.05.48-.08.85-.11,1.13a2.91,2.91,0,0,1,0,.38,1.83,1.83,0,0,1,0-.38c0-.29,0-.66,0-1.13.06-1,.15-2.49.25-4.35.22-3.77.52-9.23.84-16s.69-14.79,1.1-23.71c.24-4.46.48-9.14.73-14s.54-9.88,1.08-15a142,142,0,0,1,6.59-28.31c2.77-8.5,5.72-16,8.23-22.27s4.65-11.31,6.1-14.8c.72-1.72,1.28-3.07,1.68-4l.45-1A1.61,1.61,0,0,1,249.11,308.38Z" style="fill:#455a64"></path><path d="M284.7,193.56s14,2.62,17.13,5.19S333,238,333.61,245.39s-2.84,10.12-4.79,11.88-35.54,24.56-35.54,24.56L283,264.68l28.19-18.5-14.8-20.6Z" style="fill:#455a64"></path><path d="M252.29,195.08l2.12,34,19-38.08,12.25,12.44s7.52,44.48,7.63,44.79-5.15,25.44-5.15,25.44l-34.81,6.73-10.61-2.7L241,238.18,240.1,200Z" style="fill:#fff"></path><path d="M246.18,196.78l-9,2.1a9.1,9.1,0,0,0-3.27,1.65c-10.16,7.43-23,15.38-23,15.38L205,193.85l-17.26,1s2.23,30.28,4.48,39.39c2.29,9.28,9.14,11.89,21.59,6.76a164.12,164.12,0,0,0,22.28-11Z" style="fill:#455a64"></path><path d="M296.58,223.46l-1.65,29.62,1.66,5.76s15.59,29.42,18.12,48.9l-19.29,3.12s-5.26-25.13-9-37.6-14.61-17.74-18.32-30.59a59.49,59.49,0,0,1-2.34-22.61c0-.78,7.6-29,7.6-29l2-5.3,6.19,5.89,17.53,5.84Z" style="fill:#455a64"></path><g style="opacity:0.30000000000000004"><path d="M305.78,278.53a101.33,101.33,0,0,1-10,6.8,7.69,7.69,0,0,1-.77.33,3.09,3.09,0,0,1-3.78-1.42c-.41-.75-.83-1.55-1.11-2.14-.71-1.53-1.47-3.37-2.16-5l2.16-.53,3.15,5.22,9.07-6.22,1.73-1.18Z"></path></g><path d="M252.38,189.41l-4.46,6.49L236.54,200s-2.49,27.58-1.15,33.92c1.3,6.1,3.77,15.79,4,24.56s-9.81,55.13-9.81,55.13l12.11,4.59s6.18-53.67,5-65.36,1.92-35.29,1.92-35.29Z" style="fill:#455a64"></path><path d="M273.79,248.9a3.62,3.62,0,0,1-.45-.49,10.31,10.31,0,0,1-1-1.58,16.1,16.1,0,0,1-1.56-6.75,63.18,63.18,0,0,1,.71-10.26A89.41,89.41,0,0,1,274,217.49a91,91,0,0,1,8.25-20l.17.3-4.29-.14h-.31l.18-.24c1.18-1.59,2.12-2.86,2.82-3.79l.76-1c.18-.22.27-.33.29-.32a2.36,2.36,0,0,1-.22.37c-.18.28-.41.62-.7,1l-2.69,3.87-.13-.25,4.29.06h.33l-.16.29a97.16,97.16,0,0,0-8.08,19.92A94.9,94.9,0,0,0,272,229.89a67.27,67.27,0,0,0-.82,10.18,16.48,16.48,0,0,0,1.37,6.66A22.68,22.68,0,0,0,273.79,248.9Z" style="fill:#263238"></path><path d="M285.65,221.54a18.35,18.35,0,0,1-5,.94,18.11,18.11,0,0,1-5.05.07,35,35,0,0,1,5-.6A34.13,34.13,0,0,1,285.65,221.54Z" style="fill:#263238"></path><path d="M298,214.67a8.64,8.64,0,0,1-.21,1.5c-.14,1-.31,2.36-.48,4.1-.33,3.47-.66,8.27-1,13.58s-.61,10-.82,13.6c-.12,1.74-.23,3.15-.31,4.12a8.09,8.09,0,0,1-.21,1.51,8.55,8.55,0,0,1,0-1.52c0-1.08.08-2.46.14-4.13.13-3.48.35-8.3.67-13.61s.72-10.13,1.15-13.59c.21-1.74.44-3.13.64-4.09A8.42,8.42,0,0,1,298,214.67Z" style="fill:#263238"></path><path d="M245.43,235a8.1,8.1,0,0,1,0-1.51c0-1.07.08-2.45.14-4.1.14-3.46.37-8.24.66-13.52s.59-10.06.83-13.51c.12-1.65.22-3,.31-4.09a8.89,8.89,0,0,1,.18-1.5,8.1,8.1,0,0,1,0,1.51c0,1.07-.08,2.45-.14,4.1-.14,3.46-.37,8.24-.66,13.52s-.58,10-.82,13.51c-.13,1.65-.23,3-.31,4.09A8.32,8.32,0,0,1,245.43,235Z" style="fill:#263238"></path><g style="opacity:0.30000000000000004"><path d="M272.38,246.68a40.07,40.07,0,0,1,1.19-13.15,128.69,128.69,0,0,1,13-34.38,3.82,3.82,0,0,0-4.38.5,10.54,10.54,0,0,0-2.62,3.88,95.21,95.21,0,0,0-8.48,30.74,29.13,29.13,0,0,0-.15,6.21c.2,2.15.2,4.42,1.54,6.12"></path></g><g style="opacity:0.30000000000000004"><path d="M234.76,212.76c-3.19,5.55-2.77,12.24.29,17.87,0-6.2,0-11.57-.37-17.79"></path></g><path d="M276.38,168.59a1.84,1.84,0,0,0-1.93-1.17h0a1.58,1.58,0,0,0-1.13.71,1.82,1.82,0,0,0,.19,2.16,1.76,1.76,0,0,0,2.13.32A1.7,1.7,0,0,0,276.38,168.59Z" style="fill:#fff"></path><path d="M283.4,265.7l-11.89-10.54-10.05.87s.35,1.64,1.73,1.9,6.41.35,6.41.35l2.36,2.34-6-.61-7.62,4.5s-.17,1.39,1.82,1a39.43,39.43,0,0,0,5.8-1.9l4.44.26-4.84.69L259.3,269a3.26,3.26,0,0,0,3.29.86c2-.6,4.41-1.56,4.41-1.56l5.46-.52L267,269.19l-4.07,5a2.3,2.3,0,0,0,2.63,0,24.84,24.84,0,0,0,2.31-1.82l6.06-.26s6.7,4.85,9,5.37,7.18-.89,7.18-.89Z" style="fill:#9e5f5a"></path><path d="M327.12,258.55l-.16.14-.48.36-1.89,1.35-7.08,5L293.42,282l-.22.15-.14-.23-4.41-7.31c-2-3.4-4-6.71-5.92-9.84l-.12-.21.2-.13,22.77-15,6.68-4.35,1.81-1.15a3.28,3.28,0,0,1,.64-.37,4.74,4.74,0,0,1-.59.44l-1.76,1.22-6.6,4.48-22.67,15.16.08-.34c1.88,3.13,3.88,6.43,5.93,9.83l4.4,7.32-.37-.08,24.19-16.53,7.16-4.84,1.95-1.28.51-.32Z" style="fill:#263238"></path><path d="M235,210.82a7.35,7.35,0,0,1,0,1.37c0,1,0,2.23,0,3.72,0,3.15,0,7.49.28,12.27a99.76,99.76,0,0,0,1.5,12.15c.3,1.54.56,2.79.76,3.64a7.89,7.89,0,0,1,.25,1.35,6.62,6.62,0,0,1-.45-1.3c-.26-.84-.57-2.07-.92-3.61a81,81,0,0,1-1.66-12.2,121.11,121.11,0,0,1-.13-12.3c.06-1.58.13-2.85.2-3.73A6.76,6.76,0,0,1,235,210.82Z" style="fill:#263238"></path><path d="M267.89,251.35a7.3,7.3,0,0,1-2.41-.32,15.84,15.84,0,0,1-9.36-6.82,6.81,6.81,0,0,1-1-2.2c.08,0,.49.79,1.35,2a18.44,18.44,0,0,0,4,4.07,18.08,18.08,0,0,0,5.12,2.59C267,251.12,267.91,251.26,267.89,251.35Z" style="fill:#263238"></path></g></svg>