<svg width="383" height="389" viewBox="0 0 383 389" fill="none" xmlns="http://www.w3.org/2000/svg">
<path d="M260.049 0H243.346C243.346 0 203.676 68.9522 188.166 78.4102C172.657 87.8682 99.283 98.9364 44.1038 98.9364C-11.0755 98.9364 1.15343 122.344 1.15343 122.344C1.15343 122.344 76.3165 163.227 125.232 177.262C174.148 191.296 188.166 180.313 201.887 199.229C215.607 218.145 184.885 229.129 158.936 263.605C132.987 298.081 44.1038 389 44.1038 389H320L292.261 263.605C292.261 263.605 292.261 207.162 277.05 191.602C261.838 176.042 215.607 163.227 200.395 163.227C185.184 163.227 125.232 153.769 125.232 153.769C125.232 153.769 60.8067 135.158 34.8575 122.344C8.90833 109.53 132.987 105.259 132.987 105.259C132.987 105.259 200.395 97.3263 215.607 87.8682C230.818 78.4102 260.049 0 260.049 0Z" fill="url(#paint0_linear_20_155)"/>
<path fill-rule="evenodd" clip-rule="evenodd" d="M148.494 264.648C154.017 264.648 158.494 269.125 158.494 274.648V315.664L169 353.926L138.984 330.737H94C88.4771 330.737 84 326.26 84 320.737V274.648C84 269.125 88.4771 264.648 94 264.648H148.494Z" fill="#D9D9D9"/>
<path d="M60.3148 359.903C61.7423 362.018 62.4378 362.232 62.9938 365.623C64.6098 375.524 62.3628 371.182 62.0501 374.014C61.7423 376.846 61.449 381.275 60.7093 383.181C59.9647 385.076 51.2027 388.355 49.6925 386.194C48.1785 384.037 46.3556 377.633 50.7708 374.902C55.1783 372.175 60.3148 359.903 60.3148 359.903Z" fill="#002237"/>
<path d="M52.0483 286.487C52.0483 286.487 44.3271 290.643 47.032 316.03C49.4483 338.727 55.693 352.526 53.7124 362.414C51.7174 372.301 47.1897 378.887 51.2778 381.635C55.3621 384.38 59.7513 375.909 61.1672 370.234C62.6822 364.127 63.5836 350.683 65.2486 338.01C66.9089 325.277 71.7752 305.572 68.6191 291.843C65.4698 278.11 52.0483 286.487 52.0483 286.487Z" fill="#E1A185"/>
<path d="M87.0974 377.272C87.0974 377.272 87.864 386.398 90.1485 387.576C92.4292 388.757 101.553 383.852 100.452 377.272C99.355 370.682 96.5626 368.952 97.4081 365.647C98.2536 362.354 89.9802 354.337 88.5402 355.677C87.1051 357.001 87.0974 377.272 87.0974 377.272Z" fill="#002237"/>
<path d="M80.5227 291.703C80.5227 291.703 72.7515 308.205 72.7515 310.407C72.7515 312.604 83.0477 321.56 85.0764 332.563C87.1051 343.569 88.6268 355.044 89.8109 356.924C90.9941 358.812 97.4081 367.459 97.4081 373.591C97.4081 379.72 92.6851 382.709 89.9802 381.765C87.2744 380.821 82.7207 364.633 81.8752 358.97C81.0296 353.317 53.495 319.83 53.1564 313.233C52.8188 306.632 51.8039 293.895 51.8039 293.895L80.5227 291.703Z" fill="#EBAB8F"/>
<path d="M42.3167 210.078L65.8007 210.871L89.4464 211.542C103.075 248.333 80.6045 302.709 80.6045 302.709H65.8007H43.7817C43.7817 302.709 28.6884 246.864 42.3167 210.078Z" fill="#1D4C69"/>
<path d="M14.0722 185.628C30.2813 157.345 52.7505 153.963 52.7505 153.963H77.6293C77.6293 153.963 83.2353 154.013 91.8665 155.901C100.501 157.799 127.171 183.636 126.896 193.856C126.622 204.061 97.0512 217.304 97.0512 217.304L92.0656 212.714C92.0656 212.714 108.316 202.323 111.228 197.445C114.141 192.576 100.963 181.335 100.963 181.335C99.4416 180.28 96.3038 177.605 95.0899 176.948C90.4987 175.77 87.7139 187.884 87.3571 194.516C87.0041 201.152 89.5022 211.651 89.5022 211.651C89.5022 211.651 83.2911 214.35 65.7892 214.944C48.2795 215.538 42.3167 210.078 42.3167 210.078C42.3167 210.078 45.0215 198.564 42.7861 184.72C41.3278 175.693 44.9917 173.888 43.9509 172.983C36.4288 177.909 23.6114 189.125 24.4877 195.215C25.8892 204.91 38.0333 212.549 38.0333 212.549L33.6557 216.64C33.6557 216.64 4.04713 203.103 14.0722 185.628Z" fill="#97FFCD"/>
<path d="M45.8179 210.942C41.9857 209.403 38.164 213.581 38.164 213.581L38.0332 212.549L34.2375 216.046L37.9197 217.77C39.4424 218.982 42.2973 216.126 43.3496 215.259C44.402 214.403 45.5668 215.067 46.4124 214.898C47.2579 214.745 48.366 211.973 45.8179 210.942Z" fill="#EBAB8F"/>
<path d="M90.4381 176.318C98.4902 168.83 114.204 192.849 114.791 194.747C115.369 196.631 100.869 211.186 92.0656 212.714C92.0656 212.714 108.316 202.323 111.228 197.445C114.14 192.576 100.963 181.329 100.963 181.329C99.4415 180.28 96.3038 177.605 95.0898 176.948C90.4987 175.77 87.7139 187.884 87.3571 194.516C87.004 201.152 89.5022 211.651 89.5022 211.651C89.5022 211.651 83.2911 214.35 65.7891 214.944C64.2905 214.997 62.9073 214.986 61.5731 214.951C73.3084 213.605 83.3363 210.959 84.4184 209.553C85.8728 207.655 82.3782 183.821 90.4381 176.318Z" fill="#7EFB6A"/>
<path d="M84.7685 211.553C88.5969 210.014 92.4225 214.192 92.4225 214.192L92.5533 213.161L96.3489 216.657L92.6667 218.377C91.145 219.595 88.2891 216.734 87.2368 215.87C86.1921 215.014 85.0196 215.679 84.1741 215.511C83.3295 215.353 82.2204 212.585 84.7685 211.553Z" fill="#EBAB8F"/>
<path d="M91.8666 155.901C83.2354 154.013 77.6293 153.963 77.6293 153.963H72.8457C72.1128 149.083 69.2646 129.043 72.613 130.756C76.4154 132.707 75.9085 125.942 73.9241 125.511C71.9368 125.085 72.9093 127.347 66.8829 125.529C60.8411 123.712 61.754 115.74 61.754 115.74C61.754 115.74 56.7944 120.984 54.0395 130.221C51.2971 139.455 52.9121 140.021 61.6867 141.909C66.4202 142.923 61.6299 151.726 60.3332 153.963H53.8894C53.7394 153.579 45.0033 131.811 50.2938 119.988C56.4068 106.328 63.8914 108.702 66.7021 110.251C69.7157 108.87 75.063 108.45 83.799 113.667C98.0776 122.184 96.3183 152.562 95.9162 157.694C94.3387 156.767 92.9555 156.149 91.8666 155.901Z" fill="#2A3350"/>
<path d="M61.6867 141.909C52.9121 140.021 51.2971 139.455 54.0395 130.221C56.7944 120.984 61.754 115.74 61.754 115.74C61.754 115.74 60.8411 123.712 66.8829 125.529C72.9092 127.347 71.9368 125.085 73.9241 125.511C75.9085 125.942 76.4154 132.707 72.613 130.756C69.2954 129.06 72.0752 148.831 72.8457 153.911C74.4723 153.925 76.0326 153.936 77.4485 153.954L77.6293 153.963C77.6293 153.963 80.7931 161.575 68.3181 162.334C51.3606 163.365 56.576 154.275 56.7636 153.963C57.865 153.943 59.0818 153.936 60.3525 153.925C61.5808 151.831 66.477 142.929 61.6867 141.909Z" fill="#EBAB8F"/>
<path d="M58.3987 120.617C58.3987 120.617 54.8291 125.11 53.4575 128.211C52.0858 131.316 55.6179 131.431 55.6179 131.431L58.3987 120.617Z" fill="#DC977B"/>
<path d="M169.792 380.072C169.792 380.072 170.142 386.567 169.853 387.099C169.565 387.631 151.807 389.208 150.503 388.977C149.202 388.743 149.517 386.667 149.815 386.339C150.111 386.011 156.746 382.251 158.241 381.545C159.737 380.842 160.87 380.149 160.87 380.149L169.792 380.072Z" fill="black"/>
<path d="M198.984 235.349H198.987C199.084 235.346 199.182 235.342 199.279 235.34L171.663 380.056L158.946 380.166L165.822 231.761C168.129 232.862 180.163 236.283 198.984 235.349Z" fill="#0B324B"/>
<path d="M184.878 310.806L171.663 380.056L158.946 380.166L161.802 318.519C173.632 318.837 180.754 314.796 184.878 310.806Z" fill="#052D46"/>
<path d="M219.964 377.421C219.964 377.421 222.861 387.045 222.68 387.799C222.499 388.549 207.822 388.749 207.44 387.816C207.055 386.882 211.493 377.692 212.527 377.498C213.556 377.3 219.112 376.677 219.964 377.421Z" fill="black"/>
<path d="M198.984 235.349H198.987C211.933 235.078 224.467 233.059 227.756 229.588L221.486 379.62L210.9 379.714C210.9 379.714 190.614 295.734 187.553 235.393C191.017 235.54 194.826 235.556 198.984 235.349Z" fill="#153C55"/>
<path d="M224.574 305.711L221.486 379.62L210.9 379.714C210.9 379.714 202.41 344.547 195.584 303.381C199.154 310.183 204.744 317.377 211.996 315.73C217.321 314.522 221.472 310.361 224.574 305.711Z" fill="#103750"/>
<path d="M180.995 126.961C180.995 126.961 182.027 121.052 184.556 116.124C186.561 112.215 187.235 111.444 187.429 111.294C186.977 111.294 186.581 111.207 186.275 110.962C184.529 109.55 182.111 107.092 183.348 105.101C184.348 103.487 187.01 102.644 192.64 104.177H192.643C198.276 105.305 201.21 106.895 205.133 109.372C209.057 111.846 208.051 113.477 208.178 116.152C208.336 119.392 206.464 131.42 206.464 131.42L208.134 142.092L208.137 142.136L194.672 146.879L189.475 142.487L189.374 141.985L188.412 137.693C183.57 138.611 178.453 139.177 177.897 138.775C176.794 137.981 180.995 126.961 180.995 126.961Z" fill="#EBAB8F"/>
<path d="M186.202 113.075C186.202 113.075 182.377 117.722 180.831 120.982C179.288 124.243 182.819 124.541 182.819 124.541L186.202 113.075Z" fill="#DC977B"/>
<path d="M208.178 116.152C208.051 113.477 209.057 111.846 205.133 109.372C201.21 106.895 198.276 105.304 192.646 104.177H192.64C187.01 102.643 184.348 103.487 183.348 105.1C182.111 107.092 184.529 109.55 186.275 110.962C188.023 112.375 192.677 108.766 194.518 111.157C195.124 111.946 193.948 114.317 193.552 114.966C192.744 116.292 192.063 127.834 191.46 129.157C190.856 130.479 187.888 130.904 185.297 130.449C182.705 129.994 180.995 126.961 180.995 126.961C180.995 126.961 176.794 137.981 177.897 138.775C179 139.572 198.122 136.558 197.263 134.533C196.402 132.508 192.915 128.297 194.065 123.449C195.215 118.602 199.4 120.058 200.148 122.72C200.895 125.381 199.051 126.094 200.12 128.226C201.19 130.359 206.464 131.423 206.464 131.423C206.464 131.423 208.332 119.392 208.178 116.152Z" fill="#2A3350"/>
<path d="M227.82 231.264C229.63 229.634 243.364 216.709 242.013 200.804C240.571 183.778 228.36 171.515 226.814 172.061C225.392 172.563 227.481 223.314 227.82 231.264ZM141.399 191.283C145.01 157.806 166.999 143.572 185.753 142.122C186.99 142.025 188.173 142.018 189.374 141.985L189.475 142.487L194.672 146.879L208.137 142.136L208.134 142.092C208.382 142.109 208.61 142.102 208.858 142.122C227.612 143.572 249.601 157.806 253.215 191.283C256.827 224.756 230.398 235.077 230.398 235.077L227.839 231.736C227.857 232.121 227.867 232.342 227.867 232.342C216.584 235.804 206.166 236.979 197.307 237.069C188.445 236.979 178.027 235.804 166.747 232.342C166.747 232.342 169.34 172.607 167.797 172.061C166.255 171.515 154.044 183.778 152.598 200.804C151.153 217.83 163.978 230.672 163.978 230.672L159.915 233.229C159.915 233.229 137.784 224.756 141.399 191.283Z" fill="#D3E7F2"/>
<path d="M192.298 153.618C191.644 152.956 191.255 151.904 191.392 150.72C191.604 148.904 192.908 147.562 194.303 147.723C195.698 147.887 196.656 149.494 196.445 151.308C196.315 152.423 195.754 153.307 195.034 153.826C195.184 155.114 195.195 156.712 195.05 158.268C194.614 162.895 194.987 199.528 194.89 202.611C194.792 205.691 195.45 214.017 190.544 213.789C190.544 213.789 185.86 214.261 186.088 202.809C186.256 194.38 190.058 160.97 192.298 153.618Z" fill="#E34042"/>
<path d="M242.013 200.804C240.571 183.778 228.36 171.515 226.814 172.061C225.348 172.579 227.615 226.491 227.843 231.873C226.552 232.392 225 232.992 223.263 233.635C213.753 236.098 204.948 236.992 197.307 237.069C192.214 237.019 186.597 236.587 180.609 235.593C194.048 235.529 206.813 234.678 214.917 231.391C224.168 227.642 218.244 192.578 219.541 176.275C220.842 159.972 236.739 172.091 242.087 190.848C247.434 209.605 233.214 228.703 227.615 231.445C227.615 231.445 243.462 217.83 242.013 200.804Z" fill="#C9DDE8"/>
<path d="M230.398 235.077C230.398 235.077 226.747 235.994 225.214 237.809C223.682 239.623 219.323 236.871 219.226 235.907C219.129 234.943 221.13 232.151 222.341 231.807C223.551 231.459 227.615 231.445 227.615 231.445L230.398 235.077Z" fill="#EBAB8F"/>
<path d="M159.915 233.233C159.915 233.233 163.563 234.146 165.095 235.961C166.627 237.776 170.986 235.027 171.083 234.063C171.181 233.099 169.179 230.303 167.968 229.959C166.758 229.614 162.694 229.597 162.694 229.597L159.915 233.233Z" fill="#EBAB8F"/>
<path fill-rule="evenodd" clip-rule="evenodd" d="M315 261.459C309.477 261.459 305 265.936 305 271.459V308.224L294 343.298L325.429 322.041H373C378.523 322.041 383 317.564 383 312.041V271.459C383 265.936 378.523 261.459 373 261.459H315Z" fill="#D9D9D9"/>
<path fill-rule="evenodd" clip-rule="evenodd" d="M82.6742 61.6448C88.197 61.6448 92.6742 66.122 92.6742 71.6448V82.3292C92.6742 83.0485 92.5982 83.7502 92.4539 84.4265L97 103.096L84.4583 92.1705C83.8794 92.2747 83.2831 92.3292 82.6742 92.3292H72C66.4772 92.3292 62 87.852 62 82.3292V71.6448C62 66.122 66.4772 61.6448 72 61.6448H82.6742Z" fill="#D9D9D9"/>
<path fill-rule="evenodd" clip-rule="evenodd" d="M82.6742 61.6448C88.197 61.6448 92.6742 66.122 92.6742 71.6448V82.3292C92.6742 83.0485 92.5982 83.7502 92.4539 84.4265L97 103.096L84.4583 92.1705C83.8794 92.2747 83.2831 92.3292 82.6742 92.3292H72C66.4772 92.3292 62 87.852 62 82.3292V71.6448C62 66.122 66.4772 61.6448 72 61.6448H82.6742Z" fill="#D9D9D9"/>
<path fill-rule="evenodd" clip-rule="evenodd" d="M169.427 52.0792C173.293 52.0792 176.427 55.2132 176.427 59.0792V73.4033C176.427 73.5652 176.422 73.7258 176.411 73.885L181 90.3415L167.934 80.4033H151C147.134 80.4033 144 77.2693 144 73.4033V59.0792C144 55.2132 147.134 52.0792 151 52.0792H169.427Z" fill="#D9D9D9"/>
<path fill-rule="evenodd" clip-rule="evenodd" d="M165.127 55.2678C164.396 55.2678 163.792 56.115 163.792 57.1705V64.0731H153.198V57.1705C153.198 56.1289 152.604 55.2678 151.863 55.2678C151.132 55.2678 150.528 56.115 150.528 57.1705V73.559C150.528 74.6007 151.122 75.4618 151.863 75.4618C152.594 75.4618 153.198 74.6145 153.198 73.559V66.2953H163.792V73.559C163.792 74.6007 164.386 75.4618 165.127 75.4618C165.858 75.4618 166.462 74.6145 166.462 73.559V57.1705C166.453 56.1289 165.858 55.2678 165.127 55.2678ZM149.242 57.6844C148.813 57.6844 148.462 58.1843 148.462 58.7954V71.934C148.462 72.5451 148.813 73.0451 149.242 73.0451C149.67 73.0451 150.021 72.5451 150.021 71.934V58.7954C150.021 58.1705 149.67 57.6844 149.242 57.6844ZM166.969 58.7954C166.969 58.1843 167.32 57.6844 167.749 57.6844C168.187 57.6844 168.528 58.1705 168.528 58.7954V71.934C168.528 72.5451 168.178 73.0451 167.749 73.0451C167.32 73.0451 166.969 72.5451 166.969 71.934V58.7954ZM147.897 64.1981H147.263C147.117 64.1981 147 64.3648 147 64.5731V66.0036C147 66.212 147.117 66.3786 147.263 66.3786H147.897C148.043 66.3786 148.16 66.212 148.16 66.0036V64.5731C148.15 64.3648 148.033 64.1981 147.897 64.1981ZM169.103 64.1981H169.737C169.883 64.1981 170 64.3648 170 64.5731V66.0036C170 66.212 169.883 66.3786 169.737 66.3786H169.103C168.957 66.3786 168.84 66.212 168.84 66.0036V64.5731C168.84 64.3648 168.957 64.1981 169.103 64.1981Z" fill="#757B89"/>
<path fill-rule="evenodd" clip-rule="evenodd" d="M288.528 165.803C283.005 165.803 278.528 170.28 278.528 175.803V204.066L270 232.762L294.366 215.37H329C334.523 215.37 339 210.893 339 205.37V175.803C339 170.28 334.523 165.803 329 165.803H288.528Z" fill="#D9D9D9"/>
<path fill-rule="evenodd" clip-rule="evenodd" d="M255.438 88.2159C249.915 88.2159 245.438 92.693 245.438 98.2159V110.474C245.438 111.15 245.505 111.81 245.633 112.448L240 131.792L255.538 120.474H274C279.523 120.474 284 115.997 284 110.474V98.2159C284 92.693 279.523 88.2159 274 88.2159H255.438Z" fill="#D9D9D9"/>
<path d="M125 272.249C124.394 272.392 123.309 272.855 122.561 273.229C121.333 273.852 120.247 274.902 109.567 285.565C98.9225 296.228 97.8545 297.349 97.2315 298.56C95.5405 301.871 95.5939 305.787 97.3739 308.849C100.204 313.691 106.327 315.4 111.436 312.765C112.664 312.142 113.768 311.074 124.43 300.429C135.074 289.766 136.142 288.662 136.765 287.434C139.4 282.325 137.691 276.201 132.849 273.371C130.731 272.143 127.385 271.662 125 272.249ZM125.551 276.006C126.53 276.967 126.441 277.091 121.262 282.236C117.346 286.152 116.438 286.989 116.011 286.989C115.281 286.989 114.569 286.224 114.569 285.458C114.569 284.906 115.032 284.372 119.232 280.207C123.398 276.023 123.949 275.543 124.483 275.543C124.893 275.543 125.249 275.685 125.551 276.006ZM115.975 294.127L121.226 299.379L116.634 304.007C114.106 306.535 111.543 308.991 110.92 309.454C107.591 311.982 103.016 311.323 100.471 307.995C98.6911 305.627 98.5131 302.441 100.044 299.77C100.471 299.041 110.315 288.876 110.599 288.876C110.671 288.876 113.074 291.244 115.975 294.127Z" fill="#4E9EAA"/>
<path fill-rule="evenodd" clip-rule="evenodd" d="M271.133 94.7821H273.582C274.914 94.7821 276 95.8229 276 97.1114L274.791 111.395C274.791 112.683 273.715 113.724 272.383 113.724H257.617C256.285 113.724 255.209 112.683 255.209 111.395L254 97.1114C254 95.8229 255.076 94.7821 256.408 94.7821H258.857C259.636 92.2149 262.095 90.3415 264.995 90.3415C267.895 90.3415 270.354 92.2149 271.133 94.7821ZM269.647 96.5266C269.647 94.0486 267.557 92.0266 264.995 92.0266C262.433 92.0266 260.343 94.0486 260.343 96.5266C260.343 99.0046 262.433 101.027 264.995 101.027C267.557 101.027 269.647 99.0046 269.647 96.5266ZM265.516 97.3722C265.342 97.522 265.128 97.6027 264.904 97.6027C264.332 97.6027 263.873 97.0727 263.863 96.4274C263.863 96.0011 264.077 95.6324 264.383 95.425C264.383 95.425 264.394 95.4135 264.404 95.4135C264.424 95.402 264.447 95.3905 264.47 95.3789C264.493 95.3674 264.516 95.3559 264.536 95.3444C265.179 94.9987 267.657 93.6967 267.872 93.9848C268.076 94.2498 266.423 96.2892 265.771 97.0727C265.709 97.1879 265.618 97.2801 265.526 97.3607L265.516 97.3722Z" fill="#B1B4C4"/>
<path fill-rule="evenodd" clip-rule="evenodd" d="M352.933 265.442C353.314 265.138 353.746 264.859 353.873 264.783C354.203 264.606 354.965 264.606 355.32 264.808C355.803 265.062 356.26 265.644 356.336 266.1C356.463 266.784 356.209 267.164 353.949 269.266C352.679 270.481 352.045 272.203 352.273 273.723C352.527 275.318 352.756 275.597 357.25 280.105L361.363 284.208L365.426 280.105C369.056 276.458 369.564 275.876 369.894 275.217C370.656 273.672 370.631 272.355 369.844 270.76C369.513 270.051 369.183 269.646 368.219 268.709C366.467 266.986 366.263 266.531 366.771 265.593C367.254 264.758 368.447 264.378 369.133 264.859C369.742 265.264 371.392 266.834 371.951 267.544C372.763 268.531 373.449 269.848 373.728 270.937C374.008 272.051 374.033 273.774 373.779 274.837C373.576 275.698 372.967 277.066 372.433 277.876C372.23 278.18 370.072 280.409 367.66 282.84L363.267 287.247L363.242 291.02C363.217 294.642 363.191 294.819 362.963 295.123C362.48 295.756 362.125 295.933 361.261 295.933C360.297 295.933 359.941 295.731 359.535 294.946C359.256 294.439 359.256 294.338 359.256 290.717V290.716V287.019L355.117 282.916C352.832 280.662 350.75 278.484 350.47 278.104C347.424 273.875 348.414 268.835 352.933 265.442ZM323.252 270.456C323.531 269.443 324.394 268.683 325.486 268.405C325.689 268.354 328.508 268.329 331.707 268.303L337.597 268.329L338.156 268.607C338.461 268.734 338.892 269.063 339.095 269.291C339.756 270.051 339.832 270.355 339.883 272.634L339.933 274.736H340.39C341.228 274.736 342.523 275.116 343.666 275.648C344.631 276.129 344.935 276.357 345.849 277.269C346.763 278.155 347.017 278.509 347.474 279.447C347.524 279.548 347.571 279.642 347.615 279.732C347.771 280.046 347.897 280.301 348 280.565C348.445 281.708 348.451 283.022 348.484 290.014L348.49 291.375C348.515 298.01 348.49 300.771 348.388 301.1C348.211 301.657 347.601 302.341 347.119 302.543C346.789 302.695 343.996 302.721 331.275 302.721C316.523 302.721 315.787 302.695 315.33 302.493C314.67 302.189 314.263 301.657 314.086 300.897C314.01 300.441 313.984 297.681 314.01 291.35C314.059 281.597 314.06 281.594 314.866 279.849L314.924 279.725C316.219 276.965 318.758 275.116 321.652 274.812C322.084 274.787 322.566 274.685 322.744 274.609L323.074 274.457V272.735C323.074 271.596 323.125 270.861 323.252 270.456ZM337.318 273.267C337.318 271.824 337.166 271.342 336.556 271.064C335.998 270.785 326.984 270.785 326.375 271.064C325.816 271.342 325.638 271.824 325.638 273.267V274.508H331.478H337.318V273.267ZM340.873 286.107C339.959 282.688 337.369 280.004 333.967 279.041C332.011 278.484 329.752 278.56 327.822 279.269C324.902 280.358 322.515 282.992 321.703 286.031C321.551 286.614 321.5 287.247 321.5 288.564C321.5 290.64 321.652 291.299 322.439 292.92C323.734 295.554 326.172 297.478 329.041 298.162C330.437 298.491 332.824 298.441 334.094 298.035C337.597 296.921 340.111 294.211 340.924 290.666C341.228 289.374 341.203 287.348 340.873 286.107ZM330.31 279.928C328.076 280.156 325.74 281.473 324.42 283.245C320.763 288.159 322.947 294.996 328.812 296.845C330.082 297.25 331.935 297.301 333.281 296.972C336.48 296.212 338.918 293.806 339.73 290.615C339.933 289.805 339.984 289.399 339.933 288.209C339.832 285.753 339.121 284.132 337.369 282.359C336.531 281.523 336.176 281.27 335.261 280.814C333.586 280.029 332.062 279.75 330.31 279.928ZM333.002 282.612C333.154 282.789 333.205 283.169 333.23 284.689L333.256 286.563L335.135 286.588C336.658 286.614 337.039 286.639 337.217 286.816C337.394 286.994 337.42 287.221 337.42 288.488C337.42 289.754 337.394 290.007 337.217 290.159C337.039 290.337 336.658 290.362 335.135 290.387L333.256 290.412L333.23 292.185C333.23 292.242 333.229 292.298 333.228 292.352C333.217 293.416 333.212 293.918 332.958 294.154C332.733 294.365 332.309 294.364 331.509 294.363C331.45 294.363 331.389 294.363 331.326 294.363C331.242 294.363 331.161 294.363 331.084 294.364C330.293 294.365 329.878 294.366 329.661 294.16C329.42 293.931 329.42 293.447 329.421 292.429C329.422 292.351 329.422 292.27 329.422 292.185V290.387H327.644C327.585 290.387 327.527 290.387 327.471 290.387C326.372 290.388 325.858 290.388 325.619 290.132C325.408 289.907 325.409 289.485 325.41 288.692C325.41 288.634 325.41 288.575 325.41 288.513C325.41 288.449 325.41 288.388 325.41 288.328C325.409 287.521 325.408 287.099 325.619 286.873C325.85 286.625 326.335 286.615 327.354 286.594C327.431 286.592 327.511 286.59 327.594 286.588L329.371 286.563L329.396 284.689C329.422 283.169 329.447 282.789 329.625 282.612C329.777 282.435 330.031 282.41 331.301 282.41H331.301C332.57 282.41 332.849 282.41 333.002 282.612ZM360.64 306.611C360.767 306.054 360.843 304.863 360.868 302.255L360.944 298.658H361.985H363.027V302.128C363.027 305.927 362.925 306.94 362.366 308.485C359.903 315.348 352.642 318.894 345.735 316.589L344.745 316.26L344.314 316.513C343.222 317.197 341.571 317.475 340.302 317.171C337.509 316.513 335.63 313.828 336.062 311.093C336.519 308.13 339.362 306.028 342.282 306.484C345.786 307.041 347.919 310.612 346.624 313.778L346.345 314.487L346.65 314.614C348.046 315.145 350.763 315.247 352.489 314.841C356.552 313.879 359.675 310.688 360.64 306.611ZM344.136 310.789C343.882 310.207 343.298 309.599 342.714 309.32C341.952 308.966 340.987 308.991 340.2 309.371C338.144 310.409 338.144 313.322 340.2 314.36C342.105 315.348 344.314 314.006 344.314 311.878C344.314 311.498 344.237 311.017 344.136 310.789Z" fill="#2CA9FA"/>
<path d="M72.3946 67.0239C72.3297 67.033 72.1208 67.0879 71.9263 67.1336C69.9307 67.6545 68.5187 69.5647 68.0792 72.3339C68.0072 72.7818 68 72.9737 68 73.8602C68 74.7559 68.0072 74.9387 68.0792 75.3408C68.3818 77.0956 69.0302 78.567 70.1685 80.0385C71.105 81.2632 72.2577 82.3873 74.0948 83.8496C75.0817 84.6448 75.586 85.0835 76.0327 85.5587C76.2848 85.8329 76.4938 86.0248 76.4938 85.9974C76.4938 85.97 76.501 85.9608 76.5154 85.9791C76.5226 85.9883 76.7099 85.8146 76.926 85.5861C77.3655 85.1109 77.7473 84.7727 78.9648 83.7948C80.8019 82.3142 81.7384 81.4094 82.6605 80.2395C83.6691 78.9692 84.3247 77.6896 84.6777 76.3279C84.9371 75.3317 85.0235 74.5914 84.9947 73.5769C84.8938 70.0765 83.2225 67.5266 80.7226 67.0605C79.9806 66.9234 79.0152 67.0239 78.3164 67.3164C78.0066 67.4443 77.5023 67.7551 77.243 67.9744L77.0341 68.1481L76.6594 70.5426C76.4505 71.8587 76.2848 72.9371 76.292 72.9463C76.292 72.9463 76.926 73.0468 77.6969 73.1565C78.4605 73.2661 79.0945 73.3575 79.1017 73.3667C79.1089 73.3758 78.7198 74.6096 78.2372 76.1085C77.7545 77.6074 77.3655 78.8412 77.3727 78.8503C77.3799 78.8595 77.8842 78.8869 78.5037 78.9143C79.1161 78.9417 79.6276 78.9692 79.6276 78.9692C79.6348 78.9783 78.9432 80.5503 78.0931 82.4604C77.243 84.3706 76.5442 85.9334 76.537 85.9243C76.537 85.9151 76.9332 84.5716 77.4303 82.9357C77.9274 81.2997 78.3236 79.9562 78.3164 79.9471C78.3092 79.9379 77.7833 79.8648 77.1637 79.7826C76.537 79.7003 76.0255 79.6181 76.0183 79.6181C76.0111 79.6181 76.4577 78.3385 77.0125 76.8031C77.5672 75.2585 78.021 73.9973 78.021 73.9973C78.021 73.9973 77.3583 74.0613 76.5514 74.1435C75.7445 74.2258 75.0817 74.2898 75.0745 74.2806C75.0673 74.2715 75.8886 68.5868 75.9534 68.2395C75.975 68.1024 75.2474 67.5814 74.6927 67.3346C74.174 67.1062 73.8354 67.0422 73.151 67.0239C72.8052 67.0056 72.4594 67.0148 72.3946 67.0239Z" fill="#2CA9FA"/>
<path fill-rule="evenodd" clip-rule="evenodd" d="M324.615 169.447L324.876 169.215C325.206 168.905 325.762 168.924 326.022 169.234C326.213 169.467 326.231 169.796 326.283 175.589L326.335 181.693L326.63 181.15C327.325 179.813 327.464 178.302 327.203 173.768C327.03 170.455 327.047 170.222 327.586 170.009C327.95 169.874 328.402 170.009 328.576 170.339C328.802 170.765 329.114 177.45 328.958 178.806C328.819 180.085 328.506 181.267 328.089 182.08C327.742 182.739 326.873 183.708 326.509 183.844L326.265 183.921V188.746V193.59L326.526 193.764C327.098 194.17 327.099 194.209 327.341 201.948L327.342 201.999L327.346 202.108C327.538 208.843 327.562 209.69 327.197 210.306C327.145 210.394 327.084 210.478 327.015 210.574L326.995 210.601C326.074 211.822 324.563 211.745 323.747 210.446C323.312 209.749 323.312 209.497 323.521 201.65C323.712 194.597 323.747 194.248 324.285 193.861L324.546 193.686V188.823V183.979L324.164 183.747C323.312 183.243 322.513 181.867 322.114 180.22C321.957 179.561 321.923 179 321.94 176.752C321.957 175.279 322.01 173.284 322.062 172.296C322.166 170.552 322.183 170.494 322.461 170.222C322.826 169.854 323.226 169.874 323.538 170.242C323.583 170.289 323.622 170.33 323.655 170.376C323.864 170.663 323.837 171.122 323.642 174.485C323.417 178.302 323.538 179.716 324.216 181.092L324.511 181.673L324.563 175.57L324.615 169.447ZM290.864 170.358C291.402 169.796 291.663 169.622 292.288 169.389C294.407 168.614 296.683 171.443 297.656 176.113C298.333 179.193 297.812 181.867 296.214 183.65C295.554 184.386 294.425 185.122 293.991 185.122C293.817 185.122 293.799 185.413 293.799 189.656V194.21L294.182 194.616C294.39 194.849 294.581 195.198 294.616 195.411C294.755 196.263 295.102 209.361 294.998 209.729C294.546 211.473 292.775 212.074 291.611 210.892L291.56 210.84C291.445 210.724 291.349 210.626 291.268 210.516C290.822 209.914 290.853 208.96 291.05 202.771L291.055 202.619C291.159 198.937 291.281 195.76 291.315 195.527C291.35 195.275 291.524 194.946 291.75 194.694L292.115 194.287V189.714V185.161L291.628 185.006C290.169 184.541 288.814 182.894 288.241 180.879C287.424 177.973 288.779 172.47 290.864 170.358ZM307.001 176.442C304.257 176.946 301.964 178.263 299.983 180.492C298.073 182.623 296.909 185.025 296.405 187.971C296.197 189.153 296.231 192.117 296.457 193.318C297.03 196.263 298.194 198.647 300.07 200.7C307.383 208.683 319.578 204.401 321.575 193.163C321.766 192.078 321.766 189.017 321.575 187.912C320.724 183.146 317.858 179.193 313.863 177.353C311.865 176.423 309.086 176.055 307.001 176.442ZM311.014 181.034C312.612 181.46 313.845 182.235 315.061 183.534C316.833 185.452 317.702 187.738 317.702 190.528C317.702 193.357 316.816 195.663 314.974 197.6C314.002 198.647 313.012 199.305 311.691 199.79C310.805 200.119 310.493 200.177 309.329 200.235C308.391 200.274 307.766 200.216 307.227 200.1C304.013 199.344 301.547 196.787 300.522 193.202C300.313 192.427 300.279 192.059 300.279 190.509C300.279 188.959 300.313 188.591 300.522 187.816C301.495 184.386 303.805 181.906 306.862 181.015C307.991 180.743 309.85 180.724 311.014 181.034ZM305.716 183.398C306.272 183.088 307.053 182.759 307.436 182.662C308.495 182.39 310.163 182.487 311.222 182.875C313.446 183.708 315.131 185.587 315.843 188.029C316.121 188.978 316.156 189.249 316.138 190.586C316.138 191.884 316.104 192.194 315.843 193.028C315.096 195.488 313.463 197.31 311.309 198.143C307.922 199.46 304.135 197.717 302.572 194.151C301.495 191.71 301.495 189.366 302.572 186.924C303.249 185.355 304.309 184.173 305.716 183.398Z" fill="#78D5A8"/>
<path fill-rule="evenodd" clip-rule="evenodd" d="M220.598 33.4931V41.4781L220.791 41.4334C222.689 40.9576 235.965 37.5376 235.994 37.5079C236.054 37.4484 235.638 36.1845 235.282 35.3518C233.354 30.7274 229.231 27.1736 224.469 26.0138C223.416 25.761 222.437 25.6123 221.399 25.5528L220.598 25.5082V33.4931ZM216.089 29.4189C211.075 29.7163 206.448 32.4077 203.63 36.6603C201.063 40.5413 200.322 45.5672 201.642 50.1024C202.413 52.764 204.06 55.4256 206.077 57.2992C208.554 59.5891 211.461 61.0017 214.828 61.5221C215.941 61.6857 218.284 61.6857 219.367 61.5221C221.147 61.2396 222.526 60.8084 224.099 60.0649C226.724 58.801 228.904 56.8977 230.491 54.4889C231.055 53.6264 231.441 52.9276 231.337 52.883L231.17 52.7967L231.17 52.7967C230.464 52.4304 227.599 50.9442 224.217 49.2102L217.172 45.5523L217.157 37.4335C217.142 31.0248 217.127 29.3297 217.053 29.3445C217.009 29.3445 216.578 29.3743 216.089 29.4189ZM222.571 44.5114C222.571 44.4966 225.3 43.7977 228.652 42.9501C231.989 42.1174 234.778 41.4186 234.837 41.4037C234.926 41.3888 234.971 41.4781 235.03 41.7606C235.594 44.4966 235.297 47.1731 234.185 49.7158C234.022 50.0726 233.873 50.37 233.844 50.3552C233.651 50.2957 222.571 44.5412 222.571 44.5114Z" fill="#93DBD8"/>
<path fill-rule="evenodd" clip-rule="evenodd" d="M256.308 297.835L261.62 292.189L261.454 292.075C259.795 290.985 248.133 283.426 248.092 283.425C248.011 283.422 247.464 284.628 247.161 285.485C245.448 290.204 245.999 295.816 248.595 300.214C249.171 301.184 249.764 302.025 250.459 302.847L250.996 303.481L256.308 297.835ZM256.786 304.104C260.529 307.662 265.592 309.237 270.414 308.348C274.81 307.532 278.678 304.535 280.762 300.337C281.988 297.875 282.594 294.755 282.414 291.915C282.186 288.434 281.07 285.25 279.036 282.352C278.358 281.4 276.701 279.639 275.826 278.94C274.38 277.803 273.117 277.071 271.511 276.415C268.814 275.335 266.006 275.043 263.281 275.553C262.308 275.739 261.571 275.944 261.615 276.053L261.675 276.24C261.931 277.03 262.968 280.234 264.205 284.001L266.754 291.883L261.363 297.635C257.11 302.177 255.992 303.387 256.055 303.432C256.086 303.466 256.41 303.768 256.786 304.104ZM262.244 288.561C262.234 288.572 259.839 287.015 256.905 285.095C253.991 283.175 251.554 281.574 251.502 281.54C251.429 281.483 251.457 281.387 251.603 281.142C253.025 278.784 255.015 277.115 257.494 276.153C257.846 276.023 258.149 275.924 258.16 275.957C258.257 276.144 262.263 288.54 262.244 288.561Z" fill="#F7935F"/>
<path fill-rule="evenodd" clip-rule="evenodd" d="M113.656 126.557C113.366 126.673 113.076 127.018 113.015 127.278C113 127.393 113 134.568 113 143.213L113.015 158.947L113.198 159.279C113.412 159.711 113.839 160.1 114.297 160.316L114.647 160.489H131.488H148.329L148.512 160.345L148.522 160.338C148.985 159.999 149 159.988 149 158.385C149 156.786 149 156.772 148.512 156.426L148.329 156.282L132.907 156.267L117.5 156.253L117.485 141.701L117.454 127.134L117.302 126.961C116.951 126.514 116.92 126.5 115.319 126.485C114.22 126.471 113.824 126.471 113.656 126.557ZM140.686 130.808C140.397 130.923 140.107 131.269 140.046 131.528C140.03 131.643 140.015 136.629 140.03 142.594L140.03 142.598C140.046 153.429 140.046 153.443 140.198 153.631L140.206 153.64C140.564 154.078 140.576 154.092 142.273 154.092C143.966 154.092 143.981 154.092 144.347 153.631L144.5 153.458V142.421V131.384L144.347 131.211C143.997 130.765 143.966 130.75 142.364 130.736C141.251 130.721 140.854 130.736 140.686 130.808ZM126.53 135.779C126.592 135.519 126.881 135.174 127.171 135.058C127.339 134.986 127.736 134.972 128.849 134.986C130.451 135.001 130.481 135.015 130.832 135.462C130.985 135.635 130.985 135.649 130.985 144.539C130.985 153.415 130.985 153.443 130.832 153.616C130.466 154.077 130.451 154.077 128.758 154.077C127.061 154.077 127.049 154.063 126.691 153.625L126.683 153.616C126.531 153.443 126.53 153.4 126.515 144.725L126.515 144.712C126.5 139.914 126.515 135.894 126.53 135.779ZM133.929 139.323C133.639 139.438 133.349 139.784 133.288 140.044C133.273 140.159 133.258 143.228 133.273 146.859L133.273 146.876C133.288 153.4 133.288 153.458 133.441 153.631L133.448 153.64C133.807 154.078 133.818 154.092 135.515 154.092C136.73 154.092 137.081 154.092 137.314 153.926C137.409 153.859 137.484 153.764 137.59 153.631C137.742 153.458 137.742 153.415 137.742 146.671C137.742 139.928 137.742 139.9 137.59 139.712C137.239 139.266 137.208 139.251 135.607 139.237C134.493 139.237 134.097 139.251 133.929 139.323ZM119.773 144.294C119.834 144.035 120.124 143.689 120.414 143.574C120.581 143.502 120.978 143.487 122.091 143.502C123.693 143.516 123.724 143.53 124.075 143.977C124.227 144.15 124.227 144.222 124.227 148.804C124.227 153.386 124.227 153.458 124.075 153.631C123.708 154.092 123.693 154.092 122 154.092C120.303 154.092 120.292 154.078 119.933 153.64L119.925 153.631C119.773 153.444 119.773 153.372 119.758 148.998L119.758 148.977C119.742 146.513 119.758 144.409 119.773 144.294Z" fill="#052D46"/>
<defs>
<linearGradient id="paint0_linear_20_155" x1="160" y1="0" x2="160" y2="389" gradientUnits="userSpaceOnUse">
<stop stop-color="#C28D76" stop-opacity="0"/>
<stop offset="1" stop-color="#4F2310"/>
</linearGradient>
</defs>
</svg>
